SplineFontDB: 3.2
FontName: Zosokw
FullName: Zosokw
FamilyName: Zosokw
Weight: Regular
Copyright: Copyright (c) 2025, W.F.Turnip
UComments: "2025-2-21: Created with FontForge (http://fontforge.org)"
Version: 001.000
ItalicAngle: 0
UnderlinePosition: -65
UnderlineWidth: 32
Ascent: 550
Descent: 100
InvalidEm: 0
LayerCount: 2
Layer: 0 1 "+gMyXYgAA" 1
Layer: 1 1 "+Uk2XYgAA" 0
XUID: [1021 352 -730677569 3095767]
StyleMap: 0x0000
FSType: 0
OS2Version: 0
OS2_WeightWidthSlopeOnly: 0
OS2_UseTypoMetrics: 1
CreationTime: 1740102286
ModificationTime: 1763123899
OS2TypoAscent: 0
OS2TypoAOffset: 1
OS2TypoDescent: 0
OS2TypoDOffset: 1
OS2TypoLinegap: 58
OS2WinAscent: 0
OS2WinAOffset: 1
OS2WinDescent: 0
OS2WinDOffset: 1
HheadAscent: 0
HheadAOffset: 1
HheadDescent: 0
HheadDOffset: 1
OS2Vendor: 'PfEd'
Lookup: 1 8 0 "isol" { "isol-1" ("isol") } ['isol' ('DFLT' <'dflt' > 'latn' <'dflt' > ) ]
Lookup: 1 8 0 "init" { "init-1" ("init") } ['init' ('DFLT' <'dflt' > 'latn' <'dflt' > ) ]
Lookup: 1 8 0 "medi" { "medi-1" ("medi") } ['medi' ('DFLT' <'dflt' > 'latn' <'dflt' > ) ]
Lookup: 1 8 0 "fina" { "fina-1" ("fina") } ['fina' ('DFLT' <'dflt' > 'latn' <'dflt' > ) ]
Lookup: 6 8 0 "calt" { "calt-1"  } ['calt' ('DFLT' <'dflt' > 'latn' <'dflt' > ) ]
Lookup: 260 0 0 "mark" { "mark-1"  } ['mark' ('latn' <'dflt' > ) ]
MarkAttachClasses: 1
DEI: 91125
ChainSub2: class "calt-1" 4 4 4 6
  Class: 79 B C D F G H J K L M N P Q R S T V X Y Z b c d f g h j k l m n p q r s t v x y z
  Class: 519 uni0042.init uni0043.init uni0044.init uni0046.init uni0047.init uni0048.init uni004A.init uni004B.init uni004C.init uni004D.init uni004E.init uni0050.init uni0051.init uni0052.init uni0053.init uni0054.init uni0056.init uni0058.init uni0059.init uni005A.init uni0062.init uni0063.init uni0064.init uni0066.init uni0067.init uni0068.init uni006A.init uni006B.init uni006C.init uni006D.init uni006E.init uni0070.init uni0071.init uni0072.init uni0073.init uni0074.init uni0076.init uni0078.init uni0079.init uni007A.init

StartChar: nine
Encoding: 57 57 0
Width: 500
Flags: W
LayerCount: 2
Fore
SplineSet
250 450 m 2,0,-1
 450 450 l 2,1,2
 460 450 460 450 467.5 442.5 c 128,-1,3
 475 435 475 435 475 425 c 128,-1,4
 475 415 475 415 467.5 407.5 c 128,-1,5
 460 400 460 400 450 400 c 2,6,-1
 250 400 l 2,7,8
 178 400 178 400 126.5 348.5 c 128,-1,9
 75 297 75 297 75 225 c 2,10,-1
 75 25 l 2,11,12
 75 15 75 15 67.5 7.5 c 128,-1,13
 60 0 60 0 50 0 c 128,-1,14
 40 0 40 0 32.5 7.5 c 128,-1,15
 25 15 25 15 25 25 c 2,16,-1
 25 225 l 2,17,18
 25 318 25 318 91 384 c 128,-1,19
 157 450 157 450 250 450 c 2,0,-1
250 350 m 128,-1,21
 302 350 302 350 338.5 313.5 c 128,-1,22
 375 277 375 277 375 225 c 128,-1,23
 375 173 375 173 338.5 136.5 c 128,-1,24
 302 100 302 100 250 100 c 128,-1,25
 198 100 198 100 161.5 136.5 c 128,-1,26
 125 173 125 173 125 225 c 128,-1,27
 125 277 125 277 161.5 313.5 c 128,-1,20
 198 350 198 350 250 350 c 128,-1,21
250 300 m 128,-1,29
 219 300 219 300 197 278 c 128,-1,30
 175 256 175 256 175 225 c 128,-1,31
 175 194 175 194 197 172 c 128,-1,32
 219 150 219 150 250 150 c 128,-1,33
 281 150 281 150 303 172 c 128,-1,34
 325 194 325 194 325 225 c 128,-1,35
 325 256 325 256 303 278 c 128,-1,28
 281 300 281 300 250 300 c 128,-1,29
EndSplineSet
EndChar

StartChar: eight
Encoding: 56 56 1
Width: 500
Flags: W
LayerCount: 2
Fore
SplineSet
250 450 m 128,-1,1
 343 450 343 450 409 384 c 128,-1,2
 475 318 475 318 475 225 c 2,3,-1
 475 25 l 2,4,5
 475 15 475 15 467.5 7.5 c 128,-1,6
 460 0 460 0 450 0 c 128,-1,7
 440 0 440 0 432.5 7.5 c 128,-1,8
 425 15 425 15 425 25 c 2,9,-1
 425 225 l 2,10,11
 425 297 425 297 373.5 348.5 c 128,-1,12
 322 400 322 400 250 400 c 128,-1,13
 178 400 178 400 126.5 348.5 c 128,-1,14
 75 297 75 297 75 225 c 2,15,-1
 75 25 l 2,16,17
 75 15 75 15 67.5 7.5 c 128,-1,18
 60 0 60 0 50 0 c 128,-1,19
 40 0 40 0 32.5 7.5 c 128,-1,20
 25 15 25 15 25 25 c 2,21,-1
 25 225 l 2,22,23
 25 318 25 318 91 384 c 128,-1,0
 157 450 157 450 250 450 c 128,-1,1
250 350 m 128,-1,25
 302 350 302 350 338.5 313.5 c 128,-1,26
 375 277 375 277 375 225 c 128,-1,27
 375 173 375 173 338.5 136.5 c 128,-1,28
 302 100 302 100 250 100 c 128,-1,29
 198 100 198 100 161.5 136.5 c 128,-1,30
 125 173 125 173 125 225 c 128,-1,31
 125 277 125 277 161.5 313.5 c 128,-1,24
 198 350 198 350 250 350 c 128,-1,25
250 300 m 128,-1,33
 219 300 219 300 197 278 c 128,-1,34
 175 256 175 256 175 225 c 128,-1,35
 175 194 175 194 197 172 c 128,-1,36
 219 150 219 150 250 150 c 128,-1,37
 281 150 281 150 303 172 c 128,-1,38
 325 194 325 194 325 225 c 128,-1,39
 325 256 325 256 303 278 c 128,-1,32
 281 300 281 300 250 300 c 128,-1,33
EndSplineSet
EndChar

StartChar: parenleft
Encoding: 40 40 2
Width: 500
Flags: W
LayerCount: 2
Fore
SplineSet
350 550 m 0,0,1
 360 550 360 550 367.5 542.5 c 128,-1,2
 375 535 375 535 375 525 c 128,-1,3
 375 515 375 515 367.5 507.5 c 128,-1,4
 360 500 360 500 350 500 c 0,5,6
 319 500 319 500 297 478 c 128,-1,7
 275 456 275 456 275 425 c 2,8,-1
 275 25 l 2,9,10
 275 -6 275 -6 297 -28 c 128,-1,11
 319 -50 319 -50 350 -50 c 0,12,13
 360 -50 360 -50 367.5 -57.5 c 128,-1,14
 375 -65 375 -65 375 -75 c 128,-1,15
 375 -85 375 -85 367.5 -92.5 c 128,-1,16
 360 -100 360 -100 350 -100 c 0,17,18
 298 -100 298 -100 261.5 -63.5 c 128,-1,19
 225 -27 225 -27 225 25 c 2,20,-1
 225 425 l 2,21,22
 225 477 225 477 261.5 513.5 c 128,-1,23
 298 550 298 550 350 550 c 0,0,1
EndSplineSet
EndChar

StartChar: parenright
Encoding: 41 41 3
Width: 500
Flags: W
LayerCount: 2
Fore
SplineSet
150 550 m 0,0,1
 202 550 202 550 238.5 513.5 c 128,-1,2
 275 477 275 477 275 425 c 2,3,-1
 275 25 l 2,4,5
 275 -27 275 -27 238.5 -63.5 c 128,-1,6
 202 -100 202 -100 150 -100 c 0,7,8
 140 -100 140 -100 132.5 -92.5 c 128,-1,9
 125 -85 125 -85 125 -75 c 128,-1,10
 125 -65 125 -65 132.5 -57.5 c 128,-1,11
 140 -50 140 -50 150 -50 c 0,12,13
 181 -50 181 -50 203 -28 c 128,-1,14
 225 -6 225 -6 225 25 c 2,15,-1
 225 425 l 2,16,17
 225 456 225 456 203 478 c 128,-1,18
 181 500 181 500 150 500 c 0,19,20
 140 500 140 500 132.5 507.5 c 128,-1,21
 125 515 125 515 125 525 c 128,-1,22
 125 535 125 535 132.5 542.5 c 128,-1,23
 140 550 140 550 150 550 c 0,0,1
EndSplineSet
EndChar

StartChar: l
Encoding: 108 108 4
Width: 500
Flags: W
AnchorPoint: "vowel" 250 225 basechar 0
LayerCount: 2
Fore
SplineSet
50 450 m 128,-1,1
 60.35546875 450 60.35546875 450 67.677734375 442.677734375 c 2,2,-1
 78.2701280382 432.141981337 l 0,3,4
 88.8625217014 421.606228299 88.8625217014 421.606228299 99.4167209201 411.05202908 c 128,-1,5
 109.970920139 400.497829861 109.970920139 400.497829861 109.89453125 400.4609375 c 1,6,7
 171.282781008 449.740015458 171.282781008 449.740015458 250 450 c 0,8,9
 343 450 343 450 409 384 c 128,-1,10
 475 318 475 318 475 225 c 0,11,12
 474.740015458 146.282781008 474.740015458 146.282781008 425.4609375 84.89453125 c 1,13,-1
 467.677734375 42.677734375 l 1,14,15
 475 35.35546875 475 35.35546875 475 25 c 128,-1,16
 474.963347526 14.6977225257 474.963347526 14.6977225257 467.677734375 7.412109375 c 1,17,-1
 467.677734375 7.322265625 l 1,18,-1
 467.587890625 7.322265625 l 1,19,20
 460.302277474 0.0366524742931 460.302277474 0.0366524742931 450 0 c 128,-1,21
 439.697722526 0.0366524742931 439.697722526 0.0366524742931 432.412109375 7.322265625 c 1,22,-1
 432.322265625 7.322265625 l 1,23,-1
 421.729871962 17.8580186632 l 0,24,25
 411.137478299 28.3937717014 411.137478299 28.3937717014 400.58327908 38.9479709201 c 128,-1,26
 390.029079861 49.5021701389 390.029079861 49.5021701389 390.10546875 49.5390625 c 1,27,28
 328.717218992 0.259984541571 328.717218992 0.259984541571 250 0 c 0,29,30
 157 0 157 0 91 66 c 128,-1,31
 25 132 25 132 25 225 c 0,32,33
 25.2599845416 303.717218992 25.2599845416 303.717218992 74.5390625 365.10546875 c 1,34,-1
 32.322265625 407.322265625 l 1,35,-1
 32.322265625 407.412109375 l 1,36,37
 25.0366524743 414.697722526 25.0366524743 414.697722526 25 425 c 128,-1,38
 25.0366524743 435.302277474 25.0366524743 435.302277474 32.322265625 442.587890625 c 1,39,-1
 32.322265625 442.677734375 l 1,40,-1
 32.412109375 442.677734375 l 1,41,0
 39.6977225257 449.963347526 39.6977225257 449.963347526 50 450 c 128,-1,1
250 400 m 0,42,43
 191.852726334 399.905809734 191.852726334 399.905809734 145.32421875 365.03125 c 1,44,-1
 390.03125 120.32421875 l 1,45,46
 424.905809734 166.852726334 424.905809734 166.852726334 425 225 c 0,47,48
 425 297 425 297 373.5 348.5 c 128,-1,49
 322 400 322 400 250 400 c 0,42,43
109.96875 329.67578125 m 1,50,51
 75.0941902656 283.147273666 75.0941902656 283.147273666 75 225 c 0,52,53
 75 153 75 153 126.5 101.5 c 128,-1,54
 178 50 178 50 250 50 c 0,55,56
 308.147273666 50.0941902656 308.147273666 50.0941902656 354.67578125 84.96875 c 1,57,-1
 109.96875 329.67578125 l 1,50,51
EndSplineSet
Substitution2: "fina-1" uni006C.fina
Substitution2: "medi-1" uni006C.medi
Substitution2: "init-1" uni006C.init
Substitution2: "isol-1" uni006C.isol
EndChar

StartChar: Y
Encoding: 89 89 5
Width: 500
Flags: W
AnchorPoint: "vowel" 250 225 basechar 0
LayerCount: 2
Fore
SplineSet
50 450 m 2,0,-1
 250 450 l 2,1,2
 343 450 343 450 409 384 c 128,-1,3
 475 318 475 318 475 225 c 0,4,5
 474.740015458 146.282781008 474.740015458 146.282781008 425.4609375 84.89453125 c 1,6,-1
 467.677734375 42.677734375 l 1,7,8
 475 35.35546875 475 35.35546875 475 25 c 128,-1,9
 474.963347526 14.6977225257 474.963347526 14.6977225257 467.677734375 7.412109375 c 1,10,-1
 467.677734375 7.322265625 l 1,11,-1
 467.587890625 7.322265625 l 1,12,13
 460.302277474 0.0366524742931 460.302277474 0.0366524742931 450 0 c 128,-1,14
 439.697722526 0.0366524742931 439.697722526 0.0366524742931 432.412109375 7.322265625 c 1,15,-1
 432.322265625 7.322265625 l 1,16,-1
 421.729871962 17.8580186632 l 0,17,18
 411.137478299 28.3937717014 411.137478299 28.3937717014 400.58327908 38.9479709201 c 128,-1,19
 390.029079861 49.5021701389 390.029079861 49.5021701389 390.10546875 49.5390625 c 1,20,21
 328.717218992 0.259984541571 328.717218992 0.259984541571 250 0 c 2,22,-1
 50 0 l 2,23,24
 40 0 40 0 32.5 7.5 c 128,-1,25
 25 15 25 15 25 25 c 128,-1,26
 25 35 25 35 32.5 42.5 c 128,-1,27
 40 50 40 50 50 50 c 2,28,-1
 100 50 l 0,29,30
 150 50 150 50 200 50 c 0,31,-1
 250 50 l 1,32,33
 308.147273666 50.0941902656 308.147273666 50.0941902656 354.67578125 84.96875 c 1,34,-1
 345.69015842 93.9085828993 l 0,35,36
 336.70453559 102.848415799 336.70453559 102.848415799 327.747992622 111.804958767 c 128,-1,37
 318.791449653 120.761501736 318.791449653 120.761501736 318.849609375 120.794921875 c 1,38,39
 287.54710081 100.056331484 287.54710081 100.056331484 250 100 c 0,40,41
 198 100 198 100 161.5 136.5 c 128,-1,42
 125 173 125 173 125 225 c 0,43,44
 125.056331484 262.54710081 125.056331484 262.54710081 145.794921875 293.849609375 c 1,45,-1
 32.322265625 407.322265625 l 1,46,47
 25 414.64453125 25 414.64453125 25 425 c 128,-1,48
 25 435.35546875 25 435.35546875 32.322265625 442.677734375 c 128,-1,49
 39.64453125 450 39.64453125 450 50 450 c 2,0,-1
110.35546875 400 m 1,50,-1
 128.08327908 382.317979601 l 0,51,52
 145.81108941 364.635959201 145.81108941 364.635959201 163.509819878 346.937228733 c 128,-1,53
 181.208550347 329.238498264 181.208550347 329.238498264 181.150390625 329.205078125 c 1,54,55
 212.45289919 349.943668516 212.45289919 349.943668516 250 350 c 0,56,57
 302 350 302 350 338.5 313.5 c 128,-1,58
 375 277 375 277 375 225 c 0,59,60
 374.943668516 187.45289919 374.943668516 187.45289919 354.205078125 156.150390625 c 1,61,-1
 390.03125 120.32421875 l 1,62,63
 424.905809734 166.852726334 424.905809734 166.852726334 425 225 c 0,64,65
 425 297 425 297 373.5 348.5 c 128,-1,66
 322 400 322 400 250 400 c 2,67,-1
 110.35546875 400 l 1,50,-1
250 300 m 0,68,69
 233.093405964 299.850320441 233.093405964 299.850320441 217.890625 292.46484375 c 1,70,-1
 317.46484375 192.890625 l 1,71,72
 324.850320441 208.093405964 324.850320441 208.093405964 325 225 c 0,73,74
 325 256 325 256 303 278 c 128,-1,75
 281 300 281 300 250 300 c 0,68,69
182.53515625 257.109375 m 1,76,77
 175.149679559 241.906594036 175.149679559 241.906594036 175 225 c 0,78,79
 175 194 175 194 197 172 c 128,-1,80
 219 150 219 150 250 150 c 0,81,82
 266.906594036 150.149679559 266.906594036 150.149679559 282.109375 157.53515625 c 1,83,-1
 182.53515625 257.109375 l 1,76,77
EndSplineSet
Substitution2: "fina-1" uni0059.fina
Substitution2: "medi-1" uni0059.medi
Substitution2: "init-1" uni0059.init
Substitution2: "isol-1" uni0059.isol
EndChar

StartChar: q
Encoding: 113 113 6
Width: 500
Flags: W
AnchorPoint: "vowel" 250 225 basechar 0
LayerCount: 2
Fore
SplineSet
50 450 m 2,0,-1
 250 450 l 2,1,2
 343 450 343 450 409 384 c 128,-1,3
 475 318 475 318 475 225 c 128,-1,4
 475 132 475 132 409 66 c 128,-1,5
 343 0 343 0 250 0 c 2,6,-1
 50 0 l 2,7,8
 40 0 40 0 32.5 7.5 c 128,-1,9
 25 15 25 15 25 25 c 128,-1,10
 25 35 25 35 32.5 42.5 c 128,-1,11
 40 50 40 50 50 50 c 2,12,-1
 250 50 l 2,13,14
 322 50 322 50 373.5 101.5 c 128,-1,15
 425 153 425 153 425 225 c 128,-1,16
 425 297 425 297 373.5 348.5 c 128,-1,17
 322 400 322 400 250 400 c 2,18,-1
 50 400 l 2,19,20
 40 400 40 400 32.5 407.5 c 128,-1,21
 25 415 25 415 25 425 c 128,-1,22
 25 435 25 435 32.5 442.5 c 128,-1,23
 40 450 40 450 50 450 c 2,0,-1
EndSplineSet
Substitution2: "fina-1" uni0071.fina
Substitution2: "medi-1" uni0071.medi
Substitution2: "init-1" uni0071.init
Substitution2: "isol-1" uni0071.isol
EndChar

StartChar: e
Encoding: 101 101 7
Width: 0
GlyphClass: 4
Flags: W
AnchorPoint: "vowel" -250 225 mark 0
LayerCount: 2
Fore
SplineSet
-250 500 m 128,-1,1
 -240 500 -240 500 -232.5 492.5 c 128,-1,2
 -225 485 -225 485 -225 475 c 128,-1,3
 -225 465 -225 465 -232.5 457.5 c 128,-1,4
 -240 450 -240 450 -250 450 c 128,-1,5
 -260 450 -260 450 -267.5 457.5 c 128,-1,6
 -275 465 -275 465 -275 475 c 128,-1,7
 -275 485 -275 485 -267.5 492.5 c 128,-1,0
 -260 500 -260 500 -250 500 c 128,-1,1
EndSplineSet
EndChar

StartChar: d
Encoding: 100 100 8
Width: 500
Flags: W
AnchorPoint: "vowel" 250 225 basechar 0
LayerCount: 2
Fore
SplineSet
50 450 m 0,0,1
 54.8109498532 449.969832802 54.8109498532 449.969832802 59.26953125 448.15625 c 0,2,-1
 59.7421875 447.98046875 l 0,3,4
 64.0554982975 446.137348851 64.0554982975 446.137348851 67.40625 442.859375 c 0,5,-1
 67.677734375 442.677734375 l 2,6,-1
 390.03125 120.32421875 l 1,7,8
 424.905809734 166.852726334 424.905809734 166.852726334 425 225 c 2,9,-1
 425 425 l 2,10,11
 425 435 425 435 432.5 442.5 c 128,-1,12
 440 450 440 450 450 450 c 128,-1,13
 460 450 460 450 467.5 442.5 c 128,-1,14
 475 435 475 435 475 425 c 2,15,-1
 475 375 l 0,16,17
 475 325 475 325 475 275 c 0,18,-1
 475 225 l 1,19,20
 474.740015458 146.282781008 474.740015458 146.282781008 425.4609375 84.89453125 c 1,21,-1
 467.677734375 42.677734375 l 1,22,23
 475 35.35546875 475 35.35546875 475 25 c 128,-1,24
 474.963347526 14.6977225257 474.963347526 14.6977225257 467.677734375 7.412109375 c 1,25,-1
 467.677734375 7.322265625 l 1,26,-1
 467.587890625 7.322265625 l 1,27,28
 460.302277474 0.0366524742931 460.302277474 0.0366524742931 450 0 c 128,-1,29
 439.697722526 0.0366524742931 439.697722526 0.0366524742931 432.412109375 7.322265625 c 1,30,-1
 432.322265625 7.322265625 l 1,31,-1
 421.729871962 17.8580186632 l 0,32,33
 411.137478299 28.3937717014 411.137478299 28.3937717014 400.58327908 38.9479709201 c 128,-1,34
 390.029079861 49.5021701389 390.029079861 49.5021701389 390.10546875 49.5390625 c 1,35,36
 328.717218992 0.259984541571 328.717218992 0.259984541571 250 0 c 0,37,38
 157 0 157 0 91 66 c 128,-1,39
 25 132 25 132 25 225 c 2,40,-1
 25 275 l 0,41,42
 25 325 25 325 25 375 c 0,43,-1
 25 425 l 1,44,45
 25 435.35546875 25 435.35546875 32.322265625 442.677734375 c 128,-1,46
 39.64453125 450 39.64453125 450 50 450 c 0,0,1
75 364.64453125 m 1,47,-1
 75 225 l 2,48,49
 75 153 75 153 126.5 101.5 c 128,-1,50
 178 50 178 50 250 50 c 0,51,52
 308.147273666 50.0941902656 308.147273666 50.0941902656 354.67578125 84.96875 c 1,53,-1
 75 364.64453125 l 1,47,-1
EndSplineSet
Substitution2: "fina-1" uni0064.fina
Substitution2: "medi-1" uni0064.medi
Substitution2: "init-1" uni0064.init
Substitution2: "isol-1" uni0064.isol
EndChar

StartChar: p
Encoding: 112 112 9
Width: 500
Flags: W
AnchorPoint: "vowel" 250 225 basechar 0
LayerCount: 2
Fore
SplineSet
250 450 m 2,0,-1
 450 450 l 2,1,2
 460 450 460 450 467.5 442.5 c 128,-1,3
 475 435 475 435 475 425 c 128,-1,4
 475 415 475 415 467.5 407.5 c 128,-1,5
 460 400 460 400 450 400 c 2,6,-1
 250 400 l 2,7,8
 178 400 178 400 126.5 348.5 c 128,-1,9
 75 297 75 297 75 225 c 128,-1,10
 75 153 75 153 126.5 101.5 c 128,-1,11
 178 50 178 50 250 50 c 2,12,-1
 450 50 l 2,13,14
 460 50 460 50 467.5 42.5 c 128,-1,15
 475 35 475 35 475 25 c 128,-1,16
 475 15 475 15 467.5 7.5 c 128,-1,17
 460 0 460 0 450 0 c 2,18,-1
 250 0 l 2,19,20
 157 0 157 0 91 66 c 128,-1,21
 25 132 25 132 25 225 c 128,-1,22
 25 318 25 318 91 384 c 128,-1,23
 157 450 157 450 250 450 c 2,0,-1
EndSplineSet
Substitution2: "fina-1" uni0070.fina
Substitution2: "medi-1" uni0070.medi
Substitution2: "init-1" uni0070.init
Substitution2: "isol-1" uni0070.isol
EndChar

StartChar: X
Encoding: 88 88 10
Width: 500
Flags: W
AnchorPoint: "vowel" 250 225 basechar 0
LayerCount: 2
Fore
SplineSet
50 450 m 2,0,-1
 250 450 l 2,1,2
 343 450 343 450 409 384 c 128,-1,3
 475 318 475 318 475 225 c 2,4,-1
 475 175 l 0,5,6
 475 125 475 125 475 75 c 0,7,-1
 475 25 l 1,8,9
 475 14.64453125 475 14.64453125 467.677734375 7.322265625 c 128,-1,10
 460.35546875 0 460.35546875 0 450 0 c 128,-1,11
 439.64453125 0 439.64453125 0 432.322265625 7.322265625 c 2,12,-1
 32.322265625 407.322265625 l 1,13,14
 25 414.64453125 25 414.64453125 25 425 c 128,-1,15
 25 435.35546875 25 435.35546875 32.322265625 442.677734375 c 128,-1,16
 39.64453125 450 39.64453125 450 50 450 c 2,0,-1
110.35546875 400 m 1,17,-1
 425 85.35546875 l 1,18,-1
 425 225 l 2,19,20
 425 297 425 297 373.5 348.5 c 128,-1,21
 322 400 322 400 250 400 c 2,22,-1
 110.35546875 400 l 1,17,-1
EndSplineSet
Substitution2: "fina-1" uni0058.fina
Substitution2: "medi-1" uni0058.medi
Substitution2: "init-1" uni0058.init
Substitution2: "isol-1" uni0058.isol
EndChar

StartChar: k
Encoding: 107 107 11
Width: 500
Flags: W
AnchorPoint: "vowel" 250 225 basechar 0
LayerCount: 2
Fore
SplineSet
450 450 m 128,-1,1
 460 450 460 450 467.5 442.5 c 128,-1,2
 475 435 475 435 475 425 c 2,3,-1
 475 225 l 2,4,5
 475 132 475 132 409 66 c 128,-1,6
 343 0 343 0 250 0 c 2,7,-1
 50 0 l 2,8,9
 40 0 40 0 32.5 7.5 c 128,-1,10
 25 15 25 15 25 25 c 128,-1,11
 25 35 25 35 32.5 42.5 c 128,-1,12
 40 50 40 50 50 50 c 2,13,-1
 250 50 l 2,14,15
 322 50 322 50 373.5 101.5 c 128,-1,16
 425 153 425 153 425 225 c 2,17,-1
 425 425 l 2,18,19
 425 435 425 435 432.5 442.5 c 128,-1,0
 440 450 440 450 450 450 c 128,-1,1
EndSplineSet
Substitution2: "fina-1" uni006B.fina
Substitution2: "medi-1" uni006B.medi
Substitution2: "init-1" uni006B.init
Substitution2: "isol-1" uni006B.isol
EndChar

StartChar: braceright
Encoding: 125 125 12
Width: 500
Flags: W
LayerCount: 2
Fore
SplineSet
150 550 m 0,0,1
 202 550 202 550 238.5 513.5 c 128,-1,2
 275 477 275 477 275 425 c 2,3,-1
 275 325 l 2,4,5
 275 294 275 294 297 272 c 128,-1,6
 319 250 319 250 350 250 c 0,7,8
 359.715033066 250 359.715033066 250 366.860120207 243.440045509 c 128,-1,9
 374.005207348 236.880091019 374.005207348 236.880091019 374.892578125 227.306640625 c 0,10,11
 375 226.150016053 375 226.150016053 375 225 c 0,12,13
 375 215 375 215 367.5 207.5 c 128,-1,14
 360 200 360 200 350 200 c 0,15,16
 319 200 319 200 297 178 c 128,-1,17
 275 156 275 156 275 125 c 2,18,-1
 275 25 l 2,19,20
 275 -27 275 -27 238.5 -63.5 c 128,-1,21
 202 -100 202 -100 150 -100 c 0,22,23
 140 -100 140 -100 132.5 -92.5 c 128,-1,24
 125 -85 125 -85 125 -75 c 128,-1,25
 125 -65 125 -65 132.5 -57.5 c 128,-1,26
 140 -50 140 -50 150 -50 c 0,27,28
 181 -50 181 -50 203 -28 c 128,-1,29
 225 -6 225 -6 225 25 c 2,30,-1
 225 125 l 0,31,32
 225.055219285 187.54554092 225.055219285 187.54554092 275.146484375 225 c 1,33,34
 225.055219285 262.45445908 225.055219285 262.45445908 225 325 c 2,35,-1
 225 425 l 2,36,37
 225 456 225 456 203 478 c 128,-1,38
 181 500 181 500 150 500 c 0,39,40
 140 500 140 500 132.5 507.5 c 128,-1,41
 125 515 125 515 125 525 c 128,-1,42
 125 535 125 535 132.5 542.5 c 128,-1,43
 140 550 140 550 150 550 c 0,0,1
EndSplineSet
EndChar

StartChar: f
Encoding: 102 102 13
Width: 500
Flags: W
AnchorPoint: "vowel" 250 225 basechar 0
LayerCount: 2
Fore
SplineSet
250 450 m 128,-1,1
 343 450 343 450 409 384 c 128,-1,2
 475 318 475 318 475 225 c 2,3,-1
 475 25 l 2,4,5
 475 15 475 15 467.5 7.5 c 128,-1,6
 460 0 460 0 450 0 c 128,-1,7
 440 0 440 0 432.5 7.5 c 128,-1,8
 425 15 425 15 425 25 c 2,9,-1
 425 225 l 2,10,11
 425 297 425 297 373.5 348.5 c 128,-1,12
 322 400 322 400 250 400 c 128,-1,13
 178 400 178 400 126.5 348.5 c 128,-1,14
 75 297 75 297 75 225 c 2,15,-1
 75 25 l 2,16,17
 75 15 75 15 67.5 7.5 c 128,-1,18
 60 0 60 0 50 0 c 128,-1,19
 40 0 40 0 32.5 7.5 c 128,-1,20
 25 15 25 15 25 25 c 2,21,-1
 25 225 l 2,22,23
 25 318 25 318 91 384 c 128,-1,0
 157 450 157 450 250 450 c 128,-1,1
EndSplineSet
Substitution2: "fina-1" uni0066.fina
Substitution2: "medi-1" uni0066.medi
Substitution2: "init-1" uni0066.init
Substitution2: "isol-1" uni0066.isol
EndChar

StartChar: r
Encoding: 114 114 14
Width: 500
Flags: W
AnchorPoint: "vowel" 250 225 basechar 0
LayerCount: 2
Fore
SplineSet
250 450 m 128,-1,1
 343 450 343 450 409 384 c 128,-1,2
 475 318 475 318 475 225 c 128,-1,3
 475 132 475 132 409 66 c 128,-1,4
 343 0 343 0 250 0 c 128,-1,5
 157 0 157 0 91 66 c 128,-1,6
 25 132 25 132 25 225 c 128,-1,7
 25 318 25 318 91 384 c 128,-1,0
 157 450 157 450 250 450 c 128,-1,1
250 400 m 128,-1,9
 178 400 178 400 126.5 348.5 c 128,-1,10
 75 297 75 297 75 225 c 128,-1,11
 75 153 75 153 126.5 101.5 c 128,-1,12
 178 50 178 50 250 50 c 128,-1,13
 322 50 322 50 373.5 101.5 c 128,-1,14
 425 153 425 153 425 225 c 128,-1,15
 425 297 425 297 373.5 348.5 c 128,-1,8
 322 400 322 400 250 400 c 128,-1,9
EndSplineSet
Substitution2: "fina-1" uni0072.fina
Substitution2: "medi-1" uni0072.medi
Substitution2: "init-1" uni0072.init
Substitution2: "isol-1" uni0072.isol
EndChar

StartChar: s
Encoding: 115 115 15
Width: 500
Flags: W
AnchorPoint: "vowel" 250 225 basechar 0
LayerCount: 2
Fore
SplineSet
50 450 m 128,-1,1
 60 450 60 450 67.5 442.5 c 128,-1,2
 75 435 75 435 75 425 c 2,3,-1
 75 225 l 2,4,5
 75 153 75 153 126.5 101.5 c 128,-1,6
 178 50 178 50 250 50 c 2,7,-1
 450 50 l 2,8,9
 460 50 460 50 467.5 42.5 c 128,-1,10
 475 35 475 35 475 25 c 128,-1,11
 475 15 475 15 467.5 7.5 c 128,-1,12
 460 0 460 0 450 0 c 2,13,-1
 250 0 l 2,14,15
 157 0 157 0 91 66 c 128,-1,16
 25 132 25 132 25 225 c 2,17,-1
 25 425 l 2,18,19
 25 435 25 435 32.5 442.5 c 128,-1,0
 40 450 40 450 50 450 c 128,-1,1
EndSplineSet
Substitution2: "fina-1" uni0073.fina
Substitution2: "medi-1" uni0073.medi
Substitution2: "init-1" uni0073.init
Substitution2: "isol-1" uni0073.isol
EndChar

StartChar: g
Encoding: 103 103 16
Width: 500
Flags: W
AnchorPoint: "vowel" 250 225 basechar 0
LayerCount: 2
Fore
SplineSet
50 450 m 128,-1,1
 60.35546875 450 60.35546875 450 67.677734375 442.677734375 c 2,2,-1
 390.03125 120.32421875 l 1,3,4
 424.905809734 166.852726334 424.905809734 166.852726334 425 225 c 2,5,-1
 425 425 l 2,6,7
 425 435 425 435 432.5 442.5 c 128,-1,8
 440 450 440 450 450 450 c 128,-1,9
 460 450 460 450 467.5 442.5 c 128,-1,10
 475 435 475 435 475 425 c 2,11,-1
 475 375 l 0,12,13
 475 325 475 325 475 275 c 0,14,-1
 475 225 l 1,15,16
 474.740015458 146.282781008 474.740015458 146.282781008 425.4609375 84.89453125 c 1,17,-1
 467.677734375 42.677734375 l 1,18,19
 475 35.35546875 475 35.35546875 475 25 c 128,-1,20
 474.963347526 14.6977225257 474.963347526 14.6977225257 467.677734375 7.412109375 c 1,21,-1
 467.677734375 7.322265625 l 1,22,-1
 467.587890625 7.322265625 l 1,23,24
 460.302277474 0.0366524742931 460.302277474 0.0366524742931 450 0 c 128,-1,25
 439.697722526 0.0366524742931 439.697722526 0.0366524742931 432.412109375 7.322265625 c 1,26,-1
 432.322265625 7.322265625 l 1,27,-1
 421.729871962 17.8580186632 l 0,28,29
 411.137478299 28.3937717014 411.137478299 28.3937717014 400.58327908 38.9479709201 c 128,-1,30
 390.029079861 49.5021701389 390.029079861 49.5021701389 390.10546875 49.5390625 c 1,31,32
 328.717218992 0.259984541571 328.717218992 0.259984541571 250 0 c 2,33,-1
 50 0 l 2,34,35
 40 0 40 0 32.5 7.5 c 128,-1,36
 25 15 25 15 25 25 c 128,-1,37
 25 35 25 35 32.5 42.5 c 128,-1,38
 40 50 40 50 50 50 c 2,39,-1
 100 50 l 0,40,41
 150 50 150 50 200 50 c 0,42,-1
 250 50 l 1,43,44
 308.147273666 50.0941902656 308.147273666 50.0941902656 354.67578125 84.96875 c 1,45,-1
 32.322265625 407.322265625 l 1,46,-1
 32.322265625 407.412109375 l 1,47,48
 25.0366524743 414.697722526 25.0366524743 414.697722526 25 425 c 128,-1,49
 25.0366524743 435.302277474 25.0366524743 435.302277474 32.322265625 442.587890625 c 1,50,-1
 32.322265625 442.677734375 l 1,51,-1
 32.412109375 442.677734375 l 1,52,0
 39.6977225257 449.963347526 39.6977225257 449.963347526 50 450 c 128,-1,1
EndSplineSet
Substitution2: "fina-1" uni0067.fina
Substitution2: "medi-1" uni0067.medi
Substitution2: "init-1" uni0067.init
Substitution2: "isol-1" uni0067.isol
EndChar

StartChar: asciitilde
Encoding: 126 126 17
Width: 500
Flags: W
LayerCount: 2
Fore
SplineSet
150 350 m 0,0,1
 201.342480902 349.98536 201.342480902 349.98536 237.862114335 313.828776975 c 128,-1,2
 274.381747768 277.67219395 274.381747768 277.67219395 274.95703125 226.40234375 c 0,3,4
 274.998592422 225.686897853 274.998592422 225.686897853 275 225 c 0,5,6
 275 194 275 194 297 172 c 128,-1,7
 319 150 319 150 350 150 c 128,-1,8
 381 150 381 150 403 172 c 128,-1,9
 425 194 425 194 425 225 c 0,10,11
 425 235 425 235 432.5 242.5 c 128,-1,12
 440 250 440 250 450 250 c 128,-1,13
 460 250 460 250 467.5 242.5 c 128,-1,14
 475 235 475 235 475 225 c 0,15,16
 474.985582494 222.978665658 474.985582494 222.978665658 474.650390625 221 c 0,17,18
 473.038776755 170.661457174 473.038776755 170.661457174 436.791724984 135.38850145 c 128,-1,19
 400.544673212 100.115545726 400.544673212 100.115545726 350 100 c 0,20,21
 299.455326788 100.115545726 299.455326788 100.115545726 263.208275016 135.38850145 c 128,-1,22
 226.961223245 170.661457174 226.961223245 170.661457174 225.349609375 221 c 0,23,24
 225.014417506 222.978665658 225.014417506 222.978665658 225 225 c 0,25,26
 225 256 225 256 203 278 c 128,-1,27
 181 300 181 300 150 300 c 128,-1,28
 119 300 119 300 97 278 c 128,-1,29
 75 256 75 256 75 225 c 0,30,31
 75 215 75 215 67.5 207.5 c 128,-1,32
 60 200 60 200 50 200 c 128,-1,33
 40 200 40 200 32.5 207.5 c 128,-1,34
 25 215 25 215 25 225 c 0,35,36
 25.014417506 227.021334342 25.014417506 227.021334342 25.349609375 229 c 0,37,38
 26.9612232448 279.338542826 26.9612232448 279.338542826 63.2082750164 314.61149855 c 128,-1,39
 99.4553267881 349.884454274 99.4553267881 349.884454274 150 350 c 0,0,1
EndSplineSet
EndChar

StartChar: j
Encoding: 106 106 18
Width: 500
Flags: W
AnchorPoint: "vowel" 250 225 basechar 0
LayerCount: 2
Fore
SplineSet
50 450 m 0,0,1
 54.8109498532 449.969832802 54.8109498532 449.969832802 59.26953125 448.15625 c 0,2,-1
 59.7421875 447.98046875 l 0,3,4
 64.0554982975 446.137348851 64.0554982975 446.137348851 67.40625 442.859375 c 0,5,-1
 67.677734375 442.677734375 l 2,6,-1
 96.0749782986 414.326280382 l 0,7,8
 124.472222222 385.974826389 124.472222222 385.974826389 152.840386285 357.606662326 c 128,-1,9
 181.208550347 329.238498264 181.208550347 329.238498264 181.150390625 329.205078125 c 1,10,11
 212.45289919 349.943668516 212.45289919 349.943668516 250 350 c 0,12,13
 302 350 302 350 338.5 313.5 c 128,-1,14
 375 277 375 277 375 225 c 0,15,16
 374.943668516 187.45289919 374.943668516 187.45289919 354.205078125 156.150390625 c 1,17,-1
 467.677734375 42.677734375 l 0,18,19
 468.282155684 42.0689332015 468.282155684 42.0689332015 468.83984375 41.42578125 c 0,20,-1
 468.974609375 41.263671875 l 0,21,22
 470.033008811 40.0279033033 470.033008811 40.0279033033 470.931640625 38.6484375 c 0,23,24
 471.018554688 38.5161132812 471.018554688 38.5161132812 471.103515625 38.3828125 c 0,25,26
 471.999291918 36.9751640389 471.999291918 36.9751640389 472.703125 35.453125 c 0,27,-1
 472.75390625 35.34765625 l 0,28,29
 473.461037585 33.7910778406 473.461037585 33.7910778406 473.951171875 32.142578125 c 0,30,-1
 474.0234375 31.884765625 l 0,31,32
 474.466329058 30.3398295225 474.466329058 30.3398295225 474.708984375 28.732421875 c 0,33,-1
 474.755859375 28.421875 l 0,34,35
 474.995702141 26.7148459343 474.995702141 26.7148459343 475 25 c 0,36,37
 475 14.64453125 475 14.64453125 467.677734375 7.322265625 c 128,-1,38
 460.35546875 0 460.35546875 0 450 0 c 2,39,-1
 250 0 l 2,40,41
 157 0 157 0 91 66 c 128,-1,42
 25 132 25 132 25 225 c 2,43,-1
 25 275 l 0,44,45
 25 325 25 325 25 375 c 0,46,-1
 25 425 l 1,47,48
 25 435.35546875 25 435.35546875 32.322265625 442.677734375 c 128,-1,49
 39.64453125 450 39.64453125 450 50 450 c 0,0,1
75 364.64453125 m 1,50,-1
 75 225 l 2,51,52
 75 153 75 153 126.5 101.5 c 128,-1,53
 178 50 178 50 250 50 c 2,54,-1
 389.64453125 50 l 1,55,-1
 371.91672092 67.6820203993 l 0,56,57
 354.18891059 85.3640407986 354.18891059 85.3640407986 336.490180122 103.062771267 c 128,-1,58
 318.791449653 120.761501736 318.791449653 120.761501736 318.849609375 120.794921875 c 1,59,60
 287.54710081 100.056331484 287.54710081 100.056331484 250 100 c 0,61,62
 198 100 198 100 161.5 136.5 c 128,-1,63
 125 173 125 173 125 225 c 0,64,65
 125.056331484 262.54710081 125.056331484 262.54710081 145.794921875 293.849609375 c 1,66,-1
 75 364.64453125 l 1,50,-1
250 300 m 0,67,68
 233.093405964 299.850320441 233.093405964 299.850320441 217.890625 292.46484375 c 1,69,-1
 317.46484375 192.890625 l 1,70,71
 324.850320441 208.093405964 324.850320441 208.093405964 325 225 c 0,72,73
 325 256 325 256 303 278 c 128,-1,74
 281 300 281 300 250 300 c 0,67,68
182.53515625 257.109375 m 1,75,76
 175.149679559 241.906594036 175.149679559 241.906594036 175 225 c 0,77,78
 175 194 175 194 197 172 c 128,-1,79
 219 150 219 150 250 150 c 0,80,81
 266.906594036 150.149679559 266.906594036 150.149679559 282.109375 157.53515625 c 1,82,-1
 182.53515625 257.109375 l 1,75,76
EndSplineSet
Substitution2: "fina-1" uni006A.fina
Substitution2: "medi-1" uni006A.medi
Substitution2: "init-1" uni006A.init
Substitution2: "isol-1" uni006A.isol
EndChar

StartChar: c
Encoding: 99 99 19
Width: 500
Flags: W
AnchorPoint: "vowel" 250 225 basechar 0
LayerCount: 2
Fore
SplineSet
50 450 m 2,0,-1
 250 450 l 2,1,2
 343 450 343 450 409 384 c 128,-1,3
 475 318 475 318 475 225 c 0,4,5
 474.740015458 146.282781008 474.740015458 146.282781008 425.4609375 84.89453125 c 1,6,-1
 467.677734375 42.677734375 l 1,7,8
 475 35.35546875 475 35.35546875 475 25 c 128,-1,9
 474.963347526 14.6977225257 474.963347526 14.6977225257 467.677734375 7.412109375 c 1,10,-1
 467.677734375 7.322265625 l 1,11,-1
 467.587890625 7.322265625 l 1,12,13
 460.302277474 0.0366524742931 460.302277474 0.0366524742931 450 0 c 128,-1,14
 439.697722526 0.0366524742931 439.697722526 0.0366524742931 432.412109375 7.322265625 c 1,15,-1
 432.322265625 7.322265625 l 1,16,-1
 421.729871962 17.8580186632 l 0,17,18
 411.137478299 28.3937717014 411.137478299 28.3937717014 400.58327908 38.9479709201 c 128,-1,19
 390.029079861 49.5021701389 390.029079861 49.5021701389 390.10546875 49.5390625 c 1,20,21
 328.717218992 0.259984541571 328.717218992 0.259984541571 250 0 c 2,22,-1
 50 0 l 2,23,24
 40 0 40 0 32.5 7.5 c 128,-1,25
 25 15 25 15 25 25 c 128,-1,26
 25 35 25 35 32.5 42.5 c 128,-1,27
 40 50 40 50 50 50 c 2,28,-1
 100 50 l 0,29,30
 150 50 150 50 200 50 c 0,31,-1
 250 50 l 1,32,33
 308.147273666 50.0941902656 308.147273666 50.0941902656 354.67578125 84.96875 c 1,34,-1
 32.322265625 407.322265625 l 1,35,36
 25 414.64453125 25 414.64453125 25 425 c 128,-1,37
 25 435.35546875 25 435.35546875 32.322265625 442.677734375 c 128,-1,38
 39.64453125 450 39.64453125 450 50 450 c 2,0,-1
110.35546875 400 m 1,39,-1
 390.03125 120.32421875 l 1,40,41
 424.905809734 166.852726334 424.905809734 166.852726334 425 225 c 0,42,43
 425 297 425 297 373.5 348.5 c 128,-1,44
 322 400 322 400 250 400 c 2,45,-1
 110.35546875 400 l 1,39,-1
EndSplineSet
Substitution2: "fina-1" uni0063.fina
Substitution2: "medi-1" uni0063.medi
Substitution2: "init-1" uni0063.init
Substitution2: "isol-1" uni0063.isol
EndChar

StartChar: w
Encoding: 119 119 20
Width: 0
GlyphClass: 4
Flags: W
AnchorPoint: "vowel" -250 225 mark 0
LayerCount: 2
Fore
SplineSet
-350 -50 m 2,0,-1
 -150 -50 l 2,1,2
 -140 -50 -140 -50 -132.5 -57.5 c 128,-1,3
 -125 -65 -125 -65 -125 -75 c 128,-1,4
 -125 -85 -125 -85 -132.5 -92.5 c 128,-1,5
 -140 -100 -140 -100 -150 -100 c 2,6,-1
 -350 -100 l 2,7,8
 -360 -100 -360 -100 -367.5 -92.5 c 128,-1,9
 -375 -85 -375 -85 -375 -75 c 128,-1,10
 -375 -65 -375 -65 -367.5 -57.5 c 128,-1,11
 -360 -50 -360 -50 -350 -50 c 2,0,-1
EndSplineSet
EndChar

StartChar: n
Encoding: 110 110 21
Width: 500
Flags: W
AnchorPoint: "vowel" 250 225 basechar 0
LayerCount: 2
Fore
SplineSet
50 450 m 128,-1,1
 60.35546875 450 60.35546875 450 67.677734375 442.677734375 c 2,2,-1
 78.2701280382 432.141981337 l 0,3,4
 88.8625217014 421.606228299 88.8625217014 421.606228299 99.4167209201 411.05202908 c 128,-1,5
 109.970920139 400.497829861 109.970920139 400.497829861 109.89453125 400.4609375 c 1,6,7
 171.282781008 449.740015458 171.282781008 449.740015458 250 450 c 2,8,-1
 450 450 l 2,9,10
 460 450 460 450 467.5 442.5 c 128,-1,11
 475 435 475 435 475 425 c 128,-1,12
 475 415 475 415 467.5 407.5 c 128,-1,13
 460 400 460 400 450 400 c 2,14,-1
 400 400 l 0,15,16
 350 400 350 400 300 400 c 0,17,-1
 250 400 l 1,18,19
 191.852726334 399.905809734 191.852726334 399.905809734 145.32421875 365.03125 c 1,20,-1
 467.677734375 42.677734375 l 1,21,22
 475 35.35546875 475 35.35546875 475 25 c 128,-1,23
 474.963347526 14.6977225257 474.963347526 14.6977225257 467.677734375 7.412109375 c 1,24,-1
 467.677734375 7.322265625 l 1,25,-1
 467.587890625 7.322265625 l 1,26,27
 460.302277474 0.0366524742931 460.302277474 0.0366524742931 450 0 c 128,-1,28
 439.697722526 0.0366524742931 439.697722526 0.0366524742931 432.412109375 7.322265625 c 1,29,-1
 432.322265625 7.322265625 l 1,30,-1
 109.96875 329.67578125 l 1,31,32
 75.0941902656 283.147273666 75.0941902656 283.147273666 75 225 c 2,33,-1
 75 25 l 2,34,35
 75 15 75 15 67.5 7.5 c 128,-1,36
 60 0 60 0 50 0 c 128,-1,37
 40 0 40 0 32.5 7.5 c 128,-1,38
 25 15 25 15 25 25 c 2,39,-1
 25 75 l 0,40,41
 25 125 25 125 25 175 c 0,42,-1
 25 225 l 1,43,44
 25.2599845416 303.717218992 25.2599845416 303.717218992 74.5390625 365.10546875 c 1,45,-1
 32.322265625 407.322265625 l 1,46,-1
 32.322265625 407.412109375 l 1,47,48
 25.0366524743 414.697722526 25.0366524743 414.697722526 25 425 c 128,-1,49
 25.0366524743 435.302277474 25.0366524743 435.302277474 32.322265625 442.587890625 c 1,50,-1
 32.322265625 442.677734375 l 1,51,-1
 32.412109375 442.677734375 l 1,52,0
 39.6977225257 449.963347526 39.6977225257 449.963347526 50 450 c 128,-1,1
EndSplineSet
Substitution2: "fina-1" uni006E.fina
Substitution2: "medi-1" uni006E.medi
Substitution2: "init-1" uni006E.init
Substitution2: "isol-1" uni006E.isol
EndChar

StartChar: z
Encoding: 122 122 22
Width: 500
Flags: W
AnchorPoint: "vowel" 250 225 basechar 0
LayerCount: 2
Fore
SplineSet
50 450 m 0,0,1
 54.8109498532 449.969832802 54.8109498532 449.969832802 59.26953125 448.15625 c 0,2,-1
 59.7421875 447.98046875 l 0,3,4
 64.0554982975 446.137348851 64.0554982975 446.137348851 67.40625 442.859375 c 0,5,-1
 67.677734375 442.677734375 l 2,6,-1
 467.677734375 42.677734375 l 0,7,8
 468.282155684 42.0689332015 468.282155684 42.0689332015 468.83984375 41.42578125 c 0,9,-1
 468.974609375 41.263671875 l 0,10,11
 470.033008811 40.0279033033 470.033008811 40.0279033033 470.931640625 38.6484375 c 0,12,13
 471.018554688 38.5161132812 471.018554688 38.5161132812 471.103515625 38.3828125 c 0,14,15
 471.999291918 36.9751640389 471.999291918 36.9751640389 472.703125 35.453125 c 0,16,-1
 472.75390625 35.34765625 l 0,17,18
 473.461037585 33.7910778406 473.461037585 33.7910778406 473.951171875 32.142578125 c 0,19,-1
 474.0234375 31.884765625 l 0,20,21
 474.466329058 30.3398295225 474.466329058 30.3398295225 474.708984375 28.732421875 c 0,22,-1
 474.755859375 28.421875 l 0,23,24
 474.995702141 26.7148459343 474.995702141 26.7148459343 475 25 c 0,25,26
 475 14.64453125 475 14.64453125 467.677734375 7.322265625 c 128,-1,27
 460.35546875 0 460.35546875 0 450 0 c 2,28,-1
 250 0 l 2,29,30
 157 0 157 0 91 66 c 128,-1,31
 25 132 25 132 25 225 c 2,32,-1
 25 275 l 0,33,34
 25 325 25 325 25 375 c 0,35,-1
 25 425 l 1,36,37
 25 435.35546875 25 435.35546875 32.322265625 442.677734375 c 128,-1,38
 39.64453125 450 39.64453125 450 50 450 c 0,0,1
75 364.64453125 m 1,39,-1
 75 225 l 2,40,41
 75 153 75 153 126.5 101.5 c 128,-1,42
 178 50 178 50 250 50 c 2,43,-1
 389.64453125 50 l 1,44,-1
 75 364.64453125 l 1,39,-1
EndSplineSet
Substitution2: "fina-1" uni007A.fina
Substitution2: "medi-1" uni007A.medi
Substitution2: "init-1" uni007A.init
Substitution2: "isol-1" uni007A.isol
EndChar

StartChar: m
Encoding: 109 109 23
Width: 500
Flags: W
AnchorPoint: "vowel" 250 225 basechar 0
LayerCount: 2
Fore
SplineSet
250 450 m 2,0,-1
 450 450 l 2,1,2
 460 450 460 450 467.5 442.5 c 128,-1,3
 475 435 475 435 475 425 c 128,-1,4
 475 415 475 415 467.5 407.5 c 128,-1,5
 460 400 460 400 450 400 c 2,6,-1
 250 400 l 2,7,8
 178 400 178 400 126.5 348.5 c 128,-1,9
 75 297 75 297 75 225 c 2,10,-1
 75 25 l 2,11,12
 75 15 75 15 67.5 7.5 c 128,-1,13
 60 0 60 0 50 0 c 128,-1,14
 40 0 40 0 32.5 7.5 c 128,-1,15
 25 15 25 15 25 25 c 2,16,-1
 25 225 l 2,17,18
 25 318 25 318 91 384 c 128,-1,19
 157 450 157 450 250 450 c 2,0,-1
EndSplineSet
Substitution2: "fina-1" uni006D.fina
Substitution2: "medi-1" uni006D.medi
Substitution2: "init-1" uni006D.init
Substitution2: "isol-1" uni006D.isol
EndChar

StartChar: v
Encoding: 118 118 24
Width: 500
Flags: W
AnchorPoint: "vowel" 250 225 basechar 0
LayerCount: 2
Fore
SplineSet
50 450 m 128,-1,1
 60.35546875 450 60.35546875 450 67.677734375 442.677734375 c 2,2,-1
 78.2701280382 432.141981337 l 0,3,4
 88.8625217014 421.606228299 88.8625217014 421.606228299 99.4167209201 411.05202908 c 128,-1,5
 109.970920139 400.497829861 109.970920139 400.497829861 109.89453125 400.4609375 c 1,6,7
 171.282781008 449.740015458 171.282781008 449.740015458 250 450 c 0,8,9
 343 450 343 450 409 384 c 128,-1,10
 475 318 475 318 475 225 c 2,11,-1
 475 175 l 0,12,13
 475 125 475 125 475 75 c 0,14,-1
 475 25 l 1,15,16
 475 14.64453125 475 14.64453125 467.677734375 7.322265625 c 128,-1,17
 460.35546875 0 460.35546875 0 450 0 c 128,-1,18
 439.64453125 0 439.64453125 0 432.322265625 7.322265625 c 2,19,-1
 109.96875 329.67578125 l 1,20,21
 75.0941902656 283.147273666 75.0941902656 283.147273666 75 225 c 2,22,-1
 75 25 l 2,23,24
 75 15 75 15 67.5 7.5 c 128,-1,25
 60 0 60 0 50 0 c 128,-1,26
 40 0 40 0 32.5 7.5 c 128,-1,27
 25 15 25 15 25 25 c 2,28,-1
 25 75 l 0,29,30
 25 125 25 125 25 175 c 0,31,-1
 25 225 l 1,32,33
 25.2599845416 303.717218992 25.2599845416 303.717218992 74.5390625 365.10546875 c 1,34,-1
 32.322265625 407.322265625 l 1,35,-1
 32.322265625 407.412109375 l 1,36,37
 25.0366524743 414.697722526 25.0366524743 414.697722526 25 425 c 128,-1,38
 25.0366524743 435.302277474 25.0366524743 435.302277474 32.322265625 442.587890625 c 1,39,-1
 32.322265625 442.677734375 l 1,40,-1
 32.412109375 442.677734375 l 1,41,0
 39.6977225257 449.963347526 39.6977225257 449.963347526 50 450 c 128,-1,1
250 400 m 0,42,43
 191.852726334 399.905809734 191.852726334 399.905809734 145.32421875 365.03125 c 1,44,-1
 425 85.35546875 l 1,45,-1
 425 225 l 2,46,47
 425 297 425 297 373.5 348.5 c 128,-1,48
 322 400 322 400 250 400 c 0,42,43
EndSplineSet
Substitution2: "fina-1" uni0076.fina
Substitution2: "medi-1" uni0076.medi
Substitution2: "init-1" uni0076.init
Substitution2: "isol-1" uni0076.isol
EndChar

StartChar: b
Encoding: 98 98 25
Width: 500
Flags: W
AnchorPoint: "vowel" 250 225 basechar 0
LayerCount: 2
Fore
SplineSet
50 450 m 128,-1,1
 60.35546875 450 60.35546875 450 67.677734375 442.677734375 c 2,2,-1
 78.2701280382 432.141981337 l 0,3,4
 88.8625217014 421.606228299 88.8625217014 421.606228299 99.4167209201 411.05202908 c 128,-1,5
 109.970920139 400.497829861 109.970920139 400.497829861 109.89453125 400.4609375 c 1,6,7
 171.282781008 449.740015458 171.282781008 449.740015458 250 450 c 2,8,-1
 450 450 l 2,9,10
 460 450 460 450 467.5 442.5 c 128,-1,11
 475 435 475 435 475 425 c 128,-1,12
 475 415 475 415 467.5 407.5 c 128,-1,13
 460 400 460 400 450 400 c 2,14,-1
 400 400 l 0,15,16
 350 400 350 400 300 400 c 0,17,-1
 250 400 l 1,18,19
 191.852726334 399.905809734 191.852726334 399.905809734 145.32421875 365.03125 c 1,20,-1
 467.677734375 42.677734375 l 0,21,22
 468.282155684 42.0689332015 468.282155684 42.0689332015 468.83984375 41.42578125 c 0,23,-1
 468.974609375 41.263671875 l 0,24,25
 470.033008811 40.0279033033 470.033008811 40.0279033033 470.931640625 38.6484375 c 0,26,27
 471.018554688 38.5161132812 471.018554688 38.5161132812 471.103515625 38.3828125 c 0,28,29
 471.999291918 36.9751640389 471.999291918 36.9751640389 472.703125 35.453125 c 0,30,-1
 472.75390625 35.34765625 l 0,31,32
 473.461037585 33.7910778406 473.461037585 33.7910778406 473.951171875 32.142578125 c 0,33,-1
 474.0234375 31.884765625 l 0,34,35
 474.466329058 30.3398295225 474.466329058 30.3398295225 474.708984375 28.732421875 c 0,36,-1
 474.755859375 28.421875 l 0,37,38
 474.995702141 26.7148459343 474.995702141 26.7148459343 475 25 c 0,39,40
 475 14.64453125 475 14.64453125 467.677734375 7.322265625 c 128,-1,41
 460.35546875 0 460.35546875 0 450 0 c 2,42,-1
 250 0 l 2,43,44
 157 0 157 0 91 66 c 128,-1,45
 25 132 25 132 25 225 c 0,46,47
 25.2599845416 303.717218992 25.2599845416 303.717218992 74.5390625 365.10546875 c 1,48,-1
 32.322265625 407.322265625 l 1,49,-1
 32.322265625 407.412109375 l 1,50,51
 25.0366524743 414.697722526 25.0366524743 414.697722526 25 425 c 128,-1,52
 25.0366524743 435.302277474 25.0366524743 435.302277474 32.322265625 442.587890625 c 1,53,-1
 32.322265625 442.677734375 l 1,54,-1
 32.412109375 442.677734375 l 1,55,0
 39.6977225257 449.963347526 39.6977225257 449.963347526 50 450 c 128,-1,1
109.96875 329.67578125 m 1,56,57
 75.0941902656 283.147273666 75.0941902656 283.147273666 75 225 c 0,58,59
 75 153 75 153 126.5 101.5 c 128,-1,60
 178 50 178 50 250 50 c 2,61,-1
 389.64453125 50 l 1,62,-1
 109.96875 329.67578125 l 1,56,57
EndSplineSet
Substitution2: "fina-1" uni0062.fina
Substitution2: "medi-1" uni0062.medi
Substitution2: "init-1" uni0062.init
Substitution2: "isol-1" uni0062.isol
EndChar

StartChar: t
Encoding: 116 116 26
Width: 500
Flags: W
AnchorPoint: "vowel" 250 225 basechar 0
LayerCount: 2
Fore
SplineSet
50 450 m 128,-1,1
 60 450 60 450 67.5 442.5 c 128,-1,2
 75 435 75 435 75 425 c 2,3,-1
 75 225 l 2,4,5
 75 153 75 153 126.5 101.5 c 128,-1,6
 178 50 178 50 250 50 c 128,-1,7
 322 50 322 50 373.5 101.5 c 128,-1,8
 425 153 425 153 425 225 c 2,9,-1
 425 425 l 2,10,11
 425 435 425 435 432.5 442.5 c 128,-1,12
 440 450 440 450 450 450 c 128,-1,13
 460 450 460 450 467.5 442.5 c 128,-1,14
 475 435 475 435 475 425 c 2,15,-1
 475 225 l 2,16,17
 475 132 475 132 409 66 c 128,-1,18
 343 0 343 0 250 0 c 128,-1,19
 157 0 157 0 91 66 c 128,-1,20
 25 132 25 132 25 225 c 2,21,-1
 25 425 l 2,22,23
 25 435 25 435 32.5 442.5 c 128,-1,0
 40 450 40 450 50 450 c 128,-1,1
EndSplineSet
Substitution2: "fina-1" uni0074.fina
Substitution2: "medi-1" uni0074.medi
Substitution2: "init-1" uni0074.init
Substitution2: "isol-1" uni0074.isol
EndChar

StartChar: grave
Encoding: 96 96 27
Width: 500
Flags: W
LayerCount: 2
Fore
SplineSet
50 250 m 128,-1,1
 60 250 60 250 67.5 242.5 c 128,-1,2
 75 235 75 235 75 225 c 128,-1,3
 75 215 75 215 67.5 207.5 c 128,-1,4
 60 200 60 200 50 200 c 128,-1,5
 40 200 40 200 32.5 207.5 c 128,-1,6
 25 215 25 215 25 225 c 128,-1,7
 25 235 25 235 32.5 242.5 c 128,-1,0
 40 250 40 250 50 250 c 128,-1,1
EndSplineSet
EndChar

StartChar: H
Encoding: 72 72 28
Width: 500
Flags: W
AnchorPoint: "vowel" 250 225 basechar 0
LayerCount: 2
Fore
SplineSet
50 450 m 2,0,-1
 250 450 l 2,1,2
 343 450 343 450 409 384 c 128,-1,3
 475 318 475 318 475 225 c 2,4,-1
 475 25 l 2,5,6
 475 15 475 15 467.5 7.5 c 128,-1,7
 460 0 460 0 450 0 c 128,-1,8
 440 0 440 0 432.5 7.5 c 128,-1,9
 425 15 425 15 425 25 c 2,10,-1
 425 225 l 2,11,12
 425 297 425 297 373.5 348.5 c 128,-1,13
 322 400 322 400 250 400 c 2,14,-1
 50 400 l 2,15,16
 40 400 40 400 32.5 407.5 c 128,-1,17
 25 415 25 415 25 425 c 128,-1,18
 25 435 25 435 32.5 442.5 c 128,-1,19
 40 450 40 450 50 450 c 2,0,-1
EndSplineSet
Substitution2: "fina-1" uni0048.fina
Substitution2: "medi-1" uni0048.medi
Substitution2: "init-1" uni0048.init
Substitution2: "isol-1" uni0048.isol
EndChar

StartChar: braceleft
Encoding: 123 123 29
Width: 500
Flags: W
LayerCount: 2
Fore
SplineSet
350 550 m 0,0,1
 360 550 360 550 367.5 542.5 c 128,-1,2
 375 535 375 535 375 525 c 128,-1,3
 375 515 375 515 367.5 507.5 c 128,-1,4
 360 500 360 500 350 500 c 0,5,6
 319 500 319 500 297 478 c 128,-1,7
 275 456 275 456 275 425 c 2,8,-1
 275 325 l 0,9,10
 274.946276349 262.495516368 274.946276349 262.495516368 224.91015625 225.0390625 c 1,11,12
 274.986569718 187.550794524 274.986569718 187.550794524 275 125 c 2,13,-1
 275 25 l 2,14,15
 275 -6 275 -6 297 -28 c 128,-1,16
 319 -50 319 -50 350 -50 c 0,17,18
 360 -50 360 -50 367.5 -57.5 c 128,-1,19
 375 -65 375 -65 375 -75 c 128,-1,20
 375 -85 375 -85 367.5 -92.5 c 128,-1,21
 360 -100 360 -100 350 -100 c 0,22,23
 298 -100 298 -100 261.5 -63.5 c 128,-1,24
 225 -27 225 -27 225 25 c 2,25,-1
 225 125 l 2,26,27
 225 156 225 156 203 178 c 128,-1,28
 181 200 181 200 150 200 c 0,29,30
 140 200 140 200 132.5 207.5 c 128,-1,31
 125 215 125 215 125 225 c 128,-1,32
 125 235 125 235 132.5 242.5 c 128,-1,33
 140 250 140 250 150 250 c 0,34,35
 181 250 181 250 203 272 c 128,-1,36
 225 294 225 294 225 325 c 2,37,-1
 225 425 l 2,38,39
 225 477 225 477 261.5 513.5 c 128,-1,40
 298 550 298 550 350 550 c 0,0,1
EndSplineSet
EndChar

StartChar: o
Encoding: 111 111 30
Width: 0
GlyphClass: 4
Flags: W
AnchorPoint: "vowel" -250 225 mark 0
LayerCount: 2
Fore
SplineSet
-250 0 m 128,-1,1
 -240 0 -240 0 -232.5 -7.5 c 128,-1,2
 -225 -15 -225 -15 -225 -25 c 128,-1,3
 -225 -35 -225 -35 -232.5 -42.5 c 128,-1,4
 -240 -50 -240 -50 -250 -50 c 128,-1,5
 -260 -50 -260 -50 -267.5 -42.5 c 128,-1,6
 -275 -35 -275 -35 -275 -25 c 128,-1,7
 -275 -15 -275 -15 -267.5 -7.5 c 128,-1,0
 -260 0 -260 0 -250 0 c 128,-1,1
-250 -50 m 1,8,-1
 -150 -50 l 2,9,10
 -140 -50 -140 -50 -132.5 -57.5 c 128,-1,11
 -125 -65 -125 -65 -125 -75 c 128,-1,12
 -125 -85 -125 -85 -132.5 -92.5 c 128,-1,13
 -140 -100 -140 -100 -150 -100 c 2,14,-1
 -350 -100 l 2,15,16
 -360 -100 -360 -100 -367.5 -92.5 c 128,-1,17
 -375 -85 -375 -85 -375 -75 c 128,-1,18
 -375 -65 -375 -65 -367.5 -57.5 c 128,-1,19
 -360 -50 -360 -50 -350 -50 c 2,20,-1
 -250 -50 l 1,8,-1
EndSplineSet
EndChar

StartChar: bar
Encoding: 124 124 31
Width: 500
Flags: W
LayerCount: 2
Fore
SplineSet
250 550 m 128,-1,1
 260 550 260 550 267.5 542.5 c 128,-1,2
 275 535 275 535 275 525 c 2,3,-1
 275 -75 l 2,4,5
 275 -85 275 -85 267.5 -92.5 c 128,-1,6
 260 -100 260 -100 250 -100 c 128,-1,7
 240 -100 240 -100 232.5 -92.5 c 128,-1,8
 225 -85 225 -85 225 -75 c 2,9,-1
 225 525 l 2,10,11
 225 535 225 535 232.5 542.5 c 128,-1,0
 240 550 240 550 250 550 c 128,-1,1
EndSplineSet
EndChar

StartChar: I
Encoding: 73 73 32
Width: 0
GlyphClass: 4
Flags: W
AnchorPoint: "vowel" -250 225 mark 0
LayerCount: 2
Fore
SplineSet
-350 550 m 2,0,-1
 -150 550 l 2,1,2
 -140 550 -140 550 -132.5 542.5 c 128,-1,3
 -125 535 -125 535 -125 525 c 128,-1,4
 -125 515 -125 515 -132.5 507.5 c 128,-1,5
 -140 500 -140 500 -150 500 c 2,6,-1
 -350 500 l 2,7,8
 -360 500 -360 500 -367.5 507.5 c 128,-1,9
 -375 515 -375 515 -375 525 c 128,-1,10
 -375 535 -375 535 -367.5 542.5 c 128,-1,11
 -360 550 -360 550 -350 550 c 2,0,-1
EndSplineSet
EndChar

StartChar: a
Encoding: 97 97 33
Width: 0
GlyphClass: 4
Flags: W
AnchorPoint: "vowel" -250 225 mark 0
LayerCount: 2
Fore
SplineSet
-350 550 m 2,0,-1
 -150 550 l 2,1,2
 -140 550 -140 550 -132.5 542.5 c 128,-1,3
 -125 535 -125 535 -125 525 c 128,-1,4
 -125 515 -125 515 -132.5 507.5 c 128,-1,5
 -140 500 -140 500 -150 500 c 2,6,-1
 -250 500 l 1,7,-1
 -350 500 l 2,8,9
 -360 500 -360 500 -367.5 507.5 c 128,-1,10
 -375 515 -375 515 -375 525 c 128,-1,11
 -375 535 -375 535 -367.5 542.5 c 128,-1,12
 -360 550 -360 550 -350 550 c 2,0,-1
-250 500 m 128,-1,14
 -240 500 -240 500 -232.5 492.5 c 128,-1,15
 -225 485 -225 485 -225 475 c 128,-1,16
 -225 465 -225 465 -232.5 457.5 c 128,-1,17
 -240 450 -240 450 -250 450 c 128,-1,18
 -260 450 -260 450 -267.5 457.5 c 128,-1,19
 -275 465 -275 465 -275 475 c 128,-1,20
 -275 485 -275 485 -267.5 492.5 c 128,-1,13
 -260 500 -260 500 -250 500 c 128,-1,14
EndSplineSet
EndChar

StartChar: u
Encoding: 117 117 34
Width: 0
GlyphClass: 4
Flags: W
AnchorPoint: "vowel" -250 225 mark 0
LayerCount: 2
Fore
SplineSet
-250 0 m 128,-1,1
 -240 0 -240 0 -232.5 -7.5 c 128,-1,2
 -225 -15 -225 -15 -225 -25 c 128,-1,3
 -225 -35 -225 -35 -232.5 -42.5 c 128,-1,4
 -240 -50 -240 -50 -250 -50 c 128,-1,5
 -260 -50 -260 -50 -267.5 -42.5 c 128,-1,6
 -275 -35 -275 -35 -275 -25 c 128,-1,7
 -275 -15 -275 -15 -267.5 -7.5 c 128,-1,0
 -260 0 -260 0 -250 0 c 128,-1,1
EndSplineSet
EndChar

StartChar: underscore
Encoding: 95 95 35
Width: 500
Flags: W
LayerCount: 2
Fore
SplineSet
250 50 m 128,-1,1
 260 50 260 50 267.5 42.5 c 128,-1,2
 275 35 275 35 275 25 c 128,-1,3
 275 15 275 15 267.5 7.5 c 128,-1,4
 260 0 260 0 250 0 c 128,-1,5
 240 0 240 0 232.5 7.5 c 128,-1,6
 225 15 225 15 225 25 c 128,-1,7
 225 35 225 35 232.5 42.5 c 128,-1,0
 240 50 240 50 250 50 c 128,-1,1
EndSplineSet
EndChar

StartChar: K
Encoding: 75 75 36
Width: 500
Flags: W
AnchorPoint: "vowel" 250 225 basechar 0
LayerCount: 2
Fore
SplineSet
450 450 m 128,-1,1
 460 450 460 450 467.5 442.5 c 128,-1,2
 475 435 475 435 475 425 c 2,3,-1
 475 225 l 2,4,5
 475 132 475 132 409 66 c 128,-1,6
 343 0 343 0 250 0 c 2,7,-1
 50 0 l 2,8,9
 40 0 40 0 32.5 7.5 c 128,-1,10
 25 15 25 15 25 25 c 128,-1,11
 25 35 25 35 32.5 42.5 c 128,-1,12
 40 50 40 50 50 50 c 2,13,-1
 250 50 l 2,14,15
 322 50 322 50 373.5 101.5 c 128,-1,16
 425 153 425 153 425 225 c 2,17,-1
 425 425 l 2,18,19
 425 435 425 435 432.5 442.5 c 128,-1,0
 440 450 440 450 450 450 c 128,-1,1
EndSplineSet
Substitution2: "fina-1" uni004B.fina
Substitution2: "medi-1" uni004B.medi
Substitution2: "init-1" uni004B.init
Substitution2: "isol-1" uni004B.isol
EndChar

StartChar: x
Encoding: 120 120 37
Width: 500
Flags: W
AnchorPoint: "vowel" 250 225 basechar 0
LayerCount: 2
Fore
SplineSet
50 450 m 2,0,-1
 250 450 l 2,1,2
 343 450 343 450 409 384 c 128,-1,3
 475 318 475 318 475 225 c 2,4,-1
 475 175 l 0,5,6
 475 125 475 125 475 75 c 0,7,-1
 475 25 l 1,8,9
 475 14.64453125 475 14.64453125 467.677734375 7.322265625 c 128,-1,10
 460.35546875 0 460.35546875 0 450 0 c 128,-1,11
 439.64453125 0 439.64453125 0 432.322265625 7.322265625 c 2,12,-1
 32.322265625 407.322265625 l 1,13,14
 25 414.64453125 25 414.64453125 25 425 c 128,-1,15
 25 435.35546875 25 435.35546875 32.322265625 442.677734375 c 128,-1,16
 39.64453125 450 39.64453125 450 50 450 c 2,0,-1
110.35546875 400 m 1,17,-1
 425 85.35546875 l 1,18,-1
 425 225 l 2,19,20
 425 297 425 297 373.5 348.5 c 128,-1,21
 322 400 322 400 250 400 c 2,22,-1
 110.35546875 400 l 1,17,-1
EndSplineSet
Substitution2: "fina-1" uni0078.fina
Substitution2: "medi-1" uni0078.medi
Substitution2: "init-1" uni0078.init
Substitution2: "isol-1" uni0078.isol
EndChar

StartChar: P
Encoding: 80 80 38
Width: 500
Flags: W
AnchorPoint: "vowel" 250 225 basechar 0
LayerCount: 2
Fore
SplineSet
250 450 m 2,0,-1
 450 450 l 2,1,2
 460 450 460 450 467.5 442.5 c 128,-1,3
 475 435 475 435 475 425 c 128,-1,4
 475 415 475 415 467.5 407.5 c 128,-1,5
 460 400 460 400 450 400 c 2,6,-1
 250 400 l 2,7,8
 178 400 178 400 126.5 348.5 c 128,-1,9
 75 297 75 297 75 225 c 128,-1,10
 75 153 75 153 126.5 101.5 c 128,-1,11
 178 50 178 50 250 50 c 2,12,-1
 450 50 l 2,13,14
 460 50 460 50 467.5 42.5 c 128,-1,15
 475 35 475 35 475 25 c 128,-1,16
 475 15 475 15 467.5 7.5 c 128,-1,17
 460 0 460 0 450 0 c 2,18,-1
 250 0 l 2,19,20
 157 0 157 0 91 66 c 128,-1,21
 25 132 25 132 25 225 c 128,-1,22
 25 318 25 318 91 384 c 128,-1,23
 157 450 157 450 250 450 c 2,0,-1
EndSplineSet
Substitution2: "fina-1" uni0050.fina
Substitution2: "medi-1" uni0050.medi
Substitution2: "init-1" uni0050.init
Substitution2: "isol-1" uni0050.isol
EndChar

StartChar: D
Encoding: 68 68 39
Width: 500
Flags: W
AnchorPoint: "vowel" 250 225 basechar 0
LayerCount: 2
Fore
SplineSet
50 450 m 0,0,1
 54.8109498532 449.969832802 54.8109498532 449.969832802 59.26953125 448.15625 c 0,2,-1
 59.7421875 447.98046875 l 0,3,4
 64.0554982975 446.137348851 64.0554982975 446.137348851 67.40625 442.859375 c 0,5,-1
 67.677734375 442.677734375 l 2,6,-1
 390.03125 120.32421875 l 1,7,8
 424.905809734 166.852726334 424.905809734 166.852726334 425 225 c 2,9,-1
 425 425 l 2,10,11
 425 435 425 435 432.5 442.5 c 128,-1,12
 440 450 440 450 450 450 c 128,-1,13
 460 450 460 450 467.5 442.5 c 128,-1,14
 475 435 475 435 475 425 c 2,15,-1
 475 375 l 0,16,17
 475 325 475 325 475 275 c 0,18,-1
 475 225 l 1,19,20
 474.740015458 146.282781008 474.740015458 146.282781008 425.4609375 84.89453125 c 1,21,-1
 467.677734375 42.677734375 l 1,22,23
 475 35.35546875 475 35.35546875 475 25 c 128,-1,24
 474.963347526 14.6977225257 474.963347526 14.6977225257 467.677734375 7.412109375 c 1,25,-1
 467.677734375 7.322265625 l 1,26,-1
 467.587890625 7.322265625 l 1,27,28
 460.302277474 0.0366524742931 460.302277474 0.0366524742931 450 0 c 128,-1,29
 439.697722526 0.0366524742931 439.697722526 0.0366524742931 432.412109375 7.322265625 c 1,30,-1
 432.322265625 7.322265625 l 1,31,-1
 421.729871962 17.8580186632 l 0,32,33
 411.137478299 28.3937717014 411.137478299 28.3937717014 400.58327908 38.9479709201 c 128,-1,34
 390.029079861 49.5021701389 390.029079861 49.5021701389 390.10546875 49.5390625 c 1,35,36
 328.717218992 0.259984541571 328.717218992 0.259984541571 250 0 c 0,37,38
 157 0 157 0 91 66 c 128,-1,39
 25 132 25 132 25 225 c 2,40,-1
 25 275 l 0,41,42
 25 325 25 325 25 375 c 0,43,-1
 25 425 l 1,44,45
 25 435.35546875 25 435.35546875 32.322265625 442.677734375 c 128,-1,46
 39.64453125 450 39.64453125 450 50 450 c 0,0,1
75 364.64453125 m 1,47,-1
 75 225 l 2,48,49
 75 153 75 153 126.5 101.5 c 128,-1,50
 178 50 178 50 250 50 c 0,51,52
 308.147273666 50.0941902656 308.147273666 50.0941902656 354.67578125 84.96875 c 1,53,-1
 75 364.64453125 l 1,47,-1
EndSplineSet
Substitution2: "fina-1" uni0044.fina
Substitution2: "medi-1" uni0044.medi
Substitution2: "init-1" uni0044.init
Substitution2: "isol-1" uni0044.isol
EndChar

StartChar: E
Encoding: 69 69 40
Width: 0
GlyphClass: 4
Flags: W
AnchorPoint: "vowel" -250 225 mark 0
LayerCount: 2
Fore
SplineSet
-250 500 m 128,-1,1
 -240 500 -240 500 -232.5 492.5 c 128,-1,2
 -225 485 -225 485 -225 475 c 128,-1,3
 -225 465 -225 465 -232.5 457.5 c 128,-1,4
 -240 450 -240 450 -250 450 c 128,-1,5
 -260 450 -260 450 -267.5 457.5 c 128,-1,6
 -275 465 -275 465 -275 475 c 128,-1,7
 -275 485 -275 485 -267.5 492.5 c 128,-1,0
 -260 500 -260 500 -250 500 c 128,-1,1
EndSplineSet
EndChar

StartChar: Q
Encoding: 81 81 41
Width: 500
Flags: W
AnchorPoint: "vowel" 250 225 basechar 0
LayerCount: 2
Fore
SplineSet
50 450 m 2,0,-1
 250 450 l 2,1,2
 343 450 343 450 409 384 c 128,-1,3
 475 318 475 318 475 225 c 128,-1,4
 475 132 475 132 409 66 c 128,-1,5
 343 0 343 0 250 0 c 2,6,-1
 50 0 l 2,7,8
 40 0 40 0 32.5 7.5 c 128,-1,9
 25 15 25 15 25 25 c 128,-1,10
 25 35 25 35 32.5 42.5 c 128,-1,11
 40 50 40 50 50 50 c 2,12,-1
 250 50 l 2,13,14
 322 50 322 50 373.5 101.5 c 128,-1,15
 425 153 425 153 425 225 c 128,-1,16
 425 297 425 297 373.5 348.5 c 128,-1,17
 322 400 322 400 250 400 c 2,18,-1
 50 400 l 2,19,20
 40 400 40 400 32.5 407.5 c 128,-1,21
 25 415 25 415 25 425 c 128,-1,22
 25 435 25 435 32.5 442.5 c 128,-1,23
 40 450 40 450 50 450 c 2,0,-1
EndSplineSet
Substitution2: "fina-1" uni0051.fina
Substitution2: "medi-1" uni0051.medi
Substitution2: "init-1" uni0051.init
Substitution2: "isol-1" uni0051.isol
EndChar

StartChar: y
Encoding: 121 121 42
Width: 500
Flags: W
AnchorPoint: "vowel" 250 225 basechar 0
LayerCount: 2
Fore
SplineSet
50 450 m 2,0,-1
 250 450 l 2,1,2
 343 450 343 450 409 384 c 128,-1,3
 475 318 475 318 475 225 c 0,4,5
 474.740015458 146.282781008 474.740015458 146.282781008 425.4609375 84.89453125 c 1,6,-1
 467.677734375 42.677734375 l 1,7,8
 475 35.35546875 475 35.35546875 475 25 c 128,-1,9
 474.963347526 14.6977225257 474.963347526 14.6977225257 467.677734375 7.412109375 c 1,10,-1
 467.677734375 7.322265625 l 1,11,-1
 467.587890625 7.322265625 l 1,12,13
 460.302277474 0.0366524742931 460.302277474 0.0366524742931 450 0 c 128,-1,14
 439.697722526 0.0366524742931 439.697722526 0.0366524742931 432.412109375 7.322265625 c 1,15,-1
 432.322265625 7.322265625 l 1,16,-1
 421.729871962 17.8580186632 l 0,17,18
 411.137478299 28.3937717014 411.137478299 28.3937717014 400.58327908 38.9479709201 c 128,-1,19
 390.029079861 49.5021701389 390.029079861 49.5021701389 390.10546875 49.5390625 c 1,20,21
 328.717218992 0.259984541571 328.717218992 0.259984541571 250 0 c 2,22,-1
 50 0 l 2,23,24
 40 0 40 0 32.5 7.5 c 128,-1,25
 25 15 25 15 25 25 c 128,-1,26
 25 35 25 35 32.5 42.5 c 128,-1,27
 40 50 40 50 50 50 c 2,28,-1
 100 50 l 0,29,30
 150 50 150 50 200 50 c 0,31,-1
 250 50 l 1,32,33
 308.147273666 50.0941902656 308.147273666 50.0941902656 354.67578125 84.96875 c 1,34,-1
 345.69015842 93.9085828993 l 0,35,36
 336.70453559 102.848415799 336.70453559 102.848415799 327.747992622 111.804958767 c 128,-1,37
 318.791449653 120.761501736 318.791449653 120.761501736 318.849609375 120.794921875 c 1,38,39
 287.54710081 100.056331484 287.54710081 100.056331484 250 100 c 0,40,41
 198 100 198 100 161.5 136.5 c 128,-1,42
 125 173 125 173 125 225 c 0,43,44
 125.056331484 262.54710081 125.056331484 262.54710081 145.794921875 293.849609375 c 1,45,-1
 32.322265625 407.322265625 l 1,46,47
 25 414.64453125 25 414.64453125 25 425 c 128,-1,48
 25 435.35546875 25 435.35546875 32.322265625 442.677734375 c 128,-1,49
 39.64453125 450 39.64453125 450 50 450 c 2,0,-1
110.35546875 400 m 1,50,-1
 128.08327908 382.317979601 l 0,51,52
 145.81108941 364.635959201 145.81108941 364.635959201 163.509819878 346.937228733 c 128,-1,53
 181.208550347 329.238498264 181.208550347 329.238498264 181.150390625 329.205078125 c 1,54,55
 212.45289919 349.943668516 212.45289919 349.943668516 250 350 c 0,56,57
 302 350 302 350 338.5 313.5 c 128,-1,58
 375 277 375 277 375 225 c 0,59,60
 374.943668516 187.45289919 374.943668516 187.45289919 354.205078125 156.150390625 c 1,61,-1
 390.03125 120.32421875 l 1,62,63
 424.905809734 166.852726334 424.905809734 166.852726334 425 225 c 0,64,65
 425 297 425 297 373.5 348.5 c 128,-1,66
 322 400 322 400 250 400 c 2,67,-1
 110.35546875 400 l 1,50,-1
250 300 m 0,68,69
 233.093405964 299.850320441 233.093405964 299.850320441 217.890625 292.46484375 c 1,70,-1
 317.46484375 192.890625 l 1,71,72
 324.850320441 208.093405964 324.850320441 208.093405964 325 225 c 0,73,74
 325 256 325 256 303 278 c 128,-1,75
 281 300 281 300 250 300 c 0,68,69
182.53515625 257.109375 m 1,76,77
 175.149679559 241.906594036 175.149679559 241.906594036 175 225 c 0,78,79
 175 194 175 194 197 172 c 128,-1,80
 219 150 219 150 250 150 c 0,81,82
 266.906594036 150.149679559 266.906594036 150.149679559 282.109375 157.53515625 c 1,83,-1
 182.53515625 257.109375 l 1,76,77
EndSplineSet
Substitution2: "fina-1" uni0079.fina
Substitution2: "medi-1" uni0079.medi
Substitution2: "init-1" uni0079.init
Substitution2: "isol-1" uni0079.isol
EndChar

StartChar: L
Encoding: 76 76 43
Width: 500
Flags: W
AnchorPoint: "vowel" 250 225 basechar 0
LayerCount: 2
Fore
SplineSet
50 450 m 128,-1,1
 60.35546875 450 60.35546875 450 67.677734375 442.677734375 c 2,2,-1
 78.2701280382 432.141981337 l 0,3,4
 88.8625217014 421.606228299 88.8625217014 421.606228299 99.4167209201 411.05202908 c 128,-1,5
 109.970920139 400.497829861 109.970920139 400.497829861 109.89453125 400.4609375 c 1,6,7
 171.282781008 449.740015458 171.282781008 449.740015458 250 450 c 0,8,9
 343 450 343 450 409 384 c 128,-1,10
 475 318 475 318 475 225 c 0,11,12
 474.740015458 146.282781008 474.740015458 146.282781008 425.4609375 84.89453125 c 1,13,-1
 467.677734375 42.677734375 l 1,14,15
 475 35.35546875 475 35.35546875 475 25 c 128,-1,16
 474.963347526 14.6977225257 474.963347526 14.6977225257 467.677734375 7.412109375 c 1,17,-1
 467.677734375 7.322265625 l 1,18,-1
 467.587890625 7.322265625 l 1,19,20
 460.302277474 0.0366524742931 460.302277474 0.0366524742931 450 0 c 128,-1,21
 439.697722526 0.0366524742931 439.697722526 0.0366524742931 432.412109375 7.322265625 c 1,22,-1
 432.322265625 7.322265625 l 1,23,-1
 421.729871962 17.8580186632 l 0,24,25
 411.137478299 28.3937717014 411.137478299 28.3937717014 400.58327908 38.9479709201 c 128,-1,26
 390.029079861 49.5021701389 390.029079861 49.5021701389 390.10546875 49.5390625 c 1,27,28
 328.717218992 0.259984541571 328.717218992 0.259984541571 250 0 c 0,29,30
 157 0 157 0 91 66 c 128,-1,31
 25 132 25 132 25 225 c 0,32,33
 25.2599845416 303.717218992 25.2599845416 303.717218992 74.5390625 365.10546875 c 1,34,-1
 32.322265625 407.322265625 l 1,35,-1
 32.322265625 407.412109375 l 1,36,37
 25.0366524743 414.697722526 25.0366524743 414.697722526 25 425 c 128,-1,38
 25.0366524743 435.302277474 25.0366524743 435.302277474 32.322265625 442.587890625 c 1,39,-1
 32.322265625 442.677734375 l 1,40,-1
 32.412109375 442.677734375 l 1,41,0
 39.6977225257 449.963347526 39.6977225257 449.963347526 50 450 c 128,-1,1
250 400 m 0,42,43
 191.852726334 399.905809734 191.852726334 399.905809734 145.32421875 365.03125 c 1,44,-1
 390.03125 120.32421875 l 1,45,46
 424.905809734 166.852726334 424.905809734 166.852726334 425 225 c 0,47,48
 425 297 425 297 373.5 348.5 c 128,-1,49
 322 400 322 400 250 400 c 0,42,43
109.96875 329.67578125 m 1,50,51
 75.0941902656 283.147273666 75.0941902656 283.147273666 75 225 c 0,52,53
 75 153 75 153 126.5 101.5 c 128,-1,54
 178 50 178 50 250 50 c 0,55,56
 308.147273666 50.0941902656 308.147273666 50.0941902656 354.67578125 84.96875 c 1,57,-1
 109.96875 329.67578125 l 1,50,51
EndSplineSet
Substitution2: "fina-1" uni004C.fina
Substitution2: "medi-1" uni004C.medi
Substitution2: "init-1" uni004C.init
Substitution2: "isol-1" uni004C.isol
EndChar

StartChar: J
Encoding: 74 74 44
Width: 500
Flags: W
AnchorPoint: "vowel" 250 225 basechar 0
LayerCount: 2
Fore
SplineSet
50 450 m 0,0,1
 54.8109498532 449.969832802 54.8109498532 449.969832802 59.26953125 448.15625 c 0,2,-1
 59.7421875 447.98046875 l 0,3,4
 64.0554982975 446.137348851 64.0554982975 446.137348851 67.40625 442.859375 c 0,5,-1
 67.677734375 442.677734375 l 2,6,-1
 96.0749782986 414.326280382 l 0,7,8
 124.472222222 385.974826389 124.472222222 385.974826389 152.840386285 357.606662326 c 128,-1,9
 181.208550347 329.238498264 181.208550347 329.238498264 181.150390625 329.205078125 c 1,10,11
 212.45289919 349.943668516 212.45289919 349.943668516 250 350 c 0,12,13
 302 350 302 350 338.5 313.5 c 128,-1,14
 375 277 375 277 375 225 c 0,15,16
 374.943668516 187.45289919 374.943668516 187.45289919 354.205078125 156.150390625 c 1,17,-1
 467.677734375 42.677734375 l 0,18,19
 468.282155684 42.0689332015 468.282155684 42.0689332015 468.83984375 41.42578125 c 0,20,-1
 468.974609375 41.263671875 l 0,21,22
 470.033008811 40.0279033033 470.033008811 40.0279033033 470.931640625 38.6484375 c 0,23,24
 471.018554688 38.5161132812 471.018554688 38.5161132812 471.103515625 38.3828125 c 0,25,26
 471.999291918 36.9751640389 471.999291918 36.9751640389 472.703125 35.453125 c 0,27,-1
 472.75390625 35.34765625 l 0,28,29
 473.461037585 33.7910778406 473.461037585 33.7910778406 473.951171875 32.142578125 c 0,30,-1
 474.0234375 31.884765625 l 0,31,32
 474.466329058 30.3398295225 474.466329058 30.3398295225 474.708984375 28.732421875 c 0,33,-1
 474.755859375 28.421875 l 0,34,35
 474.995702141 26.7148459343 474.995702141 26.7148459343 475 25 c 0,36,37
 475 14.64453125 475 14.64453125 467.677734375 7.322265625 c 128,-1,38
 460.35546875 0 460.35546875 0 450 0 c 2,39,-1
 250 0 l 2,40,41
 157 0 157 0 91 66 c 128,-1,42
 25 132 25 132 25 225 c 2,43,-1
 25 275 l 0,44,45
 25 325 25 325 25 375 c 0,46,-1
 25 425 l 1,47,48
 25 435.35546875 25 435.35546875 32.322265625 442.677734375 c 128,-1,49
 39.64453125 450 39.64453125 450 50 450 c 0,0,1
75 364.64453125 m 1,50,-1
 75 225 l 2,51,52
 75 153 75 153 126.5 101.5 c 128,-1,53
 178 50 178 50 250 50 c 2,54,-1
 389.64453125 50 l 1,55,-1
 371.91672092 67.6820203993 l 0,56,57
 354.18891059 85.3640407986 354.18891059 85.3640407986 336.490180122 103.062771267 c 128,-1,58
 318.791449653 120.761501736 318.791449653 120.761501736 318.849609375 120.794921875 c 1,59,60
 287.54710081 100.056331484 287.54710081 100.056331484 250 100 c 0,61,62
 198 100 198 100 161.5 136.5 c 128,-1,63
 125 173 125 173 125 225 c 0,64,65
 125.056331484 262.54710081 125.056331484 262.54710081 145.794921875 293.849609375 c 1,66,-1
 75 364.64453125 l 1,50,-1
250 300 m 0,67,68
 233.093405964 299.850320441 233.093405964 299.850320441 217.890625 292.46484375 c 1,69,-1
 317.46484375 192.890625 l 1,70,71
 324.850320441 208.093405964 324.850320441 208.093405964 325 225 c 0,72,73
 325 256 325 256 303 278 c 128,-1,74
 281 300 281 300 250 300 c 0,67,68
182.53515625 257.109375 m 1,75,76
 175.149679559 241.906594036 175.149679559 241.906594036 175 225 c 0,77,78
 175 194 175 194 197 172 c 128,-1,79
 219 150 219 150 250 150 c 0,80,81
 266.906594036 150.149679559 266.906594036 150.149679559 282.109375 157.53515625 c 1,82,-1
 182.53515625 257.109375 l 1,75,76
EndSplineSet
Substitution2: "fina-1" uni004A.fina
Substitution2: "medi-1" uni004A.medi
Substitution2: "init-1" uni004A.init
Substitution2: "isol-1" uni004A.isol
EndChar

StartChar: asciicircum
Encoding: 94 94 45
Width: 500
Flags: W
LayerCount: 2
Fore
SplineSet
250 450 m 128,-1,1
 260 450 260 450 267.5 442.5 c 128,-1,2
 275 435 275 435 275 425 c 128,-1,3
 275 415 275 415 267.5 407.5 c 128,-1,4
 260 400 260 400 250 400 c 128,-1,5
 240 400 240 400 232.5 407.5 c 128,-1,6
 225 415 225 415 225 425 c 128,-1,7
 225 435 225 435 232.5 442.5 c 128,-1,0
 240 450 240 450 250 450 c 128,-1,1
EndSplineSet
EndChar

StartChar: G
Encoding: 71 71 46
Width: 500
Flags: W
AnchorPoint: "vowel" 250 225 basechar 0
LayerCount: 2
Fore
SplineSet
50 450 m 128,-1,1
 60.35546875 450 60.35546875 450 67.677734375 442.677734375 c 2,2,-1
 390.03125 120.32421875 l 1,3,4
 424.905809734 166.852726334 424.905809734 166.852726334 425 225 c 2,5,-1
 425 425 l 2,6,7
 425 435 425 435 432.5 442.5 c 128,-1,8
 440 450 440 450 450 450 c 128,-1,9
 460 450 460 450 467.5 442.5 c 128,-1,10
 475 435 475 435 475 425 c 2,11,-1
 475 375 l 0,12,13
 475 325 475 325 475 275 c 0,14,-1
 475 225 l 1,15,16
 474.740015458 146.282781008 474.740015458 146.282781008 425.4609375 84.89453125 c 1,17,-1
 467.677734375 42.677734375 l 1,18,19
 475 35.35546875 475 35.35546875 475 25 c 128,-1,20
 474.963347526 14.6977225257 474.963347526 14.6977225257 467.677734375 7.412109375 c 1,21,-1
 467.677734375 7.322265625 l 1,22,-1
 467.587890625 7.322265625 l 1,23,24
 460.302277474 0.0366524742931 460.302277474 0.0366524742931 450 0 c 128,-1,25
 439.697722526 0.0366524742931 439.697722526 0.0366524742931 432.412109375 7.322265625 c 1,26,-1
 432.322265625 7.322265625 l 1,27,-1
 421.729871962 17.8580186632 l 0,28,29
 411.137478299 28.3937717014 411.137478299 28.3937717014 400.58327908 38.9479709201 c 128,-1,30
 390.029079861 49.5021701389 390.029079861 49.5021701389 390.10546875 49.5390625 c 1,31,32
 328.717218992 0.259984541571 328.717218992 0.259984541571 250 0 c 2,33,-1
 50 0 l 2,34,35
 40 0 40 0 32.5 7.5 c 128,-1,36
 25 15 25 15 25 25 c 128,-1,37
 25 35 25 35 32.5 42.5 c 128,-1,38
 40 50 40 50 50 50 c 2,39,-1
 100 50 l 0,40,41
 150 50 150 50 200 50 c 0,42,-1
 250 50 l 1,43,44
 308.147273666 50.0941902656 308.147273666 50.0941902656 354.67578125 84.96875 c 1,45,-1
 32.322265625 407.322265625 l 1,46,-1
 32.322265625 407.412109375 l 1,47,48
 25.0366524743 414.697722526 25.0366524743 414.697722526 25 425 c 128,-1,49
 25.0366524743 435.302277474 25.0366524743 435.302277474 32.322265625 442.587890625 c 1,50,-1
 32.322265625 442.677734375 l 1,51,-1
 32.412109375 442.677734375 l 1,52,0
 39.6977225257 449.963347526 39.6977225257 449.963347526 50 450 c 128,-1,1
EndSplineSet
Substitution2: "fina-1" uni0047.fina
Substitution2: "medi-1" uni0047.medi
Substitution2: "init-1" uni0047.init
Substitution2: "isol-1" uni0047.isol
EndChar

StartChar: S
Encoding: 83 83 47
Width: 500
Flags: W
AnchorPoint: "vowel" 250 225 basechar 0
LayerCount: 2
Fore
SplineSet
50 450 m 128,-1,1
 60 450 60 450 67.5 442.5 c 128,-1,2
 75 435 75 435 75 425 c 2,3,-1
 75 225 l 2,4,5
 75 153 75 153 126.5 101.5 c 128,-1,6
 178 50 178 50 250 50 c 2,7,-1
 450 50 l 2,8,9
 460 50 460 50 467.5 42.5 c 128,-1,10
 475 35 475 35 475 25 c 128,-1,11
 475 15 475 15 467.5 7.5 c 128,-1,12
 460 0 460 0 450 0 c 2,13,-1
 250 0 l 2,14,15
 157 0 157 0 91 66 c 128,-1,16
 25 132 25 132 25 225 c 2,17,-1
 25 425 l 2,18,19
 25 435 25 435 32.5 442.5 c 128,-1,0
 40 450 40 450 50 450 c 128,-1,1
EndSplineSet
Substitution2: "fina-1" uni0053.fina
Substitution2: "medi-1" uni0053.medi
Substitution2: "init-1" uni0053.init
Substitution2: "isol-1" uni0053.isol
EndChar

StartChar: R
Encoding: 82 82 48
Width: 500
Flags: W
AnchorPoint: "vowel" 250 225 basechar 0
LayerCount: 2
Fore
SplineSet
250 450 m 128,-1,1
 343 450 343 450 409 384 c 128,-1,2
 475 318 475 318 475 225 c 128,-1,3
 475 132 475 132 409 66 c 128,-1,4
 343 0 343 0 250 0 c 128,-1,5
 157 0 157 0 91 66 c 128,-1,6
 25 132 25 132 25 225 c 128,-1,7
 25 318 25 318 91 384 c 128,-1,0
 157 450 157 450 250 450 c 128,-1,1
250 400 m 128,-1,9
 178 400 178 400 126.5 348.5 c 128,-1,10
 75 297 75 297 75 225 c 128,-1,11
 75 153 75 153 126.5 101.5 c 128,-1,12
 178 50 178 50 250 50 c 128,-1,13
 322 50 322 50 373.5 101.5 c 128,-1,14
 425 153 425 153 425 225 c 128,-1,15
 425 297 425 297 373.5 348.5 c 128,-1,8
 322 400 322 400 250 400 c 128,-1,9
EndSplineSet
Substitution2: "fina-1" uni0052.fina
Substitution2: "medi-1" uni0052.medi
Substitution2: "init-1" uni0052.init
Substitution2: "isol-1" uni0052.isol
EndChar

StartChar: F
Encoding: 70 70 49
Width: 500
Flags: W
AnchorPoint: "vowel" 250 225 basechar 0
LayerCount: 2
Fore
SplineSet
250 450 m 128,-1,1
 343 450 343 450 409 384 c 128,-1,2
 475 318 475 318 475 225 c 2,3,-1
 475 25 l 2,4,5
 475 15 475 15 467.5 7.5 c 128,-1,6
 460 0 460 0 450 0 c 128,-1,7
 440 0 440 0 432.5 7.5 c 128,-1,8
 425 15 425 15 425 25 c 2,9,-1
 425 225 l 2,10,11
 425 297 425 297 373.5 348.5 c 128,-1,12
 322 400 322 400 250 400 c 128,-1,13
 178 400 178 400 126.5 348.5 c 128,-1,14
 75 297 75 297 75 225 c 2,15,-1
 75 25 l 2,16,17
 75 15 75 15 67.5 7.5 c 128,-1,18
 60 0 60 0 50 0 c 128,-1,19
 40 0 40 0 32.5 7.5 c 128,-1,20
 25 15 25 15 25 25 c 2,21,-1
 25 225 l 2,22,23
 25 318 25 318 91 384 c 128,-1,0
 157 450 157 450 250 450 c 128,-1,1
EndSplineSet
Substitution2: "fina-1" uni0046.fina
Substitution2: "medi-1" uni0046.medi
Substitution2: "init-1" uni0046.init
Substitution2: "isol-1" uni0046.isol
EndChar

StartChar: bracketright
Encoding: 93 93 50
Width: 500
Flags: W
LayerCount: 2
Fore
SplineSet
150 550 m 2,0,-1
 250 550 l 2,1,2
 302 550 302 550 338.5 513.5 c 128,-1,3
 375 477 375 477 375 425 c 2,4,-1
 375 25 l 2,5,6
 375 -27 375 -27 338.5 -63.5 c 128,-1,7
 302 -100 302 -100 250 -100 c 2,8,-1
 150 -100 l 2,9,10
 140 -100 140 -100 132.5 -92.5 c 128,-1,11
 125 -85 125 -85 125 -75 c 128,-1,12
 125 -65 125 -65 132.5 -57.5 c 128,-1,13
 140 -50 140 -50 150 -50 c 2,14,-1
 250 -50 l 2,15,16
 281 -50 281 -50 303 -28 c 128,-1,17
 325 -6 325 -6 325 25 c 2,18,-1
 325 425 l 2,19,20
 325 456 325 456 303 478 c 128,-1,21
 281 500 281 500 250 500 c 2,22,-1
 150 500 l 2,23,24
 140 500 140 500 132.5 507.5 c 128,-1,25
 125 515 125 515 125 525 c 128,-1,26
 125 535 125 535 132.5 542.5 c 128,-1,27
 140 550 140 550 150 550 c 2,0,-1
EndSplineSet
EndChar

StartChar: B
Encoding: 66 66 51
Width: 500
Flags: W
AnchorPoint: "vowel" 250 225 basechar 0
LayerCount: 2
Fore
SplineSet
50 450 m 128,-1,1
 60.35546875 450 60.35546875 450 67.677734375 442.677734375 c 2,2,-1
 78.2701280382 432.141981337 l 0,3,4
 88.8625217014 421.606228299 88.8625217014 421.606228299 99.4167209201 411.05202908 c 128,-1,5
 109.970920139 400.497829861 109.970920139 400.497829861 109.89453125 400.4609375 c 1,6,7
 171.282781008 449.740015458 171.282781008 449.740015458 250 450 c 2,8,-1
 450 450 l 2,9,10
 460 450 460 450 467.5 442.5 c 128,-1,11
 475 435 475 435 475 425 c 128,-1,12
 475 415 475 415 467.5 407.5 c 128,-1,13
 460 400 460 400 450 400 c 2,14,-1
 400 400 l 0,15,16
 350 400 350 400 300 400 c 0,17,-1
 250 400 l 1,18,19
 191.852726334 399.905809734 191.852726334 399.905809734 145.32421875 365.03125 c 1,20,-1
 467.677734375 42.677734375 l 0,21,22
 468.282155684 42.0689332015 468.282155684 42.0689332015 468.83984375 41.42578125 c 0,23,-1
 468.974609375 41.263671875 l 0,24,25
 470.033008811 40.0279033033 470.033008811 40.0279033033 470.931640625 38.6484375 c 0,26,27
 471.018554688 38.5161132812 471.018554688 38.5161132812 471.103515625 38.3828125 c 0,28,29
 471.999291918 36.9751640389 471.999291918 36.9751640389 472.703125 35.453125 c 0,30,-1
 472.75390625 35.34765625 l 0,31,32
 473.461037585 33.7910778406 473.461037585 33.7910778406 473.951171875 32.142578125 c 0,33,-1
 474.0234375 31.884765625 l 0,34,35
 474.466329058 30.3398295225 474.466329058 30.3398295225 474.708984375 28.732421875 c 0,36,-1
 474.755859375 28.421875 l 0,37,38
 474.995702141 26.7148459343 474.995702141 26.7148459343 475 25 c 0,39,40
 475 14.64453125 475 14.64453125 467.677734375 7.322265625 c 128,-1,41
 460.35546875 0 460.35546875 0 450 0 c 2,42,-1
 250 0 l 2,43,44
 157 0 157 0 91 66 c 128,-1,45
 25 132 25 132 25 225 c 0,46,47
 25.2599845416 303.717218992 25.2599845416 303.717218992 74.5390625 365.10546875 c 1,48,-1
 32.322265625 407.322265625 l 1,49,-1
 32.322265625 407.412109375 l 1,50,51
 25.0366524743 414.697722526 25.0366524743 414.697722526 25 425 c 128,-1,52
 25.0366524743 435.302277474 25.0366524743 435.302277474 32.322265625 442.587890625 c 1,53,-1
 32.322265625 442.677734375 l 1,54,-1
 32.412109375 442.677734375 l 1,55,0
 39.6977225257 449.963347526 39.6977225257 449.963347526 50 450 c 128,-1,1
109.96875 329.67578125 m 1,56,57
 75.0941902656 283.147273666 75.0941902656 283.147273666 75 225 c 0,58,59
 75 153 75 153 126.5 101.5 c 128,-1,60
 178 50 178 50 250 50 c 2,61,-1
 389.64453125 50 l 1,62,-1
 109.96875 329.67578125 l 1,56,57
EndSplineSet
Substitution2: "fina-1" uni0042.fina
Substitution2: "medi-1" uni0042.medi
Substitution2: "init-1" uni0042.init
Substitution2: "isol-1" uni0042.isol
EndChar

StartChar: V
Encoding: 86 86 52
Width: 500
Flags: W
AnchorPoint: "vowel" 250 225 basechar 0
LayerCount: 2
Fore
SplineSet
50 450 m 128,-1,1
 60.35546875 450 60.35546875 450 67.677734375 442.677734375 c 2,2,-1
 78.2701280382 432.141981337 l 0,3,4
 88.8625217014 421.606228299 88.8625217014 421.606228299 99.4167209201 411.05202908 c 128,-1,5
 109.970920139 400.497829861 109.970920139 400.497829861 109.89453125 400.4609375 c 1,6,7
 171.282781008 449.740015458 171.282781008 449.740015458 250 450 c 0,8,9
 343 450 343 450 409 384 c 128,-1,10
 475 318 475 318 475 225 c 2,11,-1
 475 175 l 0,12,13
 475 125 475 125 475 75 c 0,14,-1
 475 25 l 1,15,16
 475 14.64453125 475 14.64453125 467.677734375 7.322265625 c 128,-1,17
 460.35546875 0 460.35546875 0 450 0 c 128,-1,18
 439.64453125 0 439.64453125 0 432.322265625 7.322265625 c 2,19,-1
 109.96875 329.67578125 l 1,20,21
 75.0941902656 283.147273666 75.0941902656 283.147273666 75 225 c 2,22,-1
 75 25 l 2,23,24
 75 15 75 15 67.5 7.5 c 128,-1,25
 60 0 60 0 50 0 c 128,-1,26
 40 0 40 0 32.5 7.5 c 128,-1,27
 25 15 25 15 25 25 c 2,28,-1
 25 75 l 0,29,30
 25 125 25 125 25 175 c 0,31,-1
 25 225 l 1,32,33
 25.2599845416 303.717218992 25.2599845416 303.717218992 74.5390625 365.10546875 c 1,34,-1
 32.322265625 407.322265625 l 1,35,-1
 32.322265625 407.412109375 l 1,36,37
 25.0366524743 414.697722526 25.0366524743 414.697722526 25 425 c 128,-1,38
 25.0366524743 435.302277474 25.0366524743 435.302277474 32.322265625 442.587890625 c 1,39,-1
 32.322265625 442.677734375 l 1,40,-1
 32.412109375 442.677734375 l 1,41,0
 39.6977225257 449.963347526 39.6977225257 449.963347526 50 450 c 128,-1,1
250 400 m 0,42,43
 191.852726334 399.905809734 191.852726334 399.905809734 145.32421875 365.03125 c 1,44,-1
 425 85.35546875 l 1,45,-1
 425 225 l 2,46,47
 425 297 425 297 373.5 348.5 c 128,-1,48
 322 400 322 400 250 400 c 0,42,43
EndSplineSet
Substitution2: "fina-1" uni0056.fina
Substitution2: "medi-1" uni0056.medi
Substitution2: "init-1" uni0056.init
Substitution2: "isol-1" uni0056.isol
EndChar

StartChar: M
Encoding: 77 77 53
Width: 500
Flags: W
AnchorPoint: "vowel" 250 225 basechar 0
LayerCount: 2
Fore
SplineSet
250 450 m 2,0,-1
 450 450 l 2,1,2
 460 450 460 450 467.5 442.5 c 128,-1,3
 475 435 475 435 475 425 c 128,-1,4
 475 415 475 415 467.5 407.5 c 128,-1,5
 460 400 460 400 450 400 c 2,6,-1
 250 400 l 2,7,8
 178 400 178 400 126.5 348.5 c 128,-1,9
 75 297 75 297 75 225 c 2,10,-1
 75 25 l 2,11,12
 75 15 75 15 67.5 7.5 c 128,-1,13
 60 0 60 0 50 0 c 128,-1,14
 40 0 40 0 32.5 7.5 c 128,-1,15
 25 15 25 15 25 25 c 2,16,-1
 25 225 l 2,17,18
 25 318 25 318 91 384 c 128,-1,19
 157 450 157 450 250 450 c 2,0,-1
EndSplineSet
Substitution2: "fina-1" uni004D.fina
Substitution2: "medi-1" uni004D.medi
Substitution2: "init-1" uni004D.init
Substitution2: "isol-1" uni004D.isol
EndChar

StartChar: Z
Encoding: 90 90 54
Width: 500
Flags: W
AnchorPoint: "vowel" 250 225 basechar 0
LayerCount: 2
Fore
SplineSet
50 450 m 0,0,1
 54.8109498532 449.969832802 54.8109498532 449.969832802 59.26953125 448.15625 c 0,2,-1
 59.7421875 447.98046875 l 0,3,4
 64.0554982975 446.137348851 64.0554982975 446.137348851 67.40625 442.859375 c 0,5,-1
 67.677734375 442.677734375 l 2,6,-1
 467.677734375 42.677734375 l 0,7,8
 468.282155684 42.0689332015 468.282155684 42.0689332015 468.83984375 41.42578125 c 0,9,-1
 468.974609375 41.263671875 l 0,10,11
 470.033008811 40.0279033033 470.033008811 40.0279033033 470.931640625 38.6484375 c 0,12,13
 471.018554688 38.5161132812 471.018554688 38.5161132812 471.103515625 38.3828125 c 0,14,15
 471.999291918 36.9751640389 471.999291918 36.9751640389 472.703125 35.453125 c 0,16,-1
 472.75390625 35.34765625 l 0,17,18
 473.461037585 33.7910778406 473.461037585 33.7910778406 473.951171875 32.142578125 c 0,19,-1
 474.0234375 31.884765625 l 0,20,21
 474.466329058 30.3398295225 474.466329058 30.3398295225 474.708984375 28.732421875 c 0,22,-1
 474.755859375 28.421875 l 0,23,24
 474.995702141 26.7148459343 474.995702141 26.7148459343 475 25 c 0,25,26
 475 14.64453125 475 14.64453125 467.677734375 7.322265625 c 128,-1,27
 460.35546875 0 460.35546875 0 450 0 c 2,28,-1
 250 0 l 2,29,30
 157 0 157 0 91 66 c 128,-1,31
 25 132 25 132 25 225 c 2,32,-1
 25 275 l 0,33,34
 25 325 25 325 25 375 c 0,35,-1
 25 425 l 1,36,37
 25 435.35546875 25 435.35546875 32.322265625 442.677734375 c 128,-1,38
 39.64453125 450 39.64453125 450 50 450 c 0,0,1
75 364.64453125 m 1,39,-1
 75 225 l 2,40,41
 75 153 75 153 126.5 101.5 c 128,-1,42
 178 50 178 50 250 50 c 2,43,-1
 389.64453125 50 l 1,44,-1
 75 364.64453125 l 1,39,-1
EndSplineSet
Substitution2: "fina-1" uni005A.fina
Substitution2: "medi-1" uni005A.medi
Substitution2: "init-1" uni005A.init
Substitution2: "isol-1" uni005A.isol
EndChar

StartChar: N
Encoding: 78 78 55
Width: 500
Flags: W
AnchorPoint: "vowel" 250 225 basechar 0
LayerCount: 2
Fore
SplineSet
50 450 m 128,-1,1
 60.35546875 450 60.35546875 450 67.677734375 442.677734375 c 2,2,-1
 78.2701280382 432.141981337 l 0,3,4
 88.8625217014 421.606228299 88.8625217014 421.606228299 99.4167209201 411.05202908 c 128,-1,5
 109.970920139 400.497829861 109.970920139 400.497829861 109.89453125 400.4609375 c 1,6,7
 171.282781008 449.740015458 171.282781008 449.740015458 250 450 c 2,8,-1
 450 450 l 2,9,10
 460 450 460 450 467.5 442.5 c 128,-1,11
 475 435 475 435 475 425 c 128,-1,12
 475 415 475 415 467.5 407.5 c 128,-1,13
 460 400 460 400 450 400 c 2,14,-1
 400 400 l 0,15,16
 350 400 350 400 300 400 c 0,17,-1
 250 400 l 1,18,19
 191.852726334 399.905809734 191.852726334 399.905809734 145.32421875 365.03125 c 1,20,-1
 467.677734375 42.677734375 l 1,21,22
 475 35.35546875 475 35.35546875 475 25 c 128,-1,23
 474.963347526 14.6977225257 474.963347526 14.6977225257 467.677734375 7.412109375 c 1,24,-1
 467.677734375 7.322265625 l 1,25,-1
 467.587890625 7.322265625 l 1,26,27
 460.302277474 0.0366524742931 460.302277474 0.0366524742931 450 0 c 128,-1,28
 439.697722526 0.0366524742931 439.697722526 0.0366524742931 432.412109375 7.322265625 c 1,29,-1
 432.322265625 7.322265625 l 1,30,-1
 109.96875 329.67578125 l 1,31,32
 75.0941902656 283.147273666 75.0941902656 283.147273666 75 225 c 2,33,-1
 75 25 l 2,34,35
 75 15 75 15 67.5 7.5 c 128,-1,36
 60 0 60 0 50 0 c 128,-1,37
 40 0 40 0 32.5 7.5 c 128,-1,38
 25 15 25 15 25 25 c 2,39,-1
 25 75 l 0,40,41
 25 125 25 125 25 175 c 0,42,-1
 25 225 l 1,43,44
 25.2599845416 303.717218992 25.2599845416 303.717218992 74.5390625 365.10546875 c 1,45,-1
 32.322265625 407.322265625 l 1,46,-1
 32.322265625 407.412109375 l 1,47,48
 25.0366524743 414.697722526 25.0366524743 414.697722526 25 425 c 128,-1,49
 25.0366524743 435.302277474 25.0366524743 435.302277474 32.322265625 442.587890625 c 1,50,-1
 32.322265625 442.677734375 l 1,51,-1
 32.412109375 442.677734375 l 1,52,0
 39.6977225257 449.963347526 39.6977225257 449.963347526 50 450 c 128,-1,1
EndSplineSet
Substitution2: "fina-1" uni004E.fina
Substitution2: "medi-1" uni004E.medi
Substitution2: "init-1" uni004E.init
Substitution2: "isol-1" uni004E.isol
EndChar

StartChar: W
Encoding: 87 87 56
Width: 0
GlyphClass: 4
Flags: W
AnchorPoint: "vowel" -250 225 mark 0
LayerCount: 2
Fore
SplineSet
-350 -50 m 2,0,-1
 -150 -50 l 2,1,2
 -140 -50 -140 -50 -132.5 -57.5 c 128,-1,3
 -125 -65 -125 -65 -125 -75 c 128,-1,4
 -125 -85 -125 -85 -132.5 -92.5 c 128,-1,5
 -140 -100 -140 -100 -150 -100 c 2,6,-1
 -350 -100 l 2,7,8
 -360 -100 -360 -100 -367.5 -92.5 c 128,-1,9
 -375 -85 -375 -85 -375 -75 c 128,-1,10
 -375 -65 -375 -65 -367.5 -57.5 c 128,-1,11
 -360 -50 -360 -50 -350 -50 c 2,0,-1
EndSplineSet
EndChar

StartChar: C
Encoding: 67 67 57
Width: 500
Flags: W
AnchorPoint: "vowel" 250 225 basechar 0
LayerCount: 2
Fore
SplineSet
50 450 m 2,0,-1
 250 450 l 2,1,2
 343 450 343 450 409 384 c 128,-1,3
 475 318 475 318 475 225 c 0,4,5
 474.740015458 146.282781008 474.740015458 146.282781008 425.4609375 84.89453125 c 1,6,-1
 467.677734375 42.677734375 l 1,7,8
 475 35.35546875 475 35.35546875 475 25 c 128,-1,9
 474.963347526 14.6977225257 474.963347526 14.6977225257 467.677734375 7.412109375 c 1,10,-1
 467.677734375 7.322265625 l 1,11,-1
 467.587890625 7.322265625 l 1,12,13
 460.302277474 0.0366524742931 460.302277474 0.0366524742931 450 0 c 128,-1,14
 439.697722526 0.0366524742931 439.697722526 0.0366524742931 432.412109375 7.322265625 c 1,15,-1
 432.322265625 7.322265625 l 1,16,-1
 421.729871962 17.8580186632 l 0,17,18
 411.137478299 28.3937717014 411.137478299 28.3937717014 400.58327908 38.9479709201 c 128,-1,19
 390.029079861 49.5021701389 390.029079861 49.5021701389 390.10546875 49.5390625 c 1,20,21
 328.717218992 0.259984541571 328.717218992 0.259984541571 250 0 c 2,22,-1
 50 0 l 2,23,24
 40 0 40 0 32.5 7.5 c 128,-1,25
 25 15 25 15 25 25 c 128,-1,26
 25 35 25 35 32.5 42.5 c 128,-1,27
 40 50 40 50 50 50 c 2,28,-1
 100 50 l 0,29,30
 150 50 150 50 200 50 c 0,31,-1
 250 50 l 1,32,33
 308.147273666 50.0941902656 308.147273666 50.0941902656 354.67578125 84.96875 c 1,34,-1
 32.322265625 407.322265625 l 1,35,36
 25 414.64453125 25 414.64453125 25 425 c 128,-1,37
 25 435.35546875 25 435.35546875 32.322265625 442.677734375 c 128,-1,38
 39.64453125 450 39.64453125 450 50 450 c 2,0,-1
110.35546875 400 m 1,39,-1
 390.03125 120.32421875 l 1,40,41
 424.905809734 166.852726334 424.905809734 166.852726334 425 225 c 0,42,43
 425 297 425 297 373.5 348.5 c 128,-1,44
 322 400 322 400 250 400 c 2,45,-1
 110.35546875 400 l 1,39,-1
EndSplineSet
Substitution2: "fina-1" uni0043.fina
Substitution2: "medi-1" uni0043.medi
Substitution2: "init-1" uni0043.init
Substitution2: "isol-1" uni0043.isol
EndChar

StartChar: U
Encoding: 85 85 58
Width: 0
GlyphClass: 4
Flags: W
AnchorPoint: "vowel" -250 225 mark 0
LayerCount: 2
Fore
SplineSet
-250 0 m 128,-1,1
 -240 0 -240 0 -232.5 -7.5 c 128,-1,2
 -225 -15 -225 -15 -225 -25 c 128,-1,3
 -225 -35 -225 -35 -232.5 -42.5 c 128,-1,4
 -240 -50 -240 -50 -250 -50 c 128,-1,5
 -260 -50 -260 -50 -267.5 -42.5 c 128,-1,6
 -275 -35 -275 -35 -275 -25 c 128,-1,7
 -275 -15 -275 -15 -267.5 -7.5 c 128,-1,0
 -260 0 -260 0 -250 0 c 128,-1,1
EndSplineSet
EndChar

StartChar: A
Encoding: 65 65 59
Width: 0
VWidth: 1000
GlyphClass: 4
Flags: W
AnchorPoint: "vowel" -250 225 mark 0
LayerCount: 2
Fore
SplineSet
-350 550 m 2,0,-1
 -150 550 l 2,1,2
 -140 550 -140 550 -132.5 542.5 c 128,-1,3
 -125 535 -125 535 -125 525 c 128,-1,4
 -125 515 -125 515 -132.5 507.5 c 128,-1,5
 -140 500 -140 500 -150 500 c 2,6,-1
 -250 500 l 1,7,-1
 -350 500 l 2,8,9
 -360 500 -360 500 -367.5 507.5 c 128,-1,10
 -375 515 -375 515 -375 525 c 128,-1,11
 -375 535 -375 535 -367.5 542.5 c 128,-1,12
 -360 550 -360 550 -350 550 c 2,0,-1
-250 500 m 128,-1,14
 -240 500 -240 500 -232.5 492.5 c 128,-1,15
 -225 485 -225 485 -225 475 c 128,-1,16
 -225 465 -225 465 -232.5 457.5 c 128,-1,17
 -240 450 -240 450 -250 450 c 128,-1,18
 -260 450 -260 450 -267.5 457.5 c 128,-1,19
 -275 465 -275 465 -275 475 c 128,-1,20
 -275 485 -275 485 -267.5 492.5 c 128,-1,13
 -260 500 -260 500 -250 500 c 128,-1,14
EndSplineSet
EndChar

StartChar: i
Encoding: 105 105 60
Width: 0
GlyphClass: 4
Flags: W
AnchorPoint: "vowel" -250 225 mark 0
LayerCount: 2
Fore
SplineSet
-350 550 m 2,0,-1
 -150 550 l 2,1,2
 -140 550 -140 550 -132.5 542.5 c 128,-1,3
 -125 535 -125 535 -125 525 c 128,-1,4
 -125 515 -125 515 -132.5 507.5 c 128,-1,5
 -140 500 -140 500 -150 500 c 2,6,-1
 -350 500 l 2,7,8
 -360 500 -360 500 -367.5 507.5 c 128,-1,9
 -375 515 -375 515 -375 525 c 128,-1,10
 -375 535 -375 535 -367.5 542.5 c 128,-1,11
 -360 550 -360 550 -350 550 c 2,0,-1
EndSplineSet
EndChar

StartChar: backslash
Encoding: 92 92 61
Width: 500
Flags: W
LayerCount: 2
Fore
SplineSet
50 450 m 128,-1,1
 60.35546875 450 60.35546875 450 67.677734375 442.677734375 c 2,2,-1
 467.677734375 42.677734375 l 1,3,4
 475 35.35546875 475 35.35546875 475 25 c 128,-1,5
 474.963347526 14.6977225257 474.963347526 14.6977225257 467.677734375 7.412109375 c 1,6,-1
 467.677734375 7.322265625 l 1,7,-1
 467.587890625 7.322265625 l 1,8,9
 460.302277474 0.0366524742931 460.302277474 0.0366524742931 450 0 c 128,-1,10
 439.697722526 0.0366524742931 439.697722526 0.0366524742931 432.412109375 7.322265625 c 1,11,-1
 432.322265625 7.322265625 l 1,12,-1
 32.322265625 407.322265625 l 1,13,-1
 32.322265625 407.412109375 l 1,14,15
 25.0366524743 414.697722526 25.0366524743 414.697722526 25 425 c 128,-1,16
 25.0366524743 435.302277474 25.0366524743 435.302277474 32.322265625 442.587890625 c 1,17,-1
 32.322265625 442.677734375 l 1,18,-1
 32.412109375 442.677734375 l 1,19,0
 39.6977225257 449.963347526 39.6977225257 449.963347526 50 450 c 128,-1,1
EndSplineSet
EndChar

StartChar: O
Encoding: 79 79 62
Width: 0
GlyphClass: 4
Flags: W
AnchorPoint: "vowel" -250 225 mark 0
LayerCount: 2
Fore
SplineSet
-250 0 m 128,-1,1
 -240 0 -240 0 -232.5 -7.5 c 128,-1,2
 -225 -15 -225 -15 -225 -25 c 128,-1,3
 -225 -35 -225 -35 -232.5 -42.5 c 128,-1,4
 -240 -50 -240 -50 -250 -50 c 128,-1,5
 -260 -50 -260 -50 -267.5 -42.5 c 128,-1,6
 -275 -35 -275 -35 -275 -25 c 128,-1,7
 -275 -15 -275 -15 -267.5 -7.5 c 128,-1,0
 -260 0 -260 0 -250 0 c 128,-1,1
-250 -50 m 1,8,-1
 -150 -50 l 2,9,10
 -140 -50 -140 -50 -132.5 -57.5 c 128,-1,11
 -125 -65 -125 -65 -125 -75 c 128,-1,12
 -125 -85 -125 -85 -132.5 -92.5 c 128,-1,13
 -140 -100 -140 -100 -150 -100 c 2,14,-1
 -350 -100 l 2,15,16
 -360 -100 -360 -100 -367.5 -92.5 c 128,-1,17
 -375 -85 -375 -85 -375 -75 c 128,-1,18
 -375 -65 -375 -65 -367.5 -57.5 c 128,-1,19
 -360 -50 -360 -50 -350 -50 c 2,20,-1
 -250 -50 l 1,8,-1
EndSplineSet
EndChar

StartChar: bracketleft
Encoding: 91 91 63
Width: 500
Flags: W
LayerCount: 2
Fore
SplineSet
250 550 m 2,0,-1
 350 550 l 2,1,2
 360 550 360 550 367.5 542.5 c 128,-1,3
 375 535 375 535 375 525 c 128,-1,4
 375 515 375 515 367.5 507.5 c 128,-1,5
 360 500 360 500 350 500 c 2,6,-1
 250 500 l 2,7,8
 219 500 219 500 197 478 c 128,-1,9
 175 456 175 456 175 425 c 2,10,-1
 175 25 l 2,11,12
 175 -6 175 -6 197 -28 c 128,-1,13
 219 -50 219 -50 250 -50 c 2,14,-1
 350 -50 l 2,15,16
 360 -50 360 -50 367.5 -57.5 c 128,-1,17
 375 -65 375 -65 375 -75 c 128,-1,18
 375 -85 375 -85 367.5 -92.5 c 128,-1,19
 360 -100 360 -100 350 -100 c 2,20,-1
 250 -100 l 2,21,22
 198 -100 198 -100 161.5 -63.5 c 128,-1,23
 125 -27 125 -27 125 25 c 2,24,-1
 125 425 l 2,25,26
 125 477 125 477 161.5 513.5 c 128,-1,27
 198 550 198 550 250 550 c 2,0,-1
EndSplineSet
EndChar

StartChar: h
Encoding: 104 104 64
Width: 500
Flags: W
AnchorPoint: "vowel" 250 225 basechar 0
LayerCount: 2
Fore
SplineSet
50 450 m 2,0,-1
 250 450 l 2,1,2
 343 450 343 450 409 384 c 128,-1,3
 475 318 475 318 475 225 c 2,4,-1
 475 25 l 2,5,6
 475 15 475 15 467.5 7.5 c 128,-1,7
 460 0 460 0 450 0 c 128,-1,8
 440 0 440 0 432.5 7.5 c 128,-1,9
 425 15 425 15 425 25 c 2,10,-1
 425 225 l 2,11,12
 425 297 425 297 373.5 348.5 c 128,-1,13
 322 400 322 400 250 400 c 2,14,-1
 50 400 l 2,15,16
 40 400 40 400 32.5 407.5 c 128,-1,17
 25 415 25 415 25 425 c 128,-1,18
 25 435 25 435 32.5 442.5 c 128,-1,19
 40 450 40 450 50 450 c 2,0,-1
EndSplineSet
Substitution2: "fina-1" uni0068.fina
Substitution2: "medi-1" uni0068.medi
Substitution2: "init-1" uni0068.init
Substitution2: "isol-1" uni0068.isol
EndChar

StartChar: at
Encoding: 64 64 65
Width: 500
Flags: W
LayerCount: 2
Fore
SplineSet
50 450 m 128,-1,1
 60.35546875 450 60.35546875 450 67.677734375 442.677734375 c 2,2,-1
 78.2701280382 432.141981337 l 0,3,4
 88.8625217014 421.606228299 88.8625217014 421.606228299 99.4167209201 411.05202908 c 128,-1,5
 109.970920139 400.497829861 109.970920139 400.497829861 109.89453125 400.4609375 c 1,6,7
 171.282781008 449.740015458 171.282781008 449.740015458 250 450 c 0,8,9
 343 450 343 450 409 384 c 128,-1,10
 475 318 475 318 475 225 c 0,11,12
 474.740015458 146.282781008 474.740015458 146.282781008 425.4609375 84.89453125 c 1,13,-1
 467.677734375 42.677734375 l 1,14,15
 475 35.35546875 475 35.35546875 475 25 c 128,-1,16
 474.963347526 14.6977225257 474.963347526 14.6977225257 467.677734375 7.412109375 c 1,17,-1
 467.677734375 7.322265625 l 1,18,-1
 467.587890625 7.322265625 l 1,19,20
 460.302277474 0.0366524742931 460.302277474 0.0366524742931 450 0 c 128,-1,21
 439.697722526 0.0366524742931 439.697722526 0.0366524742931 432.412109375 7.322265625 c 1,22,-1
 432.322265625 7.322265625 l 1,23,-1
 421.729871962 17.8580186632 l 0,24,25
 411.137478299 28.3937717014 411.137478299 28.3937717014 400.58327908 38.9479709201 c 128,-1,26
 390.029079861 49.5021701389 390.029079861 49.5021701389 390.10546875 49.5390625 c 1,27,28
 328.717218992 0.259984541571 328.717218992 0.259984541571 250 0 c 0,29,30
 157 0 157 0 91 66 c 128,-1,31
 25 132 25 132 25 225 c 0,32,33
 25.2599845416 303.717218992 25.2599845416 303.717218992 74.5390625 365.10546875 c 1,34,-1
 32.322265625 407.322265625 l 1,35,-1
 32.322265625 407.412109375 l 1,36,37
 25.0366524743 414.697722526 25.0366524743 414.697722526 25 425 c 128,-1,38
 25.0366524743 435.302277474 25.0366524743 435.302277474 32.322265625 442.587890625 c 1,39,-1
 32.322265625 442.677734375 l 1,40,-1
 32.412109375 442.677734375 l 1,41,0
 39.6977225257 449.963347526 39.6977225257 449.963347526 50 450 c 128,-1,1
250 400 m 0,42,43
 191.852726334 399.905809734 191.852726334 399.905809734 145.32421875 365.03125 c 1,44,-1
 154.30984158 356.091417101 l 0,45,46
 163.29546441 347.151584201 163.29546441 347.151584201 172.252007378 338.195041233 c 128,-1,47
 181.208550347 329.238498264 181.208550347 329.238498264 181.150390625 329.205078125 c 1,48,49
 212.45289919 349.943668516 212.45289919 349.943668516 250 350 c 0,50,51
 302 350 302 350 338.5 313.5 c 128,-1,52
 375 277 375 277 375 225 c 0,53,54
 374.943668516 187.45289919 374.943668516 187.45289919 354.205078125 156.150390625 c 1,55,-1
 390.03125 120.32421875 l 1,56,57
 424.905809734 166.852726334 424.905809734 166.852726334 425 225 c 0,58,59
 425 297 425 297 373.5 348.5 c 128,-1,60
 322 400 322 400 250 400 c 0,42,43
109.96875 329.67578125 m 1,61,62
 75.0941902656 283.147273666 75.0941902656 283.147273666 75 225 c 0,63,64
 75 153 75 153 126.5 101.5 c 128,-1,65
 178 50 178 50 250 50 c 0,66,67
 308.147273666 50.0941902656 308.147273666 50.0941902656 354.67578125 84.96875 c 1,68,-1
 345.69015842 93.9085828993 l 0,69,70
 336.70453559 102.848415799 336.70453559 102.848415799 327.747992622 111.804958767 c 128,-1,71
 318.791449653 120.761501736 318.791449653 120.761501736 318.849609375 120.794921875 c 1,72,73
 287.54710081 100.056331484 287.54710081 100.056331484 250 100 c 0,74,75
 198 100 198 100 161.5 136.5 c 128,-1,76
 125 173 125 173 125 225 c 0,77,78
 125.056331484 262.54710081 125.056331484 262.54710081 145.794921875 293.849609375 c 1,79,-1
 109.96875 329.67578125 l 1,61,62
250 300 m 0,80,81
 233.093405964 299.850320441 233.093405964 299.850320441 217.890625 292.46484375 c 1,82,-1
 317.46484375 192.890625 l 1,83,84
 324.850320441 208.093405964 324.850320441 208.093405964 325 225 c 0,85,86
 325 256 325 256 303 278 c 128,-1,87
 281 300 281 300 250 300 c 0,80,81
182.53515625 257.109375 m 1,88,89
 175.149679559 241.906594036 175.149679559 241.906594036 175 225 c 0,90,91
 175 194 175 194 197 172 c 128,-1,92
 219 150 219 150 250 150 c 0,93,94
 266.906594036 150.149679559 266.906594036 150.149679559 282.109375 157.53515625 c 1,95,-1
 182.53515625 257.109375 l 1,88,89
EndSplineSet
EndChar

StartChar: T
Encoding: 84 84 66
Width: 500
Flags: W
AnchorPoint: "vowel" 250 225 basechar 0
LayerCount: 2
Fore
SplineSet
50 450 m 128,-1,1
 60 450 60 450 67.5 442.5 c 128,-1,2
 75 435 75 435 75 425 c 2,3,-1
 75 225 l 2,4,5
 75 153 75 153 126.5 101.5 c 128,-1,6
 178 50 178 50 250 50 c 128,-1,7
 322 50 322 50 373.5 101.5 c 128,-1,8
 425 153 425 153 425 225 c 2,9,-1
 425 425 l 2,10,11
 425 435 425 435 432.5 442.5 c 128,-1,12
 440 450 440 450 450 450 c 128,-1,13
 460 450 460 450 467.5 442.5 c 128,-1,14
 475 435 475 435 475 425 c 2,15,-1
 475 225 l 2,16,17
 475 132 475 132 409 66 c 128,-1,18
 343 0 343 0 250 0 c 128,-1,19
 157 0 157 0 91 66 c 128,-1,20
 25 132 25 132 25 225 c 2,21,-1
 25 425 l 2,22,23
 25 435 25 435 32.5 442.5 c 128,-1,0
 40 450 40 450 50 450 c 128,-1,1
EndSplineSet
Substitution2: "fina-1" uni0054.fina
Substitution2: "medi-1" uni0054.medi
Substitution2: "init-1" uni0054.init
Substitution2: "isol-1" uni0054.isol
EndChar

StartChar: greater
Encoding: 62 62 67
Width: 500
Flags: W
LayerCount: 2
Fore
SplineSet
150 350 m 2,0,-1
 250 350 l 2,1,2
 302 350 302 350 338.5 313.5 c 128,-1,3
 375 277 375 277 375 225 c 128,-1,4
 375 173 375 173 338.5 136.5 c 128,-1,5
 302 100 302 100 250 100 c 2,6,-1
 150 100 l 2,7,8
 140 100 140 100 132.5 107.5 c 128,-1,9
 125 115 125 115 125 125 c 128,-1,10
 125 135 125 135 132.5 142.5 c 128,-1,11
 140 150 140 150 150 150 c 2,12,-1
 250 150 l 2,13,14
 281 150 281 150 303 172 c 128,-1,15
 325 194 325 194 325 225 c 128,-1,16
 325 256 325 256 303 278 c 128,-1,17
 281 300 281 300 250 300 c 2,18,-1
 150 300 l 2,19,20
 140 300 140 300 132.5 307.5 c 128,-1,21
 125 315 125 315 125 325 c 128,-1,22
 125 335 125 335 132.5 342.5 c 128,-1,23
 140 350 140 350 150 350 c 2,0,-1
EndSplineSet
EndChar

StartChar: asterisk
Encoding: 42 42 68
Width: 500
Flags: W
LayerCount: 2
Fore
SplineSet
250 450 m 128,-1,1
 260 450 260 450 267.5 442.5 c 128,-1,2
 275 435 275 435 275 425 c 2,3,-1
 275 285.35546875 l 1,4,-1
 332.322265625 342.677734375 l 1,5,6
 339.64453125 350 339.64453125 350 350 350 c 128,-1,7
 360.302277474 349.963347526 360.302277474 349.963347526 367.587890625 342.677734375 c 1,8,-1
 367.677734375 342.677734375 l 1,9,-1
 367.677734375 342.587890625 l 1,10,11
 374.963347526 335.302277474 374.963347526 335.302277474 375 325 c 128,-1,12
 374.963347526 314.697722526 374.963347526 314.697722526 367.677734375 307.412109375 c 1,13,-1
 367.677734375 307.322265625 l 1,14,-1
 285.35546875 225 l 1,15,-1
 367.677734375 142.677734375 l 1,16,17
 375 135.35546875 375 135.35546875 375 125 c 128,-1,18
 374.963347526 114.697722526 374.963347526 114.697722526 367.677734375 107.412109375 c 1,19,-1
 367.677734375 107.322265625 l 1,20,-1
 367.587890625 107.322265625 l 1,21,22
 360.302277474 100.036652474 360.302277474 100.036652474 350 100 c 128,-1,23
 339.697722526 100.036652474 339.697722526 100.036652474 332.412109375 107.322265625 c 1,24,-1
 332.322265625 107.322265625 l 1,25,-1
 275 164.64453125 l 1,26,-1
 275 25 l 2,27,28
 275 15 275 15 267.5 7.5 c 128,-1,29
 260 0 260 0 250 0 c 128,-1,30
 240 0 240 0 232.5 7.5 c 128,-1,31
 225 15 225 15 225 25 c 2,32,-1
 225 164.64453125 l 1,33,-1
 167.677734375 107.322265625 l 1,34,-1
 167.587890625 107.322265625 l 1,35,36
 160.302277474 100.036652474 160.302277474 100.036652474 150 100 c 128,-1,37
 139.697722526 100.036652474 139.697722526 100.036652474 132.412109375 107.322265625 c 1,38,-1
 132.322265625 107.322265625 l 1,39,-1
 132.322265625 107.412109375 l 1,40,41
 125.036652474 114.697722526 125.036652474 114.697722526 125 125 c 128,-1,42
 125 135.35546875 125 135.35546875 132.322265625 142.677734375 c 2,43,-1
 214.64453125 225 l 1,44,-1
 132.322265625 307.322265625 l 1,45,-1
 132.322265625 307.412109375 l 1,46,47
 125.036652474 314.697722526 125.036652474 314.697722526 125 325 c 128,-1,48
 125.036652474 335.302277474 125.036652474 335.302277474 132.322265625 342.587890625 c 1,49,-1
 132.322265625 342.677734375 l 1,50,-1
 132.412109375 342.677734375 l 1,51,52
 139.697722526 349.963347526 139.697722526 349.963347526 150 350 c 128,-1,53
 160.35546875 350 160.35546875 350 167.677734375 342.677734375 c 2,54,-1
 225 285.35546875 l 1,55,-1
 225 425 l 2,56,57
 225 435 225 435 232.5 442.5 c 128,-1,0
 240 450 240 450 250 450 c 128,-1,1
EndSplineSet
EndChar

StartChar: three
Encoding: 51 51 69
Width: 500
Flags: W
LayerCount: 2
Fore
SplineSet
50 450 m 128,-1,1
 60 450 60 450 67.5 442.5 c 128,-1,2
 75 435 75 435 75 425 c 2,3,-1
 75 225 l 2,4,5
 75 153 75 153 126.5 101.5 c 128,-1,6
 178 50 178 50 250 50 c 2,7,-1
 450 50 l 2,8,9
 460 50 460 50 467.5 42.5 c 128,-1,10
 475 35 475 35 475 25 c 128,-1,11
 475 15 475 15 467.5 7.5 c 128,-1,12
 460 0 460 0 450 0 c 2,13,-1
 250 0 l 2,14,15
 157 0 157 0 91 66 c 128,-1,16
 25 132 25 132 25 225 c 2,17,-1
 25 425 l 2,18,19
 25 435 25 435 32.5 442.5 c 128,-1,0
 40 450 40 450 50 450 c 128,-1,1
250 350 m 128,-1,21
 302 350 302 350 338.5 313.5 c 128,-1,22
 375 277 375 277 375 225 c 128,-1,23
 375 173 375 173 338.5 136.5 c 128,-1,24
 302 100 302 100 250 100 c 128,-1,25
 198 100 198 100 161.5 136.5 c 128,-1,26
 125 173 125 173 125 225 c 128,-1,27
 125 277 125 277 161.5 313.5 c 128,-1,20
 198 350 198 350 250 350 c 128,-1,21
250 300 m 128,-1,29
 219 300 219 300 197 278 c 128,-1,30
 175 256 175 256 175 225 c 128,-1,31
 175 194 175 194 197 172 c 128,-1,32
 219 150 219 150 250 150 c 128,-1,33
 281 150 281 150 303 172 c 128,-1,34
 325 194 325 194 325 225 c 128,-1,35
 325 256 325 256 303 278 c 128,-1,28
 281 300 281 300 250 300 c 128,-1,29
EndSplineSet
EndChar

StartChar: quotesingle
Encoding: 39 39 70
Width: 500
Flags: W
LayerCount: 2
Fore
SplineSet
250 250 m 128,-1,1
 260 250 260 250 267.5 242.5 c 128,-1,2
 275 235 275 235 275 225 c 128,-1,3
 275 215 275 215 267.5 207.5 c 128,-1,4
 260 200 260 200 250 200 c 128,-1,5
 240 200 240 200 232.5 207.5 c 128,-1,6
 225 215 225 215 225 225 c 128,-1,7
 225 235 225 235 232.5 242.5 c 128,-1,0
 240 250 240 250 250 250 c 128,-1,1
EndSplineSet
EndChar

StartChar: ampersand
Encoding: 38 38 71
Width: 500
Flags: W
LayerCount: 2
Fore
SplineSet
50 450 m 2,0,-1
 250 450 l 2,1,2
 343 450 343 450 409 384 c 128,-1,3
 475 318 475 318 475 225 c 128,-1,4
 475 132 475 132 409 66 c 128,-1,5
 343 0 343 0 250 0 c 2,6,-1
 50 0 l 2,7,8
 40 0 40 0 32.5 7.5 c 128,-1,9
 25 15 25 15 25 25 c 128,-1,10
 25 35 25 35 32.5 42.5 c 128,-1,11
 40 50 40 50 50 50 c 2,12,-1
 250 50 l 2,13,14
 322 50 322 50 373.5 101.5 c 128,-1,15
 425 153 425 153 425 225 c 128,-1,16
 425 297 425 297 373.5 348.5 c 128,-1,17
 322 400 322 400 250 400 c 2,18,-1
 50 400 l 2,19,20
 40 400 40 400 32.5 407.5 c 128,-1,21
 25 415 25 415 25 425 c 128,-1,22
 25 435 25 435 32.5 442.5 c 128,-1,23
 40 450 40 450 50 450 c 2,0,-1
150 350 m 2,24,-1
 250 350 l 2,25,26
 302 350 302 350 338.5 313.5 c 128,-1,27
 375 277 375 277 375 225 c 128,-1,28
 375 173 375 173 338.5 136.5 c 128,-1,29
 302 100 302 100 250 100 c 2,30,-1
 150 100 l 2,31,32
 140 100 140 100 132.5 107.5 c 128,-1,33
 125 115 125 115 125 125 c 128,-1,34
 125 135 125 135 132.5 142.5 c 128,-1,35
 140 150 140 150 150 150 c 2,36,-1
 250 150 l 2,37,38
 281 150 281 150 303 172 c 128,-1,39
 325 194 325 194 325 225 c 128,-1,40
 325 256 325 256 303 278 c 128,-1,41
 281 300 281 300 250 300 c 2,42,-1
 150 300 l 2,43,44
 140 300 140 300 132.5 307.5 c 128,-1,45
 125 315 125 315 125 325 c 128,-1,46
 125 335 125 335 132.5 342.5 c 128,-1,47
 140 350 140 350 150 350 c 2,24,-1
250 250 m 128,-1,49
 260 250 260 250 267.5 242.5 c 128,-1,50
 275 235 275 235 275 225 c 128,-1,51
 275 215 275 215 267.5 207.5 c 128,-1,52
 260 200 260 200 250 200 c 128,-1,53
 240 200 240 200 232.5 207.5 c 128,-1,54
 225 215 225 215 225 225 c 128,-1,55
 225 235 225 235 232.5 242.5 c 128,-1,48
 240 250 240 250 250 250 c 128,-1,49
EndSplineSet
EndChar

StartChar: two
Encoding: 50 50 72
Width: 500
Flags: W
LayerCount: 2
Fore
SplineSet
50 450 m 128,-1,1
 60 450 60 450 67.5 442.5 c 128,-1,2
 75 435 75 435 75 425 c 2,3,-1
 75 225 l 2,4,5
 75 153 75 153 126.5 101.5 c 128,-1,6
 178 50 178 50 250 50 c 128,-1,7
 322 50 322 50 373.5 101.5 c 128,-1,8
 425 153 425 153 425 225 c 2,9,-1
 425 425 l 2,10,11
 425 435 425 435 432.5 442.5 c 128,-1,12
 440 450 440 450 450 450 c 128,-1,13
 460 450 460 450 467.5 442.5 c 128,-1,14
 475 435 475 435 475 425 c 2,15,-1
 475 225 l 2,16,17
 475 132 475 132 409 66 c 128,-1,18
 343 0 343 0 250 0 c 128,-1,19
 157 0 157 0 91 66 c 128,-1,20
 25 132 25 132 25 225 c 2,21,-1
 25 425 l 2,22,23
 25 435 25 435 32.5 442.5 c 128,-1,0
 40 450 40 450 50 450 c 128,-1,1
250 350 m 128,-1,25
 302 350 302 350 338.5 313.5 c 128,-1,26
 375 277 375 277 375 225 c 128,-1,27
 375 173 375 173 338.5 136.5 c 128,-1,28
 302 100 302 100 250 100 c 128,-1,29
 198 100 198 100 161.5 136.5 c 128,-1,30
 125 173 125 173 125 225 c 128,-1,31
 125 277 125 277 161.5 313.5 c 128,-1,24
 198 350 198 350 250 350 c 128,-1,25
250 300 m 128,-1,33
 219 300 219 300 197 278 c 128,-1,34
 175 256 175 256 175 225 c 128,-1,35
 175 194 175 194 197 172 c 128,-1,36
 219 150 219 150 250 150 c 128,-1,37
 281 150 281 150 303 172 c 128,-1,38
 325 194 325 194 325 225 c 128,-1,39
 325 256 325 256 303 278 c 128,-1,32
 281 300 281 300 250 300 c 128,-1,33
EndSplineSet
EndChar

StartChar: equal
Encoding: 61 61 73
Width: 500
Flags: W
LayerCount: 2
Fore
SplineSet
150 350 m 2,0,-1
 350 350 l 2,1,2
 360 350 360 350 367.5 342.5 c 128,-1,3
 375 335 375 335 375 325 c 128,-1,4
 375 315 375 315 367.5 307.5 c 128,-1,5
 360 300 360 300 350 300 c 2,6,-1
 150 300 l 2,7,8
 140 300 140 300 132.5 307.5 c 128,-1,9
 125 315 125 315 125 325 c 128,-1,10
 125 335 125 335 132.5 342.5 c 128,-1,11
 140 350 140 350 150 350 c 2,0,-1
150 150 m 2,12,-1
 350 150 l 2,13,14
 360 150 360 150 367.5 142.5 c 128,-1,15
 375 135 375 135 375 125 c 128,-1,16
 375 115 375 115 367.5 107.5 c 128,-1,17
 360 100 360 100 350 100 c 2,18,-1
 150 100 l 2,19,20
 140 100 140 100 132.5 107.5 c 128,-1,21
 125 115 125 115 125 125 c 128,-1,22
 125 135 125 135 132.5 142.5 c 128,-1,23
 140 150 140 150 150 150 c 2,12,-1
EndSplineSet
EndChar

StartChar: plus
Encoding: 43 43 74
Width: 500
Flags: W
LayerCount: 2
Fore
SplineSet
250 350 m 128,-1,1
 260 350 260 350 267.5 342.5 c 128,-1,2
 275 335 275 335 275 325 c 2,3,-1
 275 250 l 1,4,-1
 350 250 l 2,5,6
 360 250 360 250 367.5 242.5 c 128,-1,7
 375 235 375 235 375 225 c 128,-1,8
 375 215 375 215 367.5 207.5 c 128,-1,9
 360 200 360 200 350 200 c 2,10,-1
 275 200 l 1,11,-1
 275 125 l 2,12,13
 275 115 275 115 267.5 107.5 c 128,-1,14
 260 100 260 100 250 100 c 128,-1,15
 240 100 240 100 232.5 107.5 c 128,-1,16
 225 115 225 115 225 125 c 2,17,-1
 225 200 l 1,18,-1
 150 200 l 2,19,20
 140 200 140 200 132.5 207.5 c 128,-1,21
 125 215 125 215 125 225 c 128,-1,22
 125 235 125 235 132.5 242.5 c 128,-1,23
 140 250 140 250 150 250 c 2,24,-1
 225 250 l 1,25,-1
 225 325 l 2,26,27
 225 335 225 335 232.5 342.5 c 128,-1,0
 240 350 240 350 250 350 c 128,-1,1
EndSplineSet
EndChar

StartChar: question
Encoding: 63 63 75
Width: 500
Flags: W
LayerCount: 2
Fore
SplineSet
250 450 m 128,-1,1
 260 450 260 450 267.5 442.5 c 128,-1,2
 275 435 275 435 275 425 c 128,-1,3
 275 415 275 415 267.5 407.5 c 128,-1,4
 260 400 260 400 250 400 c 128,-1,5
 240 400 240 400 232.5 407.5 c 128,-1,6
 225 415 225 415 225 425 c 128,-1,7
 225 435 225 435 232.5 442.5 c 128,-1,0
 240 450 240 450 250 450 c 128,-1,1
250 250 m 128,-1,9
 260 250 260 250 267.5 242.5 c 128,-1,10
 275 235 275 235 275 225 c 128,-1,11
 275 215 275 215 267.5 207.5 c 128,-1,12
 260 200 260 200 250 200 c 128,-1,13
 240 200 240 200 232.5 207.5 c 128,-1,14
 225 215 225 215 225 225 c 128,-1,15
 225 235 225 235 232.5 242.5 c 128,-1,8
 240 250 240 250 250 250 c 128,-1,9
250 50 m 128,-1,17
 260 50 260 50 267.5 42.5 c 128,-1,18
 275 35 275 35 275 25 c 128,-1,19
 275 15 275 15 267.5 7.5 c 128,-1,20
 260 0 260 0 250 0 c 128,-1,21
 240 0 240 0 232.5 7.5 c 128,-1,22
 225 15 225 15 225 25 c 128,-1,23
 225 35 225 35 232.5 42.5 c 128,-1,16
 240 50 240 50 250 50 c 128,-1,17
EndSplineSet
EndChar

StartChar: dollar
Encoding: 36 36 76
Width: 500
Flags: W
LayerCount: 2
Fore
SplineSet
50 450 m 0,0,1
 54.8109498532 449.969832802 54.8109498532 449.969832802 59.26953125 448.15625 c 0,2,-1
 59.7421875 447.98046875 l 0,3,4
 64.0554982975 446.137348851 64.0554982975 446.137348851 67.40625 442.859375 c 0,5,-1
 67.677734375 442.677734375 l 2,6,-1
 390.03125 120.32421875 l 1,7,8
 424.905809734 166.852726334 424.905809734 166.852726334 425 225 c 2,9,-1
 425 425 l 2,10,11
 425 435 425 435 432.5 442.5 c 128,-1,12
 440 450 440 450 450 450 c 128,-1,13
 460 450 460 450 467.5 442.5 c 128,-1,14
 475 435 475 435 475 425 c 2,15,-1
 475 375 l 0,16,17
 475 325 475 325 475 275 c 0,18,-1
 475 225 l 1,19,20
 474.740015458 146.282781008 474.740015458 146.282781008 425.4609375 84.89453125 c 1,21,-1
 467.677734375 42.677734375 l 1,22,23
 475 35.35546875 475 35.35546875 475 25 c 128,-1,24
 474.963347526 14.6977225257 474.963347526 14.6977225257 467.677734375 7.412109375 c 1,25,-1
 467.677734375 7.322265625 l 1,26,-1
 467.587890625 7.322265625 l 1,27,28
 460.302277474 0.0366524742931 460.302277474 0.0366524742931 450 0 c 128,-1,29
 439.697722526 0.0366524742931 439.697722526 0.0366524742931 432.412109375 7.322265625 c 1,30,-1
 432.322265625 7.322265625 l 1,31,-1
 421.729871962 17.8580186632 l 0,32,33
 411.137478299 28.3937717014 411.137478299 28.3937717014 400.58327908 38.9479709201 c 128,-1,34
 390.029079861 49.5021701389 390.029079861 49.5021701389 390.10546875 49.5390625 c 1,35,36
 328.717218992 0.259984541571 328.717218992 0.259984541571 250 0 c 0,37,38
 157 0 157 0 91 66 c 128,-1,39
 25 132 25 132 25 225 c 2,40,-1
 25 275 l 0,41,42
 25 325 25 325 25 375 c 0,43,-1
 25 425 l 1,44,45
 25 435.35546875 25 435.35546875 32.322265625 442.677734375 c 128,-1,46
 39.64453125 450 39.64453125 450 50 450 c 0,0,1
75 364.64453125 m 1,47,-1
 75 225 l 2,48,49
 75 153 75 153 126.5 101.5 c 128,-1,50
 178 50 178 50 250 50 c 0,51,52
 308.147273666 50.0941902656 308.147273666 50.0941902656 354.67578125 84.96875 c 1,53,-1
 75 364.64453125 l 1,47,-1
250 550 m 128,-1,55
 260 550 260 550 267.5 542.5 c 128,-1,56
 275 535 275 535 275 525 c 2,57,-1
 275 -75 l 2,58,59
 275 -85 275 -85 267.5 -92.5 c 128,-1,60
 260 -100 260 -100 250 -100 c 128,-1,61
 240 -100 240 -100 232.5 -92.5 c 128,-1,62
 225 -85 225 -85 225 -75 c 2,63,-1
 225 525 l 2,64,65
 225 535 225 535 232.5 542.5 c 128,-1,54
 240 550 240 550 250 550 c 128,-1,55
EndSplineSet
EndChar

StartChar: zero
Encoding: 48 48 77
Width: 500
Flags: W
LayerCount: 2
Fore
SplineSet
250 350 m 0,0,1
 258.81658596 349.965543387 258.81658596 349.965543387 267.55078125 348.69140625 c 0,2,3
 269.719439418 348.292454983 269.719439418 348.292454983 271.8984375 347.810546875 c 0,4,5
 278.409784496 346.709460088 278.409784496 346.709460088 284.775390625 344.92578125 c 0,6,7
 287.282851347 344.116541865 287.282851347 344.116541865 289.744140625 343.20703125 c 0,8,9
 295.659486124 341.268561508 295.659486124 341.268561508 301.3515625 338.75390625 c 0,10,11
 303.820706332 337.578263781 303.820706332 337.578263781 306.21875 336.306640625 c 0,12,13
 311.7238933 333.557726392 311.7238933 333.557726392 316.93359375 330.28125 c 0,14,15
 336.17086665 318.140582425 336.17086665 318.140582425 349.8984375 300 c 1,16,-1
 349.6015625 300 l 0,17,18
 353.242432519 295.042499994 353.242432519 295.042499994 356.380859375 289.748046875 c 0,19,20
 360.335145295 283.277531272 360.335145295 283.277531272 363.4765625 276.376953125 c 0,21,22
 365.134250396 272.819892961 365.134250396 272.819892961 366.556640625 269.19140625 c 0,23,24
 369.674614294 260.992952085 369.674614294 260.992952085 371.619140625 252.423828125 c 0,25,26
 372.36258462 249.172184408 372.36258462 249.172184408 372.931640625 245.876953125 c 0,27,28
 373.768492456 241.235826099 373.768492456 241.235826099 374.25390625 236.55078125 c 0,29,30
 374.894994615 230.783926734 374.894994615 230.783926734 375 225 c 0,31,32
 374.894994615 219.216073266 374.894994615 219.216073266 374.25390625 213.44921875 c 0,33,34
 373.768492456 208.764173901 373.768492456 208.764173901 372.931640625 204.123046875 c 0,35,36
 372.36258462 200.827815592 372.36258462 200.827815592 371.619140625 197.576171875 c 0,37,38
 369.674614294 189.007047915 369.674614294 189.007047915 366.556640625 180.80859375 c 0,39,40
 365.134250396 177.180107039 365.134250396 177.180107039 363.4765625 173.623046875 c 0,41,42
 360.335145295 166.722468728 360.335145295 166.722468728 356.380859375 160.251953125 c 0,43,44
 353.242432519 154.957500006 353.242432519 154.957500006 349.6015625 150 c 1,45,-1
 349.8984375 150 l 0,46,47
 336.169921775 131.858641975 336.169921775 131.858641975 316.931640625 119.716796875 c 0,48,49
 311.719620631 116.439408031 311.719620631 116.439408031 306.21875 113.693359375 c 0,50,51
 303.820706332 112.421736219 303.820706332 112.421736219 301.3515625 111.24609375 c 0,52,53
 295.659486124 108.731438492 295.659486124 108.731438492 289.744140625 106.79296875 c 0,54,55
 287.282851347 105.883458135 287.282851347 105.883458135 284.775390625 105.07421875 c 0,56,57
 278.409784496 103.290539912 278.409784496 103.290539912 271.8984375 102.189453125 c 0,58,59
 269.719439418 101.707545017 269.719439418 101.707545017 267.55078125 101.30859375 c 0,60,61
 258.81658596 100.034456613 258.81658596 100.034456613 250 100 c 0,62,63
 241.406705853 100.048817377 241.406705853 100.048817377 232.888671875 101.275390625 c 0,64,65
 227.961039236 102.096907231 227.961039236 102.096907231 223.119140625 103.306640625 c 0,66,67
 219.61484958 103.987499523 219.61484958 103.987499523 216.16015625 104.865234375 c 0,68,69
 210.65116692 106.52660559 210.65116692 106.52660559 205.318359375 108.685546875 c 0,70,71
 202.715515901 109.618919478 202.715515901 109.618919478 200.154296875 110.66796875 c 0,72,73
 194.530381775 113.202546354 194.530381775 113.202546354 189.201171875 116.267578125 c 0,74,75
 187.143047529 117.376817408 187.143047529 117.376817408 185.14453125 118.55078125 c 0,76,77
 164.052995118 131.453769491 164.052995118 131.453769491 149.4609375 151.41796875 c 0,78,79
 146.350628073 155.714065325 146.350628073 155.714065325 143.619140625 160.251953125 c 0,80,81
 140.132665854 166.045523606 140.132665854 166.045523606 137.298828125 172.162109375 c 0,82,83
 135.069324707 176.764716365 135.069324707 176.764716365 133.228515625 181.521484375 c 0,84,85
 130.265973876 189.384359132 130.265973876 189.384359132 128.380859375 197.576171875 c 0,86,87
 128.177439564 198.55052329 128.177439564 198.55052329 127.990234375 199.529296875 c 0,88,89
 127.487867304 201.813451247 127.487867304 201.813451247 127.06640625 204.142578125 c 0,90,91
 126.471013729 207.632198805 126.471013729 207.632198805 126.07421875 211.140625 c 0,92,93
 125.809382012 212.852446818 125.809382012 212.852446818 125.59375 214.552734375 c 0,94,95
 125.077712611 219.767350827 125.077712611 219.767350827 125 225 c 128,-1,96
 125.077712611 230.232649173 125.077712611 230.232649173 125.59375 235.447265625 c 0,97,98
 125.809382012 237.147553182 125.809382012 237.147553182 126.07421875 238.859375 c 0,99,100
 126.471013729 242.367801195 126.471013729 242.367801195 127.06640625 245.857421875 c 0,101,102
 127.487867304 248.186548753 127.487867304 248.186548753 127.990234375 250.470703125 c 0,103,104
 128.177439564 251.44947671 128.177439564 251.44947671 128.380859375 252.423828125 c 0,105,106
 130.265973876 260.615640868 130.265973876 260.615640868 133.228515625 268.478515625 c 0,107,108
 135.069324707 273.235283635 135.069324707 273.235283635 137.298828125 277.837890625 c 0,109,110
 140.132665854 283.954476394 140.132665854 283.954476394 143.619140625 289.748046875 c 0,111,112
 146.353286654 294.290351443 146.353286654 294.290351443 149.458984375 298.580078125 c 0,113,114
 164.052044485 318.545648948 164.052044485 318.545648948 185.14453125 331.44921875 c 0,115,116
 187.143047529 332.623182592 187.143047529 332.623182592 189.201171875 333.732421875 c 0,117,118
 194.530381775 336.797453646 194.530381775 336.797453646 200.154296875 339.33203125 c 0,119,120
 202.715515901 340.381080522 202.715515901 340.381080522 205.318359375 341.314453125 c 0,121,122
 210.65116692 343.47339441 210.65116692 343.47339441 216.16015625 345.134765625 c 0,123,124
 219.61484958 346.012500477 219.61484958 346.012500477 223.119140625 346.693359375 c 0,125,126
 227.961039236 347.903092769 227.961039236 347.903092769 232.888671875 348.724609375 c 0,127,128
 241.406705853 349.951182623 241.406705853 349.951182623 250 350 c 0,0,1
250 300 m 0,129,130
 245.995256696 299.948102679 245.995256696 299.948102679 242.033203125 299.47265625 c 0,131,-1
 241.60546875 299.40234375 l 0,132,133
 238.21694393 299.00352253 238.21694393 299.00352253 234.857421875 298.29296875 c 0,134,135
 234.536363552 298.20926872 234.536363552 298.20926872 234.099609375 298.08984375 c 0,136,137
 233.283130273 297.880571437 233.283130273 297.880571437 232.572265625 297.681640625 c 0,138,-1
 232.537109375 297.671875 l 0,139,140
 231.43989576 297.394590037 231.43989576 297.394590037 230.375 297.091796875 c 0,141,142
 229.694936832 296.860251558 229.694936832 296.860251558 229.138671875 296.66015625 c 0,143,144
 225.425913865 295.570590434 225.425913865 295.570590434 221.849609375 294.107421875 c 0,145,146
 221.013888249 293.826969086 221.013888249 293.826969086 220.107421875 293.498046875 c 128,-1,147
 219.003529803 293.005652911 219.003529803 293.005652911 217.890625 292.46484375 c 128,-1,148
 216.714921101 291.942308684 216.714921101 291.942308684 215.5546875 291.376953125 c 0,149,150
 212.055254407 289.430229294 212.055254407 289.430229294 208.77734375 287.1171875 c 0,151,152
 207.640243566 286.42991294 207.640243566 286.42991294 206.548828125 285.716796875 c 0,153,154
 206.125593354 285.456042326 206.125593354 285.456042326 205.609375 285.126953125 c 0,155,156
 204.088804984 284.114229736 204.088804984 284.114229736 202.669921875 283.068359375 c 0,157,158
 196.75445788 278.24554212 196.75445788 278.24554212 191.931640625 272.330078125 c 0,159,160
 190.885770264 270.911195016 190.885770264 270.911195016 189.873046875 269.390625 c 0,161,162
 189.543957674 268.874406646 189.543957674 268.874406646 189.283203125 268.451171875 c 0,163,164
 188.57008706 267.359756434 188.57008706 267.359756434 187.8828125 266.22265625 c 0,165,166
 185.569770706 262.944745593 185.569770706 262.944745593 183.623046875 259.4453125 c 0,167,168
 183.057691316 258.285078899 183.057691316 258.285078899 182.53515625 257.109375 c 128,-1,169
 181.994347089 255.996470197 181.994347089 255.996470197 181.501953125 254.892578125 c 128,-1,170
 181.173030914 253.986111751 181.173030914 253.986111751 180.892578125 253.150390625 c 0,171,172
 179.429409566 249.574086135 179.429409566 249.574086135 178.33984375 245.861328125 c 0,173,174
 178.139748442 245.305063168 178.139748442 245.305063168 177.908203125 244.625 c 0,175,176
 177.605409963 243.56010424 177.605409963 243.56010424 177.328125 242.462890625 c 0,177,-1
 177.318359375 242.427734375 l 0,178,179
 177.106936196 241.672229168 177.106936196 241.672229168 176.912109375 240.912109375 c 0,180,181
 176.81634099 240.561870712 176.81634099 240.561870712 176.70703125 240.142578125 c 0,182,183
 175.99647747 236.78305607 175.99647747 236.78305607 175.59765625 233.39453125 c 0,184,-1
 175.52734375 232.966796875 l 0,185,186
 175.051897321 229.004743304 175.051897321 229.004743304 175 225 c 128,-1,187
 175.051897321 220.995256696 175.051897321 220.995256696 175.52734375 217.033203125 c 0,188,-1
 175.59765625 216.60546875 l 0,189,190
 175.99647747 213.21694393 175.99647747 213.21694393 176.70703125 209.857421875 c 0,191,192
 176.79073128 209.536363552 176.79073128 209.536363552 176.91015625 209.099609375 c 0,193,194
 177.119428563 208.283130273 177.119428563 208.283130273 177.318359375 207.572265625 c 0,195,-1
 177.328125 207.537109375 l 0,196,197
 177.605409963 206.43989576 177.605409963 206.43989576 177.908203125 205.375 c 0,198,199
 178.139748442 204.694936832 178.139748442 204.694936832 178.33984375 204.138671875 c 0,200,201
 179.429409566 200.425913865 179.429409566 200.425913865 180.892578125 196.849609375 c 0,202,203
 181.173030914 196.013888249 181.173030914 196.013888249 181.501953125 195.107421875 c 128,-1,204
 181.994347089 194.003529803 181.994347089 194.003529803 182.53515625 192.890625 c 128,-1,205
 183.057691316 191.714921101 183.057691316 191.714921101 183.623046875 190.5546875 c 0,206,207
 185.569770706 187.055254407 185.569770706 187.055254407 187.8828125 183.77734375 c 0,208,209
 188.57008706 182.640243566 188.57008706 182.640243566 189.283203125 181.548828125 c 0,210,211
 189.543957674 181.125593354 189.543957674 181.125593354 189.873046875 180.609375 c 0,212,213
 190.885770264 179.088804984 190.885770264 179.088804984 191.931640625 177.669921875 c 0,214,215
 196.75445788 171.75445788 196.75445788 171.75445788 202.669921875 166.931640625 c 0,216,217
 204.088804984 165.885770264 204.088804984 165.885770264 205.609375 164.873046875 c 0,218,219
 206.125593354 164.543957674 206.125593354 164.543957674 206.548828125 164.283203125 c 0,220,221
 207.640243566 163.57008706 207.640243566 163.57008706 208.77734375 162.8828125 c 0,222,223
 212.055254407 160.569770706 212.055254407 160.569770706 215.5546875 158.623046875 c 0,224,225
 216.714921101 158.057691316 216.714921101 158.057691316 217.890625 157.53515625 c 128,-1,226
 219.003529803 156.994347089 219.003529803 156.994347089 220.107421875 156.501953125 c 128,-1,227
 221.013888249 156.173030914 221.013888249 156.173030914 221.849609375 155.892578125 c 0,228,229
 225.425913865 154.429409566 225.425913865 154.429409566 229.138671875 153.33984375 c 0,230,231
 229.694936832 153.139748442 229.694936832 153.139748442 230.375 152.908203125 c 0,232,233
 231.43989576 152.605409963 231.43989576 152.605409963 232.537109375 152.328125 c 0,234,-1
 232.572265625 152.318359375 l 0,235,236
 233.327770832 152.106936196 233.327770832 152.106936196 234.087890625 151.912109375 c 0,237,238
 234.438129288 151.81634099 234.438129288 151.81634099 234.857421875 151.70703125 c 0,239,240
 238.21694393 150.99647747 238.21694393 150.99647747 241.60546875 150.59765625 c 0,241,-1
 242.033203125 150.52734375 l 0,242,243
 245.995256696 150.051897321 245.995256696 150.051897321 250 150 c 0,244,245
 252.792309765 150.011496901 252.792309765 150.011496901 255.576171875 150.23046875 c 0,246,247
 256.385490725 150.296988108 256.385490725 150.296988108 257.27734375 150.390625 c 0,248,249
 259.311478325 150.58950516 259.311478325 150.58950516 261.322265625 150.896484375 c 0,250,251
 262.160654211 151.019990492 262.160654211 151.019990492 263.01171875 151.1640625 c 0,252,253
 265.480103928 151.595516271 265.480103928 151.595516271 267.9140625 152.19140625 c 0,254,255
 268.28515625 152.273046875 268.28515625 152.273046875 268.50390625 152.322265625 c 0,256,257
 271.229708267 153.025460629 271.229708267 153.025460629 273.884765625 153.92578125 c 0,258,259
 274.565017884 154.162151732 274.565017884 154.162151732 275.337890625 154.44921875 c 0,260,261
 277.274812583 155.143808656 277.274812583 155.143808656 279.1796875 155.947265625 c 0,262,263
 279.990116017 156.285655076 279.990116017 156.285655076 280.84765625 156.66796875 c 0,264,265
 282.905559277 157.599239641 282.905559277 157.599239641 284.900390625 158.650390625 c 0,266,267
 285.341145833 158.870768229 285.341145833 158.870768229 285.884765625 159.15234375 c 0,268,269
 288.332519531 160.491699219 288.332519531 160.491699219 290.666015625 162.001953125 c 0,270,271
 291.315197797 162.434228458 291.315197797 162.434228458 291.890625 162.833984375 c 0,272,273
 293.616901099 163.994481803 293.616901099 163.994481803 295.302734375 165.26953125 c 0,274,275
 296.003047157 165.799382503 296.003047157 165.799382503 296.724609375 166.373046875 c 0,276,277
 298.431298837 167.73633509 298.431298837 167.73633509 300.015625 169.158203125 c 0,278,279
 300.524115875 169.598605479 300.524115875 169.598605479 301.02734375 170.05078125 c 0,280,281
 303.06101632 171.93898368 303.06101632 171.93898368 304.94921875 173.97265625 c 0,282,283
 305.401394521 174.475884125 305.401394521 174.475884125 305.841796875 174.984375 c 0,284,285
 307.26366491 176.568701163 307.26366491 176.568701163 308.626953125 178.275390625 c 0,286,287
 309.200617497 178.996952843 309.200617497 178.996952843 309.73046875 179.697265625 c 0,288,289
 311.005518197 181.383098901 311.005518197 181.383098901 312.166015625 183.109375 c 0,290,291
 312.565771542 183.684802203 312.565771542 183.684802203 312.998046875 184.333984375 c 0,292,293
 314.508789062 186.667480469 314.508789062 186.667480469 315.84765625 189.115234375 c 0,294,295
 316.129231771 189.658854167 316.129231771 189.658854167 316.349609375 190.099609375 c 0,296,297
 317.400760359 192.094440723 317.400760359 192.094440723 318.33203125 194.15234375 c 0,298,299
 318.714344924 195.009883983 318.714344924 195.009883983 319.052734375 195.8203125 c 0,300,301
 319.856191344 197.725187417 319.856191344 197.725187417 320.55078125 199.662109375 c 0,302,303
 320.837848268 200.434982116 320.837848268 200.434982116 321.07421875 201.115234375 c 0,304,305
 321.974539371 203.770291733 321.974539371 203.770291733 322.677734375 206.49609375 c 0,306,307
 322.726953125 206.71484375 322.726953125 206.71484375 322.80859375 207.0859375 c 0,308,309
 323.404483729 209.519896072 323.404483729 209.519896072 323.8359375 211.98828125 c 0,310,311
 323.980009508 212.839345789 323.980009508 212.839345789 324.103515625 213.677734375 c 0,312,313
 324.41049484 215.688521675 324.41049484 215.688521675 324.609375 217.72265625 c 0,314,315
 324.703011892 218.614509275 324.703011892 218.614509275 324.76953125 219.423828125 c 0,316,317
 324.988503099 222.207690235 324.988503099 222.207690235 325 225 c 128,-1,318
 324.988503099 227.792309765 324.988503099 227.792309765 324.76953125 230.576171875 c 0,319,320
 324.703011892 231.385490725 324.703011892 231.385490725 324.609375 232.27734375 c 0,321,322
 324.41049484 234.311478325 324.41049484 234.311478325 324.103515625 236.322265625 c 0,323,324
 323.980009508 237.160654211 323.980009508 237.160654211 323.8359375 238.01171875 c 0,325,326
 323.404483729 240.480103928 323.404483729 240.480103928 322.80859375 242.9140625 c 0,327,328
 322.726953125 243.28515625 322.726953125 243.28515625 322.677734375 243.50390625 c 0,329,330
 321.974539371 246.229708267 321.974539371 246.229708267 321.07421875 248.884765625 c 0,331,332
 320.837848268 249.565017884 320.837848268 249.565017884 320.55078125 250.337890625 c 0,333,334
 319.856191344 252.274812583 319.856191344 252.274812583 319.052734375 254.1796875 c 0,335,336
 318.714344924 254.990116017 318.714344924 254.990116017 318.33203125 255.84765625 c 0,337,338
 317.400760359 257.905559277 317.400760359 257.905559277 316.349609375 259.900390625 c 0,339,340
 316.129231771 260.341145833 316.129231771 260.341145833 315.84765625 260.884765625 c 0,341,342
 314.508300781 263.332519531 314.508300781 263.332519531 312.998046875 265.666015625 c 0,343,344
 312.565771542 266.315197797 312.565771542 266.315197797 312.166015625 266.890625 c 0,345,346
 311.005518197 268.616901099 311.005518197 268.616901099 309.73046875 270.302734375 c 0,347,348
 309.200617497 271.003047157 309.200617497 271.003047157 308.626953125 271.724609375 c 0,349,350
 307.26366491 273.431298837 307.26366491 273.431298837 305.841796875 275.015625 c 0,351,352
 305.401394521 275.524115875 305.401394521 275.524115875 304.94921875 276.02734375 c 0,353,354
 303.06101632 278.06101632 303.06101632 278.06101632 301.02734375 279.94921875 c 0,355,356
 300.524115875 280.401394521 300.524115875 280.401394521 300.015625 280.841796875 c 0,357,358
 298.431298837 282.26366491 298.431298837 282.26366491 296.724609375 283.626953125 c 0,359,360
 296.003047157 284.200617497 296.003047157 284.200617497 295.302734375 284.73046875 c 0,361,362
 293.616901099 286.005518197 293.616901099 286.005518197 291.890625 287.166015625 c 0,363,364
 291.315197797 287.565771542 291.315197797 287.565771542 290.666015625 287.998046875 c 0,365,366
 288.332519531 289.508789062 288.332519531 289.508789062 285.884765625 290.84765625 c 0,367,368
 285.341145833 291.129231771 285.341145833 291.129231771 284.900390625 291.349609375 c 0,369,370
 282.905559277 292.400760359 282.905559277 292.400760359 280.84765625 293.33203125 c 0,371,372
 279.990116017 293.714344924 279.990116017 293.714344924 279.1796875 294.052734375 c 0,373,374
 277.274812583 294.856191344 277.274812583 294.856191344 275.337890625 295.55078125 c 0,375,376
 274.565017884 295.837848268 274.565017884 295.837848268 273.884765625 296.07421875 c 0,377,378
 271.229708267 296.974539371 271.229708267 296.974539371 268.50390625 297.677734375 c 0,379,380
 268.28515625 297.726953125 268.28515625 297.726953125 267.9140625 297.80859375 c 0,381,382
 265.480103928 298.404483729 265.480103928 298.404483729 263.01171875 298.8359375 c 0,383,384
 262.160654211 298.980009508 262.160654211 298.980009508 261.322265625 299.103515625 c 0,385,386
 259.311478325 299.41049484 259.311478325 299.41049484 257.27734375 299.609375 c 0,387,388
 256.385490725 299.703011892 256.385490725 299.703011892 255.576171875 299.76953125 c 0,389,390
 252.792309765 299.988503099 252.792309765 299.988503099 250 300 c 0,129,130
EndSplineSet
EndChar

StartChar: one
Encoding: 49 49 78
Width: 500
Flags: W
LayerCount: 2
Fore
SplineSet
450 450 m 128,-1,1
 460 450 460 450 467.5 442.5 c 128,-1,2
 475 435 475 435 475 425 c 2,3,-1
 475 225 l 2,4,5
 475 132 475 132 409 66 c 128,-1,6
 343 0 343 0 250 0 c 2,7,-1
 50 0 l 2,8,9
 40 0 40 0 32.5 7.5 c 128,-1,10
 25 15 25 15 25 25 c 128,-1,11
 25 35 25 35 32.5 42.5 c 128,-1,12
 40 50 40 50 50 50 c 2,13,-1
 250 50 l 2,14,15
 322 50 322 50 373.5 101.5 c 128,-1,16
 425 153 425 153 425 225 c 2,17,-1
 425 425 l 2,18,19
 425 435 425 435 432.5 442.5 c 128,-1,0
 440 450 440 450 450 450 c 128,-1,1
250 350 m 128,-1,21
 302 350 302 350 338.5 313.5 c 128,-1,22
 375 277 375 277 375 225 c 128,-1,23
 375 173 375 173 338.5 136.5 c 128,-1,24
 302 100 302 100 250 100 c 128,-1,25
 198 100 198 100 161.5 136.5 c 128,-1,26
 125 173 125 173 125 225 c 128,-1,27
 125 277 125 277 161.5 313.5 c 128,-1,20
 198 350 198 350 250 350 c 128,-1,21
250 300 m 128,-1,29
 219 300 219 300 197 278 c 128,-1,30
 175 256 175 256 175 225 c 128,-1,31
 175 194 175 194 197 172 c 128,-1,32
 219 150 219 150 250 150 c 128,-1,33
 281 150 281 150 303 172 c 128,-1,34
 325 194 325 194 325 225 c 128,-1,35
 325 256 325 256 303 278 c 128,-1,28
 281 300 281 300 250 300 c 128,-1,29
EndSplineSet
EndChar

StartChar: percent
Encoding: 37 37 79
Width: 500
Flags: W
LayerCount: 2
Fore
SplineSet
450 450 m 128,-1,1
 460.302277474 449.963347526 460.302277474 449.963347526 467.587890625 442.677734375 c 1,2,-1
 467.677734375 442.677734375 l 1,3,-1
 467.677734375 442.587890625 l 1,4,5
 474.963347526 435.302277474 474.963347526 435.302277474 475 425 c 128,-1,6
 474.963347526 414.697722526 474.963347526 414.697722526 467.677734375 407.412109375 c 1,7,-1
 467.677734375 407.322265625 l 1,8,-1
 353.984375 293.62890625 l 0,9,10
 355.228614479 291.693094233 355.228614479 291.693094233 356.380859375 289.748046875 c 0,11,12
 360.335145295 283.277531272 360.335145295 283.277531272 363.4765625 276.376953125 c 0,13,14
 365.134250396 272.819892961 365.134250396 272.819892961 366.556640625 269.19140625 c 0,15,16
 369.674614294 260.992952085 369.674614294 260.992952085 371.619140625 252.423828125 c 0,17,18
 372.36258462 249.172184408 372.36258462 249.172184408 372.931640625 245.876953125 c 0,19,20
 373.768492456 241.235826099 373.768492456 241.235826099 374.25390625 236.55078125 c 0,21,22
 374.894994615 230.783926734 374.894994615 230.783926734 375 225 c 0,23,24
 374.894994615 219.216073266 374.894994615 219.216073266 374.25390625 213.44921875 c 0,25,26
 373.768492456 208.764173901 373.768492456 208.764173901 372.931640625 204.123046875 c 0,27,28
 372.36258462 200.827815592 372.36258462 200.827815592 371.619140625 197.576171875 c 0,29,30
 369.674614294 189.007047915 369.674614294 189.007047915 366.556640625 180.80859375 c 0,31,32
 365.134250396 177.180107039 365.134250396 177.180107039 363.4765625 173.623046875 c 0,33,34
 360.335145295 166.722468728 360.335145295 166.722468728 356.380859375 160.251953125 c 0,35,36
 353.242432519 154.957500006 353.242432519 154.957500006 349.6015625 150 c 1,37,-1
 349.8984375 150 l 0,38,39
 336.169921775 131.858641975 336.169921775 131.858641975 316.931640625 119.716796875 c 0,40,41
 311.719620631 116.439408031 311.719620631 116.439408031 306.21875 113.693359375 c 0,42,43
 303.820706332 112.421736219 303.820706332 112.421736219 301.3515625 111.24609375 c 0,44,45
 295.659486124 108.731438492 295.659486124 108.731438492 289.744140625 106.79296875 c 0,46,47
 287.282851347 105.883458135 287.282851347 105.883458135 284.775390625 105.07421875 c 0,48,49
 278.409784496 103.290539912 278.409784496 103.290539912 271.8984375 102.189453125 c 0,50,51
 269.719439418 101.707545017 269.719439418 101.707545017 267.55078125 101.30859375 c 0,52,53
 258.81658596 100.034456613 258.81658596 100.034456613 250 100 c 0,54,55
 241.406705853 100.048817377 241.406705853 100.048817377 232.888671875 101.275390625 c 0,56,57
 227.961039236 102.096907231 227.961039236 102.096907231 223.119140625 103.306640625 c 0,58,59
 219.61484958 103.987499523 219.61484958 103.987499523 216.16015625 104.865234375 c 0,60,61
 210.65116692 106.52660559 210.65116692 106.52660559 205.318359375 108.685546875 c 0,62,63
 202.715515901 109.618919478 202.715515901 109.618919478 200.154296875 110.66796875 c 0,64,65
 194.530381775 113.202546354 194.530381775 113.202546354 189.201171875 116.267578125 c 0,66,67
 187.143047529 117.376817408 187.143047529 117.376817408 185.14453125 118.55078125 c 128,-1,68
 183.224658057 119.725411778 183.224658057 119.725411778 181.333984375 120.978515625 c 2,69,-1
 67.677734375 7.322265625 l 1,70,-1
 67.587890625 7.322265625 l 1,71,72
 60.3022774743 0.0366524742931 60.3022774743 0.0366524742931 50 0 c 128,-1,73
 39.6977225257 0.0366524742931 39.6977225257 0.0366524742931 32.412109375 7.322265625 c 1,74,-1
 32.322265625 7.322265625 l 1,75,-1
 32.322265625 7.412109375 l 1,76,77
 25.0366524743 14.6977225257 25.0366524743 14.6977225257 25 25 c 128,-1,78
 25 35.35546875 25 35.35546875 32.322265625 42.677734375 c 2,79,-1
 146.0390625 156.39453125 l 0,80,81
 144.801436717 158.290282743 144.801436717 158.290282743 143.619140625 160.251953125 c 0,82,83
 140.132665854 166.045523606 140.132665854 166.045523606 137.298828125 172.162109375 c 0,84,85
 135.069324707 176.764716365 135.069324707 176.764716365 133.228515625 181.521484375 c 0,86,87
 130.265973876 189.384359132 130.265973876 189.384359132 128.380859375 197.576171875 c 0,88,89
 128.177439564 198.55052329 128.177439564 198.55052329 127.990234375 199.529296875 c 0,90,91
 127.487867304 201.813451247 127.487867304 201.813451247 127.06640625 204.142578125 c 0,92,93
 126.471013729 207.632198805 126.471013729 207.632198805 126.07421875 211.140625 c 0,94,95
 125.809382012 212.852446818 125.809382012 212.852446818 125.59375 214.552734375 c 0,96,97
 125.077712611 219.767350827 125.077712611 219.767350827 125 225 c 128,-1,98
 125.077712611 230.232649173 125.077712611 230.232649173 125.59375 235.447265625 c 0,99,100
 125.809382012 237.147553182 125.809382012 237.147553182 126.07421875 238.859375 c 0,101,102
 126.471013729 242.367801195 126.471013729 242.367801195 127.06640625 245.857421875 c 0,103,104
 127.487867304 248.186548753 127.487867304 248.186548753 127.990234375 250.470703125 c 0,105,106
 128.177439564 251.44947671 128.177439564 251.44947671 128.380859375 252.423828125 c 0,107,108
 130.265973876 260.615640868 130.265973876 260.615640868 133.228515625 268.478515625 c 0,109,110
 135.069324707 273.235283635 135.069324707 273.235283635 137.298828125 277.837890625 c 0,111,112
 140.132665854 283.954476394 140.132665854 283.954476394 143.619140625 289.748046875 c 0,113,114
 146.353286654 294.290351443 146.353286654 294.290351443 149.458984375 298.580078125 c 0,115,116
 164.052044485 318.545648948 164.052044485 318.545648948 185.14453125 331.44921875 c 0,117,118
 187.143047529 332.623182592 187.143047529 332.623182592 189.201171875 333.732421875 c 0,119,120
 194.530381775 336.797453646 194.530381775 336.797453646 200.154296875 339.33203125 c 0,121,122
 202.715515901 340.381080522 202.715515901 340.381080522 205.318359375 341.314453125 c 0,123,124
 210.65116692 343.47339441 210.65116692 343.47339441 216.16015625 345.134765625 c 0,125,126
 219.61484958 346.012500477 219.61484958 346.012500477 223.119140625 346.693359375 c 0,127,128
 227.961039236 347.903092769 227.961039236 347.903092769 232.888671875 348.724609375 c 0,129,130
 241.406705853 349.951182623 241.406705853 349.951182623 250 350 c 0,131,132
 258.81658596 349.965543387 258.81658596 349.965543387 267.55078125 348.69140625 c 0,133,134
 269.719439418 348.292454983 269.719439418 348.292454983 271.8984375 347.810546875 c 0,135,136
 278.409784496 346.709460088 278.409784496 346.709460088 284.775390625 344.92578125 c 0,137,138
 287.282851347 344.116541865 287.282851347 344.116541865 289.744140625 343.20703125 c 0,139,140
 295.659486124 341.268561508 295.659486124 341.268561508 301.3515625 338.75390625 c 0,141,142
 303.820706332 337.578263781 303.820706332 337.578263781 306.21875 336.306640625 c 0,143,144
 311.7238933 333.557726392 311.7238933 333.557726392 316.93359375 330.28125 c 0,145,146
 317.819389263 329.722321521 317.819389263 329.722321521 318.75390625 329.109375 c 2,147,-1
 432.322265625 442.677734375 l 1,148,0
 439.64453125 450 439.64453125 450 450 450 c 128,-1,1
250 300 m 0,149,150
 245.995256696 299.948102679 245.995256696 299.948102679 242.033203125 299.47265625 c 0,151,-1
 241.60546875 299.40234375 l 0,152,153
 238.21694393 299.00352253 238.21694393 299.00352253 234.857421875 298.29296875 c 0,154,155
 234.536363552 298.20926872 234.536363552 298.20926872 234.099609375 298.08984375 c 0,156,157
 233.283130273 297.880571437 233.283130273 297.880571437 232.572265625 297.681640625 c 0,158,-1
 232.537109375 297.671875 l 0,159,160
 231.43989576 297.394590037 231.43989576 297.394590037 230.375 297.091796875 c 0,161,162
 229.694936832 296.860251558 229.694936832 296.860251558 229.138671875 296.66015625 c 0,163,164
 225.425913865 295.570590434 225.425913865 295.570590434 221.849609375 294.107421875 c 0,165,166
 221.013888249 293.826969086 221.013888249 293.826969086 220.107421875 293.498046875 c 128,-1,167
 219.003529803 293.005652911 219.003529803 293.005652911 217.890625 292.46484375 c 128,-1,168
 216.714921101 291.942308684 216.714921101 291.942308684 215.5546875 291.376953125 c 0,169,170
 212.055254407 289.430229294 212.055254407 289.430229294 208.77734375 287.1171875 c 0,171,172
 207.640243566 286.42991294 207.640243566 286.42991294 206.548828125 285.716796875 c 0,173,174
 206.125593354 285.456042326 206.125593354 285.456042326 205.609375 285.126953125 c 0,175,176
 204.088804984 284.114229736 204.088804984 284.114229736 202.669921875 283.068359375 c 0,177,178
 196.75445788 278.24554212 196.75445788 278.24554212 191.931640625 272.330078125 c 0,179,180
 190.885770264 270.911195016 190.885770264 270.911195016 189.873046875 269.390625 c 0,181,182
 189.543957674 268.874406646 189.543957674 268.874406646 189.283203125 268.451171875 c 0,183,184
 188.57008706 267.359756434 188.57008706 267.359756434 187.8828125 266.22265625 c 0,185,186
 185.569770706 262.944745593 185.569770706 262.944745593 183.623046875 259.4453125 c 0,187,188
 183.057691316 258.285078899 183.057691316 258.285078899 182.53515625 257.109375 c 128,-1,189
 181.994347089 255.996470197 181.994347089 255.996470197 181.501953125 254.892578125 c 128,-1,190
 181.173030914 253.986111751 181.173030914 253.986111751 180.892578125 253.150390625 c 0,191,192
 179.429409566 249.574086135 179.429409566 249.574086135 178.33984375 245.861328125 c 0,193,194
 178.139748442 245.305063168 178.139748442 245.305063168 177.908203125 244.625 c 0,195,196
 177.605409963 243.56010424 177.605409963 243.56010424 177.328125 242.462890625 c 0,197,-1
 177.318359375 242.427734375 l 0,198,199
 177.106936196 241.672229168 177.106936196 241.672229168 176.912109375 240.912109375 c 0,200,201
 176.81634099 240.561870712 176.81634099 240.561870712 176.70703125 240.142578125 c 0,202,203
 175.99647747 236.78305607 175.99647747 236.78305607 175.59765625 233.39453125 c 0,204,-1
 175.52734375 232.966796875 l 0,205,206
 175.051897321 229.004743304 175.051897321 229.004743304 175 225 c 128,-1,207
 175.051897321 220.995256696 175.051897321 220.995256696 175.52734375 217.033203125 c 0,208,-1
 175.59765625 216.60546875 l 0,209,210
 175.99647747 213.21694393 175.99647747 213.21694393 176.70703125 209.857421875 c 0,211,212
 176.79073128 209.536363552 176.79073128 209.536363552 176.91015625 209.099609375 c 0,213,214
 177.119428563 208.283130273 177.119428563 208.283130273 177.318359375 207.572265625 c 0,215,-1
 177.328125 207.537109375 l 0,216,217
 177.605409963 206.43989576 177.605409963 206.43989576 177.908203125 205.375 c 0,218,219
 178.139748442 204.694936832 178.139748442 204.694936832 178.33984375 204.138671875 c 0,220,221
 179.429409566 200.425913865 179.429409566 200.425913865 180.892578125 196.849609375 c 0,222,223
 181.173030914 196.013888249 181.173030914 196.013888249 181.501953125 195.107421875 c 128,-1,224
 181.994347089 194.003529803 181.994347089 194.003529803 182.53515625 192.890625 c 1,225,-1
 282.30078125 292.65625 l 1,226,227
 281.553699897 293.013814395 281.553699897 293.013814395 280.84765625 293.33203125 c 128,-1,228
 279.990116017 293.714344924 279.990116017 293.714344924 279.1796875 294.052734375 c 0,229,230
 277.274812583 294.856191344 277.274812583 294.856191344 275.337890625 295.55078125 c 0,231,232
 274.565017884 295.837848268 274.565017884 295.837848268 273.884765625 296.07421875 c 0,233,234
 271.229708267 296.974539371 271.229708267 296.974539371 268.50390625 297.677734375 c 0,235,236
 268.28515625 297.726953125 268.28515625 297.726953125 267.9140625 297.80859375 c 0,237,238
 265.480103928 298.404483729 265.480103928 298.404483729 263.01171875 298.8359375 c 0,239,240
 262.160654211 298.980009508 262.160654211 298.980009508 261.322265625 299.103515625 c 0,241,242
 259.311478325 299.41049484 259.311478325 299.41049484 257.27734375 299.609375 c 0,243,244
 256.385490725 299.703011892 256.385490725 299.703011892 255.576171875 299.76953125 c 0,245,246
 252.792309765 299.988503099 252.792309765 299.988503099 250 300 c 0,149,150
317.65625 257.30078125 m 1,247,-1
 217.890625 157.53515625 l 1,248,249
 219.003529803 156.994347089 219.003529803 156.994347089 220.107421875 156.501953125 c 128,-1,250
 221.013888249 156.173030914 221.013888249 156.173030914 221.849609375 155.892578125 c 0,251,252
 225.425913865 154.429409566 225.425913865 154.429409566 229.138671875 153.33984375 c 0,253,254
 229.694936832 153.139748442 229.694936832 153.139748442 230.375 152.908203125 c 0,255,256
 231.43989576 152.605409963 231.43989576 152.605409963 232.537109375 152.328125 c 0,257,-1
 232.572265625 152.318359375 l 0,258,259
 233.327770832 152.106936196 233.327770832 152.106936196 234.087890625 151.912109375 c 0,260,261
 234.438129288 151.81634099 234.438129288 151.81634099 234.857421875 151.70703125 c 0,262,263
 238.21694393 150.99647747 238.21694393 150.99647747 241.60546875 150.59765625 c 0,264,-1
 242.033203125 150.52734375 l 0,265,266
 245.995256696 150.051897321 245.995256696 150.051897321 250 150 c 0,267,268
 252.792309765 150.011496901 252.792309765 150.011496901 255.576171875 150.23046875 c 0,269,270
 256.385490725 150.296988108 256.385490725 150.296988108 257.27734375 150.390625 c 0,271,272
 259.311478325 150.58950516 259.311478325 150.58950516 261.322265625 150.896484375 c 0,273,274
 262.160654211 151.019990492 262.160654211 151.019990492 263.01171875 151.1640625 c 0,275,276
 265.480103928 151.595516271 265.480103928 151.595516271 267.9140625 152.19140625 c 0,277,278
 268.28515625 152.273046875 268.28515625 152.273046875 268.50390625 152.322265625 c 0,279,280
 271.229708267 153.025460629 271.229708267 153.025460629 273.884765625 153.92578125 c 0,281,282
 274.565017884 154.162151732 274.565017884 154.162151732 275.337890625 154.44921875 c 0,283,284
 277.274812583 155.143808656 277.274812583 155.143808656 279.1796875 155.947265625 c 0,285,286
 279.990116017 156.285655076 279.990116017 156.285655076 280.84765625 156.66796875 c 0,287,288
 282.905559277 157.599239641 282.905559277 157.599239641 284.900390625 158.650390625 c 0,289,290
 285.341145833 158.870768229 285.341145833 158.870768229 285.884765625 159.15234375 c 0,291,292
 288.332519531 160.491699219 288.332519531 160.491699219 290.666015625 162.001953125 c 0,293,294
 291.315197797 162.434228458 291.315197797 162.434228458 291.890625 162.833984375 c 0,295,296
 293.616901099 163.994481803 293.616901099 163.994481803 295.302734375 165.26953125 c 0,297,298
 296.003047157 165.799382503 296.003047157 165.799382503 296.724609375 166.373046875 c 0,299,300
 298.431298837 167.73633509 298.431298837 167.73633509 300.015625 169.158203125 c 0,301,302
 300.524115875 169.598605479 300.524115875 169.598605479 301.02734375 170.05078125 c 0,303,304
 303.06101632 171.93898368 303.06101632 171.93898368 304.94921875 173.97265625 c 0,305,306
 305.401394521 174.475884125 305.401394521 174.475884125 305.841796875 174.984375 c 0,307,308
 307.26366491 176.568701163 307.26366491 176.568701163 308.626953125 178.275390625 c 0,309,310
 309.200617497 178.996952843 309.200617497 178.996952843 309.73046875 179.697265625 c 0,311,312
 311.005518197 181.383098901 311.005518197 181.383098901 312.166015625 183.109375 c 0,313,314
 312.565771542 183.684802203 312.565771542 183.684802203 312.998046875 184.333984375 c 0,315,316
 314.508789062 186.667480469 314.508789062 186.667480469 315.84765625 189.115234375 c 0,317,318
 316.129231771 189.658854167 316.129231771 189.658854167 316.349609375 190.099609375 c 0,319,320
 317.400760359 192.094440723 317.400760359 192.094440723 318.33203125 194.15234375 c 0,321,322
 318.714344924 195.009883983 318.714344924 195.009883983 319.052734375 195.8203125 c 0,323,324
 319.856191344 197.725187417 319.856191344 197.725187417 320.55078125 199.662109375 c 0,325,326
 320.837848268 200.434982116 320.837848268 200.434982116 321.07421875 201.115234375 c 0,327,328
 321.974539371 203.770291733 321.974539371 203.770291733 322.677734375 206.49609375 c 0,329,330
 322.726953125 206.71484375 322.726953125 206.71484375 322.80859375 207.0859375 c 0,331,332
 323.404483729 209.519896072 323.404483729 209.519896072 323.8359375 211.98828125 c 0,333,334
 323.980009508 212.839345789 323.980009508 212.839345789 324.103515625 213.677734375 c 0,335,336
 324.41049484 215.688521675 324.41049484 215.688521675 324.609375 217.72265625 c 0,337,338
 324.703011892 218.614509275 324.703011892 218.614509275 324.76953125 219.423828125 c 0,339,340
 324.988503099 222.207690235 324.988503099 222.207690235 325 225 c 128,-1,341
 324.988503099 227.792309765 324.988503099 227.792309765 324.76953125 230.576171875 c 0,342,343
 324.703011892 231.385490725 324.703011892 231.385490725 324.609375 232.27734375 c 0,344,345
 324.41049484 234.311478325 324.41049484 234.311478325 324.103515625 236.322265625 c 0,346,347
 323.980009508 237.160654211 323.980009508 237.160654211 323.8359375 238.01171875 c 0,348,349
 323.404483729 240.480103928 323.404483729 240.480103928 322.80859375 242.9140625 c 0,350,351
 322.726953125 243.28515625 322.726953125 243.28515625 322.677734375 243.50390625 c 0,352,353
 321.974539371 246.229708267 321.974539371 246.229708267 321.07421875 248.884765625 c 0,354,355
 320.837848268 249.565017884 320.837848268 249.565017884 320.55078125 250.337890625 c 0,356,357
 319.856191344 252.274812583 319.856191344 252.274812583 319.052734375 254.1796875 c 0,358,359
 318.714344924 254.990116017 318.714344924 254.990116017 318.33203125 255.84765625 c 128,-1,360
 318.013814395 256.553699897 318.013814395 256.553699897 317.65625 257.30078125 c 1,247,-1
EndSplineSet
EndChar

StartChar: comma
Encoding: 44 44 80
Width: 500
Flags: W
LayerCount: 2
Fore
SplineSet
50 250 m 128,-1,1
 60 250 60 250 67.5 242.5 c 128,-1,2
 75 235 75 235 75 225 c 128,-1,3
 75 215 75 215 67.5 207.5 c 128,-1,4
 60 200 60 200 50 200 c 128,-1,5
 40 200 40 200 32.5 207.5 c 128,-1,6
 25 215 25 215 25 225 c 128,-1,7
 25 235 25 235 32.5 242.5 c 128,-1,0
 40 250 40 250 50 250 c 128,-1,1
250 250 m 128,-1,9
 260 250 260 250 267.5 242.5 c 128,-1,10
 275 235 275 235 275 225 c 128,-1,11
 275 215 275 215 267.5 207.5 c 128,-1,12
 260 200 260 200 250 200 c 128,-1,13
 240 200 240 200 232.5 207.5 c 128,-1,14
 225 215 225 215 225 225 c 128,-1,15
 225 235 225 235 232.5 242.5 c 128,-1,8
 240 250 240 250 250 250 c 128,-1,9
450 250 m 128,-1,17
 460 250 460 250 467.5 242.5 c 128,-1,18
 475 235 475 235 475 225 c 128,-1,19
 475 215 475 215 467.5 207.5 c 128,-1,20
 460 200 460 200 450 200 c 128,-1,21
 440 200 440 200 432.5 207.5 c 128,-1,22
 425 215 425 215 425 225 c 128,-1,23
 425 235 425 235 432.5 242.5 c 128,-1,16
 440 250 440 250 450 250 c 128,-1,17
EndSplineSet
EndChar

StartChar: exclam
Encoding: 33 33 81
Width: 500
Flags: W
LayerCount: 2
Fore
SplineSet
250 450 m 128,-1,1
 260 450 260 450 267.5 442.5 c 128,-1,2
 275 435 275 435 275 425 c 128,-1,3
 275 415 275 415 267.5 407.5 c 128,-1,4
 260 400 260 400 250 400 c 128,-1,5
 240 400 240 400 232.5 407.5 c 128,-1,6
 225 415 225 415 225 425 c 128,-1,7
 225 435 225 435 232.5 442.5 c 128,-1,0
 240 450 240 450 250 450 c 128,-1,1
250 50 m 128,-1,9
 260 50 260 50 267.5 42.5 c 128,-1,10
 275 35 275 35 275 25 c 128,-1,11
 275 15 275 15 267.5 7.5 c 128,-1,12
 260 0 260 0 250 0 c 128,-1,13
 240 0 240 0 232.5 7.5 c 128,-1,14
 225 15 225 15 225 25 c 128,-1,15
 225 35 225 35 232.5 42.5 c 128,-1,8
 240 50 240 50 250 50 c 128,-1,9
EndSplineSet
EndChar

StartChar: five
Encoding: 53 53 82
Width: 500
Flags: W
LayerCount: 2
Fore
SplineSet
250 450 m 128,-1,1
 343 450 343 450 409 384 c 128,-1,2
 475 318 475 318 475 225 c 128,-1,3
 475 132 475 132 409 66 c 128,-1,4
 343 0 343 0 250 0 c 128,-1,5
 157 0 157 0 91 66 c 128,-1,6
 25 132 25 132 25 225 c 128,-1,7
 25 318 25 318 91 384 c 128,-1,0
 157 450 157 450 250 450 c 128,-1,1
250 400 m 128,-1,9
 178 400 178 400 126.5 348.5 c 128,-1,10
 75 297 75 297 75 225 c 128,-1,11
 75 153 75 153 126.5 101.5 c 128,-1,12
 178 50 178 50 250 50 c 128,-1,13
 322 50 322 50 373.5 101.5 c 128,-1,14
 425 153 425 153 425 225 c 128,-1,15
 425 297 425 297 373.5 348.5 c 128,-1,8
 322 400 322 400 250 400 c 128,-1,9
250 350 m 128,-1,17
 302 350 302 350 338.5 313.5 c 128,-1,18
 375 277 375 277 375 225 c 128,-1,19
 375 173 375 173 338.5 136.5 c 128,-1,20
 302 100 302 100 250 100 c 128,-1,21
 198 100 198 100 161.5 136.5 c 128,-1,22
 125 173 125 173 125 225 c 128,-1,23
 125 277 125 277 161.5 313.5 c 128,-1,16
 198 350 198 350 250 350 c 128,-1,17
250 300 m 128,-1,25
 219 300 219 300 197 278 c 128,-1,26
 175 256 175 256 175 225 c 128,-1,27
 175 194 175 194 197 172 c 128,-1,28
 219 150 219 150 250 150 c 128,-1,29
 281 150 281 150 303 172 c 128,-1,30
 325 194 325 194 325 225 c 128,-1,31
 325 256 325 256 303 278 c 128,-1,24
 281 300 281 300 250 300 c 128,-1,25
EndSplineSet
EndChar

StartChar: less
Encoding: 60 60 83
Width: 500
Flags: W
LayerCount: 2
Fore
SplineSet
250 350 m 2,0,-1
 350 350 l 2,1,2
 360 350 360 350 367.5 342.5 c 128,-1,3
 375 335 375 335 375 325 c 128,-1,4
 375 315 375 315 367.5 307.5 c 128,-1,5
 360 300 360 300 350 300 c 2,6,-1
 250 300 l 2,7,8
 219 300 219 300 197 278 c 128,-1,9
 175 256 175 256 175 225 c 128,-1,10
 175 194 175 194 197 172 c 128,-1,11
 219 150 219 150 250 150 c 2,12,-1
 350 150 l 2,13,14
 360 150 360 150 367.5 142.5 c 128,-1,15
 375 135 375 135 375 125 c 128,-1,16
 375 115 375 115 367.5 107.5 c 128,-1,17
 360 100 360 100 350 100 c 2,18,-1
 250 100 l 2,19,20
 198 100 198 100 161.5 136.5 c 128,-1,21
 125 173 125 173 125 225 c 128,-1,22
 125 277 125 277 161.5 313.5 c 128,-1,23
 198 350 198 350 250 350 c 2,0,-1
EndSplineSet
EndChar

StartChar: semicolon
Encoding: 59 59 84
Width: 500
Flags: W
LayerCount: 2
Fore
SplineSet
50 250 m 128,-1,1
 60 250 60 250 67.5 242.5 c 128,-1,2
 75 235 75 235 75 225 c 128,-1,3
 75 215 75 215 67.5 207.5 c 128,-1,4
 60 200 60 200 50 200 c 128,-1,5
 40 200 40 200 32.5 207.5 c 128,-1,6
 25 215 25 215 25 225 c 128,-1,7
 25 235 25 235 32.5 242.5 c 128,-1,0
 40 250 40 250 50 250 c 128,-1,1
250 250 m 128,-1,9
 260 250 260 250 267.5 242.5 c 128,-1,10
 275 235 275 235 275 225 c 128,-1,11
 275 215 275 215 267.5 207.5 c 128,-1,12
 260 200 260 200 250 200 c 128,-1,13
 240 200 240 200 232.5 207.5 c 128,-1,14
 225 215 225 215 225 225 c 128,-1,15
 225 235 225 235 232.5 242.5 c 128,-1,8
 240 250 240 250 250 250 c 128,-1,9
450 250 m 128,-1,17
 460 250 460 250 467.5 242.5 c 128,-1,18
 475 235 475 235 475 225 c 128,-1,19
 475 215 475 215 467.5 207.5 c 128,-1,20
 460 200 460 200 450 200 c 128,-1,21
 440 200 440 200 432.5 207.5 c 128,-1,22
 425 215 425 215 425 225 c 128,-1,23
 425 235 425 235 432.5 242.5 c 128,-1,16
 440 250 440 250 450 250 c 128,-1,17
250 350 m 0,24,25
 258.81658596 349.965543387 258.81658596 349.965543387 267.55078125 348.69140625 c 0,26,27
 269.719439418 348.292454983 269.719439418 348.292454983 271.8984375 347.810546875 c 0,28,29
 278.409784496 346.709460088 278.409784496 346.709460088 284.775390625 344.92578125 c 0,30,31
 287.282851347 344.116541865 287.282851347 344.116541865 289.744140625 343.20703125 c 0,32,33
 295.659486124 341.268561508 295.659486124 341.268561508 301.3515625 338.75390625 c 0,34,35
 303.820706332 337.578263781 303.820706332 337.578263781 306.21875 336.306640625 c 0,36,37
 311.7238933 333.557726392 311.7238933 333.557726392 316.93359375 330.28125 c 0,38,39
 336.17086665 318.140582425 336.17086665 318.140582425 349.8984375 300 c 1,40,-1
 349.6015625 300 l 0,41,42
 353.242432519 295.042499994 353.242432519 295.042499994 356.380859375 289.748046875 c 0,43,44
 360.335145295 283.277531272 360.335145295 283.277531272 363.4765625 276.376953125 c 0,45,46
 365.134250396 272.819892961 365.134250396 272.819892961 366.556640625 269.19140625 c 0,47,48
 369.674614294 260.992952085 369.674614294 260.992952085 371.619140625 252.423828125 c 0,49,50
 372.36258462 249.172184408 372.36258462 249.172184408 372.931640625 245.876953125 c 0,51,52
 373.768492456 241.235826099 373.768492456 241.235826099 374.25390625 236.55078125 c 0,53,54
 374.894994615 230.783926734 374.894994615 230.783926734 375 225 c 0,55,56
 374.894994615 219.216073266 374.894994615 219.216073266 374.25390625 213.44921875 c 0,57,58
 373.768492456 208.764173901 373.768492456 208.764173901 372.931640625 204.123046875 c 0,59,60
 372.36258462 200.827815592 372.36258462 200.827815592 371.619140625 197.576171875 c 0,61,62
 369.674614294 189.007047915 369.674614294 189.007047915 366.556640625 180.80859375 c 0,63,64
 365.134250396 177.180107039 365.134250396 177.180107039 363.4765625 173.623046875 c 0,65,66
 360.335145295 166.722468728 360.335145295 166.722468728 356.380859375 160.251953125 c 0,67,68
 353.242432519 154.957500006 353.242432519 154.957500006 349.6015625 150 c 1,69,-1
 349.8984375 150 l 0,70,71
 336.169921775 131.858641975 336.169921775 131.858641975 316.931640625 119.716796875 c 0,72,73
 311.719620631 116.439408031 311.719620631 116.439408031 306.21875 113.693359375 c 0,74,75
 303.820706332 112.421736219 303.820706332 112.421736219 301.3515625 111.24609375 c 0,76,77
 295.659486124 108.731438492 295.659486124 108.731438492 289.744140625 106.79296875 c 0,78,79
 287.282851347 105.883458135 287.282851347 105.883458135 284.775390625 105.07421875 c 0,80,81
 278.409784496 103.290539912 278.409784496 103.290539912 271.8984375 102.189453125 c 0,82,83
 269.719439418 101.707545017 269.719439418 101.707545017 267.55078125 101.30859375 c 0,84,85
 258.81658596 100.034456613 258.81658596 100.034456613 250 100 c 0,86,87
 241.406705853 100.048817377 241.406705853 100.048817377 232.888671875 101.275390625 c 0,88,89
 227.961039236 102.096907231 227.961039236 102.096907231 223.119140625 103.306640625 c 0,90,91
 219.61484958 103.987499523 219.61484958 103.987499523 216.16015625 104.865234375 c 0,92,93
 210.65116692 106.52660559 210.65116692 106.52660559 205.318359375 108.685546875 c 0,94,95
 202.715515901 109.618919478 202.715515901 109.618919478 200.154296875 110.66796875 c 0,96,97
 194.530381775 113.202546354 194.530381775 113.202546354 189.201171875 116.267578125 c 0,98,99
 187.143047529 117.376817408 187.143047529 117.376817408 185.14453125 118.55078125 c 0,100,101
 164.052995118 131.453769491 164.052995118 131.453769491 149.4609375 151.41796875 c 0,102,103
 146.350628073 155.714065325 146.350628073 155.714065325 143.619140625 160.251953125 c 0,104,105
 140.132665854 166.045523606 140.132665854 166.045523606 137.298828125 172.162109375 c 0,106,107
 135.069324707 176.764716365 135.069324707 176.764716365 133.228515625 181.521484375 c 0,108,109
 130.265973876 189.384359132 130.265973876 189.384359132 128.380859375 197.576171875 c 0,110,111
 128.177439564 198.55052329 128.177439564 198.55052329 127.990234375 199.529296875 c 0,112,113
 127.487867304 201.813451247 127.487867304 201.813451247 127.06640625 204.142578125 c 0,114,115
 126.471013729 207.632198805 126.471013729 207.632198805 126.07421875 211.140625 c 0,116,117
 125.809382012 212.852446818 125.809382012 212.852446818 125.59375 214.552734375 c 0,118,119
 125.077712611 219.767350827 125.077712611 219.767350827 125 225 c 128,-1,120
 125.077712611 230.232649173 125.077712611 230.232649173 125.59375 235.447265625 c 0,121,122
 125.809382012 237.147553182 125.809382012 237.147553182 126.07421875 238.859375 c 0,123,124
 126.471013729 242.367801195 126.471013729 242.367801195 127.06640625 245.857421875 c 0,125,126
 127.487867304 248.186548753 127.487867304 248.186548753 127.990234375 250.470703125 c 0,127,128
 128.177439564 251.44947671 128.177439564 251.44947671 128.380859375 252.423828125 c 0,129,130
 130.265973876 260.615640868 130.265973876 260.615640868 133.228515625 268.478515625 c 0,131,132
 135.069324707 273.235283635 135.069324707 273.235283635 137.298828125 277.837890625 c 0,133,134
 140.132665854 283.954476394 140.132665854 283.954476394 143.619140625 289.748046875 c 0,135,136
 146.353286654 294.290351443 146.353286654 294.290351443 149.458984375 298.580078125 c 0,137,138
 164.052044485 318.545648948 164.052044485 318.545648948 185.14453125 331.44921875 c 0,139,140
 187.143047529 332.623182592 187.143047529 332.623182592 189.201171875 333.732421875 c 0,141,142
 194.530381775 336.797453646 194.530381775 336.797453646 200.154296875 339.33203125 c 0,143,144
 202.715515901 340.381080522 202.715515901 340.381080522 205.318359375 341.314453125 c 0,145,146
 210.65116692 343.47339441 210.65116692 343.47339441 216.16015625 345.134765625 c 0,147,148
 219.61484958 346.012500477 219.61484958 346.012500477 223.119140625 346.693359375 c 0,149,150
 227.961039236 347.903092769 227.961039236 347.903092769 232.888671875 348.724609375 c 0,151,152
 241.406705853 349.951182623 241.406705853 349.951182623 250 350 c 0,24,25
250 300 m 0,153,154
 245.995256696 299.948102679 245.995256696 299.948102679 242.033203125 299.47265625 c 0,155,-1
 241.60546875 299.40234375 l 0,156,157
 238.21694393 299.00352253 238.21694393 299.00352253 234.857421875 298.29296875 c 0,158,159
 234.536363552 298.20926872 234.536363552 298.20926872 234.099609375 298.08984375 c 0,160,161
 233.283130273 297.880571437 233.283130273 297.880571437 232.572265625 297.681640625 c 0,162,-1
 232.537109375 297.671875 l 0,163,164
 231.43989576 297.394590037 231.43989576 297.394590037 230.375 297.091796875 c 0,165,166
 229.694936832 296.860251558 229.694936832 296.860251558 229.138671875 296.66015625 c 0,167,168
 225.425913865 295.570590434 225.425913865 295.570590434 221.849609375 294.107421875 c 0,169,170
 221.013888249 293.826969086 221.013888249 293.826969086 220.107421875 293.498046875 c 128,-1,171
 219.003529803 293.005652911 219.003529803 293.005652911 217.890625 292.46484375 c 128,-1,172
 216.714921101 291.942308684 216.714921101 291.942308684 215.5546875 291.376953125 c 0,173,174
 212.055254407 289.430229294 212.055254407 289.430229294 208.77734375 287.1171875 c 0,175,176
 207.640243566 286.42991294 207.640243566 286.42991294 206.548828125 285.716796875 c 0,177,178
 206.125593354 285.456042326 206.125593354 285.456042326 205.609375 285.126953125 c 0,179,180
 204.088804984 284.114229736 204.088804984 284.114229736 202.669921875 283.068359375 c 0,181,182
 196.75445788 278.24554212 196.75445788 278.24554212 191.931640625 272.330078125 c 0,183,184
 190.885770264 270.911195016 190.885770264 270.911195016 189.873046875 269.390625 c 0,185,186
 189.543957674 268.874406646 189.543957674 268.874406646 189.283203125 268.451171875 c 0,187,188
 188.57008706 267.359756434 188.57008706 267.359756434 187.8828125 266.22265625 c 0,189,190
 185.569770706 262.944745593 185.569770706 262.944745593 183.623046875 259.4453125 c 0,191,192
 183.057691316 258.285078899 183.057691316 258.285078899 182.53515625 257.109375 c 128,-1,193
 181.994347089 255.996470197 181.994347089 255.996470197 181.501953125 254.892578125 c 128,-1,194
 181.173030914 253.986111751 181.173030914 253.986111751 180.892578125 253.150390625 c 0,195,196
 179.429409566 249.574086135 179.429409566 249.574086135 178.33984375 245.861328125 c 0,197,198
 178.139748442 245.305063168 178.139748442 245.305063168 177.908203125 244.625 c 0,199,200
 177.605409963 243.56010424 177.605409963 243.56010424 177.328125 242.462890625 c 0,201,-1
 177.318359375 242.427734375 l 0,202,203
 177.106936196 241.672229168 177.106936196 241.672229168 176.912109375 240.912109375 c 0,204,205
 176.81634099 240.561870712 176.81634099 240.561870712 176.70703125 240.142578125 c 0,206,207
 175.99647747 236.78305607 175.99647747 236.78305607 175.59765625 233.39453125 c 0,208,-1
 175.52734375 232.966796875 l 0,209,210
 175.051897321 229.004743304 175.051897321 229.004743304 175 225 c 128,-1,211
 175.051897321 220.995256696 175.051897321 220.995256696 175.52734375 217.033203125 c 0,212,-1
 175.59765625 216.60546875 l 0,213,214
 175.99647747 213.21694393 175.99647747 213.21694393 176.70703125 209.857421875 c 0,215,216
 176.79073128 209.536363552 176.79073128 209.536363552 176.91015625 209.099609375 c 0,217,218
 177.119428563 208.283130273 177.119428563 208.283130273 177.318359375 207.572265625 c 0,219,-1
 177.328125 207.537109375 l 0,220,221
 177.605409963 206.43989576 177.605409963 206.43989576 177.908203125 205.375 c 0,222,223
 178.139748442 204.694936832 178.139748442 204.694936832 178.33984375 204.138671875 c 0,224,225
 179.429409566 200.425913865 179.429409566 200.425913865 180.892578125 196.849609375 c 0,226,227
 181.173030914 196.013888249 181.173030914 196.013888249 181.501953125 195.107421875 c 128,-1,228
 181.994347089 194.003529803 181.994347089 194.003529803 182.53515625 192.890625 c 128,-1,229
 183.057691316 191.714921101 183.057691316 191.714921101 183.623046875 190.5546875 c 0,230,231
 185.569770706 187.055254407 185.569770706 187.055254407 187.8828125 183.77734375 c 0,232,233
 188.57008706 182.640243566 188.57008706 182.640243566 189.283203125 181.548828125 c 0,234,235
 189.543957674 181.125593354 189.543957674 181.125593354 189.873046875 180.609375 c 0,236,237
 190.885770264 179.088804984 190.885770264 179.088804984 191.931640625 177.669921875 c 0,238,239
 196.75445788 171.75445788 196.75445788 171.75445788 202.669921875 166.931640625 c 0,240,241
 204.088804984 165.885770264 204.088804984 165.885770264 205.609375 164.873046875 c 0,242,243
 206.125593354 164.543957674 206.125593354 164.543957674 206.548828125 164.283203125 c 0,244,245
 207.640243566 163.57008706 207.640243566 163.57008706 208.77734375 162.8828125 c 0,246,247
 212.055254407 160.569770706 212.055254407 160.569770706 215.5546875 158.623046875 c 0,248,249
 216.714921101 158.057691316 216.714921101 158.057691316 217.890625 157.53515625 c 128,-1,250
 219.003529803 156.994347089 219.003529803 156.994347089 220.107421875 156.501953125 c 128,-1,251
 221.013888249 156.173030914 221.013888249 156.173030914 221.849609375 155.892578125 c 0,252,253
 225.425913865 154.429409566 225.425913865 154.429409566 229.138671875 153.33984375 c 0,254,255
 229.694936832 153.139748442 229.694936832 153.139748442 230.375 152.908203125 c 0,256,257
 231.43989576 152.605409963 231.43989576 152.605409963 232.537109375 152.328125 c 0,258,-1
 232.572265625 152.318359375 l 0,259,260
 233.327770832 152.106936196 233.327770832 152.106936196 234.087890625 151.912109375 c 0,261,262
 234.438129288 151.81634099 234.438129288 151.81634099 234.857421875 151.70703125 c 0,263,264
 238.21694393 150.99647747 238.21694393 150.99647747 241.60546875 150.59765625 c 0,265,-1
 242.033203125 150.52734375 l 0,266,267
 245.995256696 150.051897321 245.995256696 150.051897321 250 150 c 0,268,269
 252.792309765 150.011496901 252.792309765 150.011496901 255.576171875 150.23046875 c 0,270,271
 256.385490725 150.296988108 256.385490725 150.296988108 257.27734375 150.390625 c 0,272,273
 259.311478325 150.58950516 259.311478325 150.58950516 261.322265625 150.896484375 c 0,274,275
 262.160654211 151.019990492 262.160654211 151.019990492 263.01171875 151.1640625 c 0,276,277
 265.480103928 151.595516271 265.480103928 151.595516271 267.9140625 152.19140625 c 0,278,279
 268.28515625 152.273046875 268.28515625 152.273046875 268.50390625 152.322265625 c 0,280,281
 271.229708267 153.025460629 271.229708267 153.025460629 273.884765625 153.92578125 c 0,282,283
 274.565017884 154.162151732 274.565017884 154.162151732 275.337890625 154.44921875 c 0,284,285
 277.274812583 155.143808656 277.274812583 155.143808656 279.1796875 155.947265625 c 0,286,287
 279.990116017 156.285655076 279.990116017 156.285655076 280.84765625 156.66796875 c 0,288,289
 282.905559277 157.599239641 282.905559277 157.599239641 284.900390625 158.650390625 c 0,290,291
 285.341145833 158.870768229 285.341145833 158.870768229 285.884765625 159.15234375 c 0,292,293
 288.332519531 160.491699219 288.332519531 160.491699219 290.666015625 162.001953125 c 0,294,295
 291.315197797 162.434228458 291.315197797 162.434228458 291.890625 162.833984375 c 0,296,297
 293.616901099 163.994481803 293.616901099 163.994481803 295.302734375 165.26953125 c 0,298,299
 296.003047157 165.799382503 296.003047157 165.799382503 296.724609375 166.373046875 c 0,300,301
 298.431298837 167.73633509 298.431298837 167.73633509 300.015625 169.158203125 c 0,302,303
 300.524115875 169.598605479 300.524115875 169.598605479 301.02734375 170.05078125 c 0,304,305
 303.06101632 171.93898368 303.06101632 171.93898368 304.94921875 173.97265625 c 0,306,307
 305.401394521 174.475884125 305.401394521 174.475884125 305.841796875 174.984375 c 0,308,309
 307.26366491 176.568701163 307.26366491 176.568701163 308.626953125 178.275390625 c 0,310,311
 309.200617497 178.996952843 309.200617497 178.996952843 309.73046875 179.697265625 c 0,312,313
 311.005518197 181.383098901 311.005518197 181.383098901 312.166015625 183.109375 c 0,314,315
 312.565771542 183.684802203 312.565771542 183.684802203 312.998046875 184.333984375 c 0,316,317
 314.508789062 186.667480469 314.508789062 186.667480469 315.84765625 189.115234375 c 0,318,319
 316.129231771 189.658854167 316.129231771 189.658854167 316.349609375 190.099609375 c 0,320,321
 317.400760359 192.094440723 317.400760359 192.094440723 318.33203125 194.15234375 c 0,322,323
 318.714344924 195.009883983 318.714344924 195.009883983 319.052734375 195.8203125 c 0,324,325
 319.856191344 197.725187417 319.856191344 197.725187417 320.55078125 199.662109375 c 0,326,327
 320.837848268 200.434982116 320.837848268 200.434982116 321.07421875 201.115234375 c 0,328,329
 321.974539371 203.770291733 321.974539371 203.770291733 322.677734375 206.49609375 c 0,330,331
 322.726953125 206.71484375 322.726953125 206.71484375 322.80859375 207.0859375 c 0,332,333
 323.404483729 209.519896072 323.404483729 209.519896072 323.8359375 211.98828125 c 0,334,335
 323.980009508 212.839345789 323.980009508 212.839345789 324.103515625 213.677734375 c 0,336,337
 324.41049484 215.688521675 324.41049484 215.688521675 324.609375 217.72265625 c 0,338,339
 324.703011892 218.614509275 324.703011892 218.614509275 324.76953125 219.423828125 c 0,340,341
 324.988503099 222.207690235 324.988503099 222.207690235 325 225 c 128,-1,342
 324.988503099 227.792309765 324.988503099 227.792309765 324.76953125 230.576171875 c 0,343,344
 324.703011892 231.385490725 324.703011892 231.385490725 324.609375 232.27734375 c 0,345,346
 324.41049484 234.311478325 324.41049484 234.311478325 324.103515625 236.322265625 c 0,347,348
 323.980009508 237.160654211 323.980009508 237.160654211 323.8359375 238.01171875 c 0,349,350
 323.404483729 240.480103928 323.404483729 240.480103928 322.80859375 242.9140625 c 0,351,352
 322.726953125 243.28515625 322.726953125 243.28515625 322.677734375 243.50390625 c 0,353,354
 321.974539371 246.229708267 321.974539371 246.229708267 321.07421875 248.884765625 c 0,355,356
 320.837848268 249.565017884 320.837848268 249.565017884 320.55078125 250.337890625 c 0,357,358
 319.856191344 252.274812583 319.856191344 252.274812583 319.052734375 254.1796875 c 0,359,360
 318.714344924 254.990116017 318.714344924 254.990116017 318.33203125 255.84765625 c 0,361,362
 317.400760359 257.905559277 317.400760359 257.905559277 316.349609375 259.900390625 c 0,363,364
 316.129231771 260.341145833 316.129231771 260.341145833 315.84765625 260.884765625 c 0,365,366
 314.508300781 263.332519531 314.508300781 263.332519531 312.998046875 265.666015625 c 0,367,368
 312.565771542 266.315197797 312.565771542 266.315197797 312.166015625 266.890625 c 0,369,370
 311.005518197 268.616901099 311.005518197 268.616901099 309.73046875 270.302734375 c 0,371,372
 309.200617497 271.003047157 309.200617497 271.003047157 308.626953125 271.724609375 c 0,373,374
 307.26366491 273.431298837 307.26366491 273.431298837 305.841796875 275.015625 c 0,375,376
 305.401394521 275.524115875 305.401394521 275.524115875 304.94921875 276.02734375 c 0,377,378
 303.06101632 278.06101632 303.06101632 278.06101632 301.02734375 279.94921875 c 0,379,380
 300.524115875 280.401394521 300.524115875 280.401394521 300.015625 280.841796875 c 0,381,382
 298.431298837 282.26366491 298.431298837 282.26366491 296.724609375 283.626953125 c 0,383,384
 296.003047157 284.200617497 296.003047157 284.200617497 295.302734375 284.73046875 c 0,385,386
 293.616901099 286.005518197 293.616901099 286.005518197 291.890625 287.166015625 c 0,387,388
 291.315197797 287.565771542 291.315197797 287.565771542 290.666015625 287.998046875 c 0,389,390
 288.332519531 289.508789062 288.332519531 289.508789062 285.884765625 290.84765625 c 0,391,392
 285.341145833 291.129231771 285.341145833 291.129231771 284.900390625 291.349609375 c 0,393,394
 282.905559277 292.400760359 282.905559277 292.400760359 280.84765625 293.33203125 c 0,395,396
 279.990116017 293.714344924 279.990116017 293.714344924 279.1796875 294.052734375 c 0,397,398
 277.274812583 294.856191344 277.274812583 294.856191344 275.337890625 295.55078125 c 0,399,400
 274.565017884 295.837848268 274.565017884 295.837848268 273.884765625 296.07421875 c 0,401,402
 271.229708267 296.974539371 271.229708267 296.974539371 268.50390625 297.677734375 c 0,403,404
 268.28515625 297.726953125 268.28515625 297.726953125 267.9140625 297.80859375 c 0,405,406
 265.480103928 298.404483729 265.480103928 298.404483729 263.01171875 298.8359375 c 0,407,408
 262.160654211 298.980009508 262.160654211 298.980009508 261.322265625 299.103515625 c 0,409,410
 259.311478325 299.41049484 259.311478325 299.41049484 257.27734375 299.609375 c 0,411,412
 256.385490725 299.703011892 256.385490725 299.703011892 255.576171875 299.76953125 c 0,413,414
 252.792309765 299.988503099 252.792309765 299.988503099 250 300 c 0,153,154
EndSplineSet
EndChar

StartChar: slash
Encoding: 47 47 85
Width: 500
Flags: W
LayerCount: 2
Fore
SplineSet
450 450 m 128,-1,1
 460.302277474 449.963347526 460.302277474 449.963347526 467.587890625 442.677734375 c 1,2,-1
 467.677734375 442.677734375 l 1,3,-1
 467.677734375 442.587890625 l 1,4,5
 474.963347526 435.302277474 474.963347526 435.302277474 475 425 c 128,-1,6
 474.963347526 414.697722526 474.963347526 414.697722526 467.677734375 407.412109375 c 1,7,-1
 467.677734375 407.322265625 l 1,8,-1
 67.677734375 7.322265625 l 1,9,-1
 67.587890625 7.322265625 l 1,10,11
 60.3022774743 0.0366524742931 60.3022774743 0.0366524742931 50 0 c 128,-1,12
 39.6977225257 0.0366524742931 39.6977225257 0.0366524742931 32.412109375 7.322265625 c 1,13,-1
 32.322265625 7.322265625 l 1,14,-1
 32.322265625 7.412109375 l 1,15,16
 25.0366524743 14.6977225257 25.0366524743 14.6977225257 25 25 c 128,-1,17
 25 35.35546875 25 35.35546875 32.322265625 42.677734375 c 2,18,-1
 432.322265625 442.677734375 l 1,19,0
 439.64453125 450 439.64453125 450 450 450 c 128,-1,1
EndSplineSet
EndChar

StartChar: four
Encoding: 52 52 86
Width: 500
Flags: W
LayerCount: 2
Fore
SplineSet
50 450 m 2,0,-1
 250 450 l 2,1,2
 343 450 343 450 409 384 c 128,-1,3
 475 318 475 318 475 225 c 128,-1,4
 475 132 475 132 409 66 c 128,-1,5
 343 0 343 0 250 0 c 2,6,-1
 50 0 l 2,7,8
 40 0 40 0 32.5 7.5 c 128,-1,9
 25 15 25 15 25 25 c 128,-1,10
 25 35 25 35 32.5 42.5 c 128,-1,11
 40 50 40 50 50 50 c 2,12,-1
 250 50 l 2,13,14
 322 50 322 50 373.5 101.5 c 128,-1,15
 425 153 425 153 425 225 c 128,-1,16
 425 297 425 297 373.5 348.5 c 128,-1,17
 322 400 322 400 250 400 c 2,18,-1
 50 400 l 2,19,20
 40 400 40 400 32.5 407.5 c 128,-1,21
 25 415 25 415 25 425 c 128,-1,22
 25 435 25 435 32.5 442.5 c 128,-1,23
 40 450 40 450 50 450 c 2,0,-1
250 350 m 128,-1,25
 302 350 302 350 338.5 313.5 c 128,-1,26
 375 277 375 277 375 225 c 128,-1,27
 375 173 375 173 338.5 136.5 c 128,-1,28
 302 100 302 100 250 100 c 128,-1,29
 198 100 198 100 161.5 136.5 c 128,-1,30
 125 173 125 173 125 225 c 128,-1,31
 125 277 125 277 161.5 313.5 c 128,-1,24
 198 350 198 350 250 350 c 128,-1,25
250 300 m 128,-1,33
 219 300 219 300 197 278 c 128,-1,34
 175 256 175 256 175 225 c 128,-1,35
 175 194 175 194 197 172 c 128,-1,36
 219 150 219 150 250 150 c 128,-1,37
 281 150 281 150 303 172 c 128,-1,38
 325 194 325 194 325 225 c 128,-1,39
 325 256 325 256 303 278 c 128,-1,32
 281 300 281 300 250 300 c 128,-1,33
EndSplineSet
EndChar

StartChar: six
Encoding: 54 54 87
Width: 500
Flags: W
LayerCount: 2
Fore
SplineSet
250 450 m 2,0,-1
 450 450 l 2,1,2
 460 450 460 450 467.5 442.5 c 128,-1,3
 475 435 475 435 475 425 c 128,-1,4
 475 415 475 415 467.5 407.5 c 128,-1,5
 460 400 460 400 450 400 c 2,6,-1
 250 400 l 2,7,8
 178 400 178 400 126.5 348.5 c 128,-1,9
 75 297 75 297 75 225 c 128,-1,10
 75 153 75 153 126.5 101.5 c 128,-1,11
 178 50 178 50 250 50 c 2,12,-1
 450 50 l 2,13,14
 460 50 460 50 467.5 42.5 c 128,-1,15
 475 35 475 35 475 25 c 128,-1,16
 475 15 475 15 467.5 7.5 c 128,-1,17
 460 0 460 0 450 0 c 2,18,-1
 250 0 l 2,19,20
 157 0 157 0 91 66 c 128,-1,21
 25 132 25 132 25 225 c 128,-1,22
 25 318 25 318 91 384 c 128,-1,23
 157 450 157 450 250 450 c 2,0,-1
250 350 m 128,-1,25
 302 350 302 350 338.5 313.5 c 128,-1,26
 375 277 375 277 375 225 c 128,-1,27
 375 173 375 173 338.5 136.5 c 128,-1,28
 302 100 302 100 250 100 c 128,-1,29
 198 100 198 100 161.5 136.5 c 128,-1,30
 125 173 125 173 125 225 c 128,-1,31
 125 277 125 277 161.5 313.5 c 128,-1,24
 198 350 198 350 250 350 c 128,-1,25
250 300 m 128,-1,33
 219 300 219 300 197 278 c 128,-1,34
 175 256 175 256 175 225 c 128,-1,35
 175 194 175 194 197 172 c 128,-1,36
 219 150 219 150 250 150 c 128,-1,37
 281 150 281 150 303 172 c 128,-1,38
 325 194 325 194 325 225 c 128,-1,39
 325 256 325 256 303 278 c 128,-1,32
 281 300 281 300 250 300 c 128,-1,33
EndSplineSet
EndChar

StartChar: quotedbl
Encoding: 34 34 88
Width: 500
Flags: W
LayerCount: 2
Fore
SplineSet
50 250 m 128,-1,1
 60 250 60 250 67.5 242.5 c 128,-1,2
 75 235 75 235 75 225 c 128,-1,3
 75 215 75 215 67.5 207.5 c 128,-1,4
 60 200 60 200 50 200 c 128,-1,5
 40 200 40 200 32.5 207.5 c 128,-1,6
 25 215 25 215 25 225 c 128,-1,7
 25 235 25 235 32.5 242.5 c 128,-1,0
 40 250 40 250 50 250 c 128,-1,1
450 250 m 128,-1,9
 460 250 460 250 467.5 242.5 c 128,-1,10
 475 235 475 235 475 225 c 128,-1,11
 475 215 475 215 467.5 207.5 c 128,-1,12
 460 200 460 200 450 200 c 128,-1,13
 440 200 440 200 432.5 207.5 c 128,-1,14
 425 215 425 215 425 225 c 128,-1,15
 425 235 425 235 432.5 242.5 c 128,-1,8
 440 250 440 250 450 250 c 128,-1,9
EndSplineSet
EndChar

StartChar: hyphen
Encoding: 45 45 89
Width: 500
Flags: W
LayerCount: 2
Fore
SplineSet
150 250 m 2,0,-1
 350 250 l 2,1,2
 360 250 360 250 367.5 242.5 c 128,-1,3
 375 235 375 235 375 225 c 128,-1,4
 375 215 375 215 367.5 207.5 c 128,-1,5
 360 200 360 200 350 200 c 2,6,-1
 150 200 l 2,7,8
 140 200 140 200 132.5 207.5 c 128,-1,9
 125 215 125 215 125 225 c 128,-1,10
 125 235 125 235 132.5 242.5 c 128,-1,11
 140 250 140 250 150 250 c 2,0,-1
EndSplineSet
EndChar

StartChar: period
Encoding: 46 46 90
Width: 500
Flags: W
LayerCount: 2
Fore
SplineSet
250 450 m 128,-1,1
 260 450 260 450 267.5 442.5 c 128,-1,2
 275 435 275 435 275 425 c 128,-1,3
 275 415 275 415 267.5 407.5 c 128,-1,4
 260 400 260 400 250 400 c 128,-1,5
 240 400 240 400 232.5 407.5 c 128,-1,6
 225 415 225 415 225 425 c 128,-1,7
 225 435 225 435 232.5 442.5 c 128,-1,0
 240 450 240 450 250 450 c 128,-1,1
50 250 m 128,-1,9
 60 250 60 250 67.5 242.5 c 128,-1,10
 75 235 75 235 75 225 c 128,-1,11
 75 215 75 215 67.5 207.5 c 128,-1,12
 60 200 60 200 50 200 c 128,-1,13
 40 200 40 200 32.5 207.5 c 128,-1,14
 25 215 25 215 25 225 c 128,-1,15
 25 235 25 235 32.5 242.5 c 128,-1,8
 40 250 40 250 50 250 c 128,-1,9
250 250 m 0,16,17
 260 250 260 250 267.5 242.5 c 128,-1,18
 275 235 275 235 275 225 c 128,-1,19
 275 215 275 215 267.5 207.5 c 128,-1,20
 260 200 260 200 250 200 c 128,-1,21
 240 200 240 200 232.5 207.5 c 128,-1,22
 225 215 225 215 225 225 c 0,23,24
 225 228.961427592 225 228.961427592 226.22265625 232.724609375 c 0,25,26
 231.835811719 250 231.835811719 250 250 250 c 0,16,17
450 250 m 128,-1,28
 460 250 460 250 467.5 242.5 c 128,-1,29
 475 235 475 235 475 225 c 128,-1,30
 475 215 475 215 467.5 207.5 c 128,-1,31
 460 200 460 200 450 200 c 128,-1,32
 440 200 440 200 432.5 207.5 c 128,-1,33
 425 215 425 215 425 225 c 128,-1,34
 425 235 425 235 432.5 242.5 c 128,-1,27
 440 250 440 250 450 250 c 128,-1,28
250 50 m 128,-1,36
 260 50 260 50 267.5 42.5 c 128,-1,37
 275 35 275 35 275 25 c 128,-1,38
 275 15 275 15 267.5 7.5 c 128,-1,39
 260 0 260 0 250 0 c 128,-1,40
 240 0 240 0 232.5 7.5 c 128,-1,41
 225 15 225 15 225 25 c 128,-1,42
 225 35 225 35 232.5 42.5 c 128,-1,35
 240 50 240 50 250 50 c 128,-1,36
EndSplineSet
EndChar

StartChar: colon
Encoding: 58 58 91
Width: 500
Flags: W
LayerCount: 2
Fore
SplineSet
250 450 m 128,-1,1
 260 450 260 450 267.5 442.5 c 128,-1,2
 275 435 275 435 275 425 c 128,-1,3
 275 415 275 415 267.5 407.5 c 128,-1,4
 260 400 260 400 250 400 c 128,-1,5
 240 400 240 400 232.5 407.5 c 128,-1,6
 225 415 225 415 225 425 c 128,-1,7
 225 435 225 435 232.5 442.5 c 128,-1,0
 240 450 240 450 250 450 c 128,-1,1
50 250 m 128,-1,9
 60 250 60 250 67.5 242.5 c 128,-1,10
 75 235 75 235 75 225 c 128,-1,11
 75 215 75 215 67.5 207.5 c 128,-1,12
 60 200 60 200 50 200 c 128,-1,13
 40 200 40 200 32.5 207.5 c 128,-1,14
 25 215 25 215 25 225 c 128,-1,15
 25 235 25 235 32.5 242.5 c 128,-1,8
 40 250 40 250 50 250 c 128,-1,9
250 250 m 0,16,17
 260 250 260 250 267.5 242.5 c 128,-1,18
 275 235 275 235 275 225 c 128,-1,19
 275 215 275 215 267.5 207.5 c 128,-1,20
 260 200 260 200 250 200 c 128,-1,21
 240 200 240 200 232.5 207.5 c 128,-1,22
 225 215 225 215 225 225 c 0,23,24
 225 228.961427592 225 228.961427592 226.22265625 232.724609375 c 0,25,26
 231.835811719 250 231.835811719 250 250 250 c 0,16,17
450 250 m 128,-1,28
 460 250 460 250 467.5 242.5 c 128,-1,29
 475 235 475 235 475 225 c 128,-1,30
 475 215 475 215 467.5 207.5 c 128,-1,31
 460 200 460 200 450 200 c 128,-1,32
 440 200 440 200 432.5 207.5 c 128,-1,33
 425 215 425 215 425 225 c 128,-1,34
 425 235 425 235 432.5 242.5 c 128,-1,27
 440 250 440 250 450 250 c 128,-1,28
250 50 m 128,-1,36
 260 50 260 50 267.5 42.5 c 128,-1,37
 275 35 275 35 275 25 c 128,-1,38
 275 15 275 15 267.5 7.5 c 128,-1,39
 260 0 260 0 250 0 c 128,-1,40
 240 0 240 0 232.5 7.5 c 128,-1,41
 225 15 225 15 225 25 c 128,-1,42
 225 35 225 35 232.5 42.5 c 128,-1,35
 240 50 240 50 250 50 c 128,-1,36
250 350 m 0,43,44
 258.81658596 349.965543387 258.81658596 349.965543387 267.55078125 348.69140625 c 0,45,46
 269.719439418 348.292454983 269.719439418 348.292454983 271.8984375 347.810546875 c 0,47,48
 278.409784496 346.709460088 278.409784496 346.709460088 284.775390625 344.92578125 c 0,49,50
 287.282851347 344.116541865 287.282851347 344.116541865 289.744140625 343.20703125 c 0,51,52
 295.659486124 341.268561508 295.659486124 341.268561508 301.3515625 338.75390625 c 0,53,54
 303.820706332 337.578263781 303.820706332 337.578263781 306.21875 336.306640625 c 0,55,56
 311.7238933 333.557726392 311.7238933 333.557726392 316.93359375 330.28125 c 0,57,58
 336.17086665 318.140582425 336.17086665 318.140582425 349.8984375 300 c 1,59,-1
 349.6015625 300 l 0,60,61
 353.242432519 295.042499994 353.242432519 295.042499994 356.380859375 289.748046875 c 0,62,63
 360.335145295 283.277531272 360.335145295 283.277531272 363.4765625 276.376953125 c 0,64,65
 365.134250396 272.819892961 365.134250396 272.819892961 366.556640625 269.19140625 c 0,66,67
 369.674614294 260.992952085 369.674614294 260.992952085 371.619140625 252.423828125 c 0,68,69
 372.36258462 249.172184408 372.36258462 249.172184408 372.931640625 245.876953125 c 0,70,71
 373.768492456 241.235826099 373.768492456 241.235826099 374.25390625 236.55078125 c 0,72,73
 374.894994615 230.783926734 374.894994615 230.783926734 375 225 c 0,74,75
 374.894994615 219.216073266 374.894994615 219.216073266 374.25390625 213.44921875 c 0,76,77
 373.768492456 208.764173901 373.768492456 208.764173901 372.931640625 204.123046875 c 0,78,79
 372.36258462 200.827815592 372.36258462 200.827815592 371.619140625 197.576171875 c 0,80,81
 369.674614294 189.007047915 369.674614294 189.007047915 366.556640625 180.80859375 c 0,82,83
 365.134250396 177.180107039 365.134250396 177.180107039 363.4765625 173.623046875 c 0,84,85
 360.335145295 166.722468728 360.335145295 166.722468728 356.380859375 160.251953125 c 0,86,87
 353.242432519 154.957500006 353.242432519 154.957500006 349.6015625 150 c 1,88,-1
 349.8984375 150 l 0,89,90
 336.169921775 131.858641975 336.169921775 131.858641975 316.931640625 119.716796875 c 0,91,92
 311.719620631 116.439408031 311.719620631 116.439408031 306.21875 113.693359375 c 0,93,94
 303.820706332 112.421736219 303.820706332 112.421736219 301.3515625 111.24609375 c 0,95,96
 295.659486124 108.731438492 295.659486124 108.731438492 289.744140625 106.79296875 c 0,97,98
 287.282851347 105.883458135 287.282851347 105.883458135 284.775390625 105.07421875 c 0,99,100
 278.409784496 103.290539912 278.409784496 103.290539912 271.8984375 102.189453125 c 0,101,102
 269.719439418 101.707545017 269.719439418 101.707545017 267.55078125 101.30859375 c 0,103,104
 258.81658596 100.034456613 258.81658596 100.034456613 250 100 c 0,105,106
 241.406705853 100.048817377 241.406705853 100.048817377 232.888671875 101.275390625 c 0,107,108
 227.961039236 102.096907231 227.961039236 102.096907231 223.119140625 103.306640625 c 0,109,110
 219.61484958 103.987499523 219.61484958 103.987499523 216.16015625 104.865234375 c 0,111,112
 210.65116692 106.52660559 210.65116692 106.52660559 205.318359375 108.685546875 c 0,113,114
 202.715515901 109.618919478 202.715515901 109.618919478 200.154296875 110.66796875 c 0,115,116
 194.530381775 113.202546354 194.530381775 113.202546354 189.201171875 116.267578125 c 0,117,118
 187.143047529 117.376817408 187.143047529 117.376817408 185.14453125 118.55078125 c 0,119,120
 164.052995118 131.453769491 164.052995118 131.453769491 149.4609375 151.41796875 c 0,121,122
 146.350628073 155.714065325 146.350628073 155.714065325 143.619140625 160.251953125 c 0,123,124
 140.132665854 166.045523606 140.132665854 166.045523606 137.298828125 172.162109375 c 0,125,126
 135.069324707 176.764716365 135.069324707 176.764716365 133.228515625 181.521484375 c 0,127,128
 130.265973876 189.384359132 130.265973876 189.384359132 128.380859375 197.576171875 c 0,129,130
 128.177439564 198.55052329 128.177439564 198.55052329 127.990234375 199.529296875 c 0,131,132
 127.487867304 201.813451247 127.487867304 201.813451247 127.06640625 204.142578125 c 0,133,134
 126.471013729 207.632198805 126.471013729 207.632198805 126.07421875 211.140625 c 0,135,136
 125.809382012 212.852446818 125.809382012 212.852446818 125.59375 214.552734375 c 0,137,138
 125.077712611 219.767350827 125.077712611 219.767350827 125 225 c 128,-1,139
 125.077712611 230.232649173 125.077712611 230.232649173 125.59375 235.447265625 c 0,140,141
 125.809382012 237.147553182 125.809382012 237.147553182 126.07421875 238.859375 c 0,142,143
 126.471013729 242.367801195 126.471013729 242.367801195 127.06640625 245.857421875 c 0,144,145
 127.487867304 248.186548753 127.487867304 248.186548753 127.990234375 250.470703125 c 0,146,147
 128.177439564 251.44947671 128.177439564 251.44947671 128.380859375 252.423828125 c 0,148,149
 130.265973876 260.615640868 130.265973876 260.615640868 133.228515625 268.478515625 c 0,150,151
 135.069324707 273.235283635 135.069324707 273.235283635 137.298828125 277.837890625 c 0,152,153
 140.132665854 283.954476394 140.132665854 283.954476394 143.619140625 289.748046875 c 0,154,155
 146.353286654 294.290351443 146.353286654 294.290351443 149.458984375 298.580078125 c 0,156,157
 164.052044485 318.545648948 164.052044485 318.545648948 185.14453125 331.44921875 c 0,158,159
 187.143047529 332.623182592 187.143047529 332.623182592 189.201171875 333.732421875 c 0,160,161
 194.530381775 336.797453646 194.530381775 336.797453646 200.154296875 339.33203125 c 0,162,163
 202.715515901 340.381080522 202.715515901 340.381080522 205.318359375 341.314453125 c 0,164,165
 210.65116692 343.47339441 210.65116692 343.47339441 216.16015625 345.134765625 c 0,166,167
 219.61484958 346.012500477 219.61484958 346.012500477 223.119140625 346.693359375 c 0,168,169
 227.961039236 347.903092769 227.961039236 347.903092769 232.888671875 348.724609375 c 0,170,171
 241.406705853 349.951182623 241.406705853 349.951182623 250 350 c 0,43,44
250 300 m 0,172,173
 245.995256696 299.948102679 245.995256696 299.948102679 242.033203125 299.47265625 c 0,174,-1
 241.60546875 299.40234375 l 0,175,176
 238.21694393 299.00352253 238.21694393 299.00352253 234.857421875 298.29296875 c 0,177,178
 234.536363552 298.20926872 234.536363552 298.20926872 234.099609375 298.08984375 c 0,179,180
 233.283130273 297.880571437 233.283130273 297.880571437 232.572265625 297.681640625 c 0,181,-1
 232.537109375 297.671875 l 0,182,183
 231.43989576 297.394590037 231.43989576 297.394590037 230.375 297.091796875 c 0,184,185
 229.694936832 296.860251558 229.694936832 296.860251558 229.138671875 296.66015625 c 0,186,187
 225.425913865 295.570590434 225.425913865 295.570590434 221.849609375 294.107421875 c 0,188,189
 221.013888249 293.826969086 221.013888249 293.826969086 220.107421875 293.498046875 c 128,-1,190
 219.003529803 293.005652911 219.003529803 293.005652911 217.890625 292.46484375 c 128,-1,191
 216.714921101 291.942308684 216.714921101 291.942308684 215.5546875 291.376953125 c 0,192,193
 212.055254407 289.430229294 212.055254407 289.430229294 208.77734375 287.1171875 c 0,194,195
 207.640243566 286.42991294 207.640243566 286.42991294 206.548828125 285.716796875 c 0,196,197
 206.125593354 285.456042326 206.125593354 285.456042326 205.609375 285.126953125 c 0,198,199
 204.088804984 284.114229736 204.088804984 284.114229736 202.669921875 283.068359375 c 0,200,201
 196.75445788 278.24554212 196.75445788 278.24554212 191.931640625 272.330078125 c 0,202,203
 190.885770264 270.911195016 190.885770264 270.911195016 189.873046875 269.390625 c 0,204,205
 189.543957674 268.874406646 189.543957674 268.874406646 189.283203125 268.451171875 c 0,206,207
 188.57008706 267.359756434 188.57008706 267.359756434 187.8828125 266.22265625 c 0,208,209
 185.569770706 262.944745593 185.569770706 262.944745593 183.623046875 259.4453125 c 0,210,211
 183.057691316 258.285078899 183.057691316 258.285078899 182.53515625 257.109375 c 128,-1,212
 181.994347089 255.996470197 181.994347089 255.996470197 181.501953125 254.892578125 c 128,-1,213
 181.173030914 253.986111751 181.173030914 253.986111751 180.892578125 253.150390625 c 0,214,215
 179.429409566 249.574086135 179.429409566 249.574086135 178.33984375 245.861328125 c 0,216,217
 178.139748442 245.305063168 178.139748442 245.305063168 177.908203125 244.625 c 0,218,219
 177.605409963 243.56010424 177.605409963 243.56010424 177.328125 242.462890625 c 0,220,-1
 177.318359375 242.427734375 l 0,221,222
 177.106936196 241.672229168 177.106936196 241.672229168 176.912109375 240.912109375 c 0,223,224
 176.81634099 240.561870712 176.81634099 240.561870712 176.70703125 240.142578125 c 0,225,226
 175.99647747 236.78305607 175.99647747 236.78305607 175.59765625 233.39453125 c 0,227,-1
 175.52734375 232.966796875 l 0,228,229
 175.051897321 229.004743304 175.051897321 229.004743304 175 225 c 128,-1,230
 175.051897321 220.995256696 175.051897321 220.995256696 175.52734375 217.033203125 c 0,231,-1
 175.59765625 216.60546875 l 0,232,233
 175.99647747 213.21694393 175.99647747 213.21694393 176.70703125 209.857421875 c 0,234,235
 176.79073128 209.536363552 176.79073128 209.536363552 176.91015625 209.099609375 c 0,236,237
 177.119428563 208.283130273 177.119428563 208.283130273 177.318359375 207.572265625 c 0,238,-1
 177.328125 207.537109375 l 0,239,240
 177.605409963 206.43989576 177.605409963 206.43989576 177.908203125 205.375 c 0,241,242
 178.139748442 204.694936832 178.139748442 204.694936832 178.33984375 204.138671875 c 0,243,244
 179.429409566 200.425913865 179.429409566 200.425913865 180.892578125 196.849609375 c 0,245,246
 181.173030914 196.013888249 181.173030914 196.013888249 181.501953125 195.107421875 c 128,-1,247
 181.994347089 194.003529803 181.994347089 194.003529803 182.53515625 192.890625 c 128,-1,248
 183.057691316 191.714921101 183.057691316 191.714921101 183.623046875 190.5546875 c 0,249,250
 185.569770706 187.055254407 185.569770706 187.055254407 187.8828125 183.77734375 c 0,251,252
 188.57008706 182.640243566 188.57008706 182.640243566 189.283203125 181.548828125 c 0,253,254
 189.543957674 181.125593354 189.543957674 181.125593354 189.873046875 180.609375 c 0,255,256
 190.885770264 179.088804984 190.885770264 179.088804984 191.931640625 177.669921875 c 0,257,258
 196.75445788 171.75445788 196.75445788 171.75445788 202.669921875 166.931640625 c 0,259,260
 204.088804984 165.885770264 204.088804984 165.885770264 205.609375 164.873046875 c 0,261,262
 206.125593354 164.543957674 206.125593354 164.543957674 206.548828125 164.283203125 c 0,263,264
 207.640243566 163.57008706 207.640243566 163.57008706 208.77734375 162.8828125 c 0,265,266
 212.055254407 160.569770706 212.055254407 160.569770706 215.5546875 158.623046875 c 0,267,268
 216.714921101 158.057691316 216.714921101 158.057691316 217.890625 157.53515625 c 128,-1,269
 219.003529803 156.994347089 219.003529803 156.994347089 220.107421875 156.501953125 c 128,-1,270
 221.013888249 156.173030914 221.013888249 156.173030914 221.849609375 155.892578125 c 0,271,272
 225.425913865 154.429409566 225.425913865 154.429409566 229.138671875 153.33984375 c 0,273,274
 229.694936832 153.139748442 229.694936832 153.139748442 230.375 152.908203125 c 0,275,276
 231.43989576 152.605409963 231.43989576 152.605409963 232.537109375 152.328125 c 0,277,-1
 232.572265625 152.318359375 l 0,278,279
 233.327770832 152.106936196 233.327770832 152.106936196 234.087890625 151.912109375 c 0,280,281
 234.438129288 151.81634099 234.438129288 151.81634099 234.857421875 151.70703125 c 0,282,283
 238.21694393 150.99647747 238.21694393 150.99647747 241.60546875 150.59765625 c 0,284,-1
 242.033203125 150.52734375 l 0,285,286
 245.995256696 150.051897321 245.995256696 150.051897321 250 150 c 0,287,288
 252.792309765 150.011496901 252.792309765 150.011496901 255.576171875 150.23046875 c 0,289,290
 256.385490725 150.296988108 256.385490725 150.296988108 257.27734375 150.390625 c 0,291,292
 259.311478325 150.58950516 259.311478325 150.58950516 261.322265625 150.896484375 c 0,293,294
 262.160654211 151.019990492 262.160654211 151.019990492 263.01171875 151.1640625 c 0,295,296
 265.480103928 151.595516271 265.480103928 151.595516271 267.9140625 152.19140625 c 0,297,298
 268.28515625 152.273046875 268.28515625 152.273046875 268.50390625 152.322265625 c 0,299,300
 271.229708267 153.025460629 271.229708267 153.025460629 273.884765625 153.92578125 c 0,301,302
 274.565017884 154.162151732 274.565017884 154.162151732 275.337890625 154.44921875 c 0,303,304
 277.274812583 155.143808656 277.274812583 155.143808656 279.1796875 155.947265625 c 0,305,306
 279.990116017 156.285655076 279.990116017 156.285655076 280.84765625 156.66796875 c 0,307,308
 282.905559277 157.599239641 282.905559277 157.599239641 284.900390625 158.650390625 c 0,309,310
 285.341145833 158.870768229 285.341145833 158.870768229 285.884765625 159.15234375 c 0,311,312
 288.332519531 160.491699219 288.332519531 160.491699219 290.666015625 162.001953125 c 0,313,314
 291.315197797 162.434228458 291.315197797 162.434228458 291.890625 162.833984375 c 0,315,316
 293.616901099 163.994481803 293.616901099 163.994481803 295.302734375 165.26953125 c 0,317,318
 296.003047157 165.799382503 296.003047157 165.799382503 296.724609375 166.373046875 c 0,319,320
 298.431298837 167.73633509 298.431298837 167.73633509 300.015625 169.158203125 c 0,321,322
 300.524115875 169.598605479 300.524115875 169.598605479 301.02734375 170.05078125 c 0,323,324
 303.06101632 171.93898368 303.06101632 171.93898368 304.94921875 173.97265625 c 0,325,326
 305.401394521 174.475884125 305.401394521 174.475884125 305.841796875 174.984375 c 0,327,328
 307.26366491 176.568701163 307.26366491 176.568701163 308.626953125 178.275390625 c 0,329,330
 309.200617497 178.996952843 309.200617497 178.996952843 309.73046875 179.697265625 c 0,331,332
 311.005518197 181.383098901 311.005518197 181.383098901 312.166015625 183.109375 c 0,333,334
 312.565771542 183.684802203 312.565771542 183.684802203 312.998046875 184.333984375 c 0,335,336
 314.508789062 186.667480469 314.508789062 186.667480469 315.84765625 189.115234375 c 0,337,338
 316.129231771 189.658854167 316.129231771 189.658854167 316.349609375 190.099609375 c 0,339,340
 317.400760359 192.094440723 317.400760359 192.094440723 318.33203125 194.15234375 c 0,341,342
 318.714344924 195.009883983 318.714344924 195.009883983 319.052734375 195.8203125 c 0,343,344
 319.856191344 197.725187417 319.856191344 197.725187417 320.55078125 199.662109375 c 0,345,346
 320.837848268 200.434982116 320.837848268 200.434982116 321.07421875 201.115234375 c 0,347,348
 321.974539371 203.770291733 321.974539371 203.770291733 322.677734375 206.49609375 c 0,349,350
 322.726953125 206.71484375 322.726953125 206.71484375 322.80859375 207.0859375 c 0,351,352
 323.404483729 209.519896072 323.404483729 209.519896072 323.8359375 211.98828125 c 0,353,354
 323.980009508 212.839345789 323.980009508 212.839345789 324.103515625 213.677734375 c 0,355,356
 324.41049484 215.688521675 324.41049484 215.688521675 324.609375 217.72265625 c 0,357,358
 324.703011892 218.614509275 324.703011892 218.614509275 324.76953125 219.423828125 c 0,359,360
 324.988503099 222.207690235 324.988503099 222.207690235 325 225 c 128,-1,361
 324.988503099 227.792309765 324.988503099 227.792309765 324.76953125 230.576171875 c 0,362,363
 324.703011892 231.385490725 324.703011892 231.385490725 324.609375 232.27734375 c 0,364,365
 324.41049484 234.311478325 324.41049484 234.311478325 324.103515625 236.322265625 c 0,366,367
 323.980009508 237.160654211 323.980009508 237.160654211 323.8359375 238.01171875 c 0,368,369
 323.404483729 240.480103928 323.404483729 240.480103928 322.80859375 242.9140625 c 0,370,371
 322.726953125 243.28515625 322.726953125 243.28515625 322.677734375 243.50390625 c 0,372,373
 321.974539371 246.229708267 321.974539371 246.229708267 321.07421875 248.884765625 c 0,374,375
 320.837848268 249.565017884 320.837848268 249.565017884 320.55078125 250.337890625 c 0,376,377
 319.856191344 252.274812583 319.856191344 252.274812583 319.052734375 254.1796875 c 0,378,379
 318.714344924 254.990116017 318.714344924 254.990116017 318.33203125 255.84765625 c 0,380,381
 317.400760359 257.905559277 317.400760359 257.905559277 316.349609375 259.900390625 c 0,382,383
 316.129231771 260.341145833 316.129231771 260.341145833 315.84765625 260.884765625 c 0,384,385
 314.508300781 263.332519531 314.508300781 263.332519531 312.998046875 265.666015625 c 0,386,387
 312.565771542 266.315197797 312.565771542 266.315197797 312.166015625 266.890625 c 0,388,389
 311.005518197 268.616901099 311.005518197 268.616901099 309.73046875 270.302734375 c 0,390,391
 309.200617497 271.003047157 309.200617497 271.003047157 308.626953125 271.724609375 c 0,392,393
 307.26366491 273.431298837 307.26366491 273.431298837 305.841796875 275.015625 c 0,394,395
 305.401394521 275.524115875 305.401394521 275.524115875 304.94921875 276.02734375 c 0,396,397
 303.06101632 278.06101632 303.06101632 278.06101632 301.02734375 279.94921875 c 0,398,399
 300.524115875 280.401394521 300.524115875 280.401394521 300.015625 280.841796875 c 0,400,401
 298.431298837 282.26366491 298.431298837 282.26366491 296.724609375 283.626953125 c 0,402,403
 296.003047157 284.200617497 296.003047157 284.200617497 295.302734375 284.73046875 c 0,404,405
 293.616901099 286.005518197 293.616901099 286.005518197 291.890625 287.166015625 c 0,406,407
 291.315197797 287.565771542 291.315197797 287.565771542 290.666015625 287.998046875 c 0,408,409
 288.332519531 289.508789062 288.332519531 289.508789062 285.884765625 290.84765625 c 0,410,411
 285.341145833 291.129231771 285.341145833 291.129231771 284.900390625 291.349609375 c 0,412,413
 282.905559277 292.400760359 282.905559277 292.400760359 280.84765625 293.33203125 c 0,414,415
 279.990116017 293.714344924 279.990116017 293.714344924 279.1796875 294.052734375 c 0,416,417
 277.274812583 294.856191344 277.274812583 294.856191344 275.337890625 295.55078125 c 0,418,419
 274.565017884 295.837848268 274.565017884 295.837848268 273.884765625 296.07421875 c 0,420,421
 271.229708267 296.974539371 271.229708267 296.974539371 268.50390625 297.677734375 c 0,422,423
 268.28515625 297.726953125 268.28515625 297.726953125 267.9140625 297.80859375 c 0,424,425
 265.480103928 298.404483729 265.480103928 298.404483729 263.01171875 298.8359375 c 0,426,427
 262.160654211 298.980009508 262.160654211 298.980009508 261.322265625 299.103515625 c 0,428,429
 259.311478325 299.41049484 259.311478325 299.41049484 257.27734375 299.609375 c 0,430,431
 256.385490725 299.703011892 256.385490725 299.703011892 255.576171875 299.76953125 c 0,432,433
 252.792309765 299.988503099 252.792309765 299.988503099 250 300 c 0,172,173
EndSplineSet
EndChar

StartChar: numbersign
Encoding: 35 35 92
Width: 500
Flags: W
LayerCount: 2
Fore
SplineSet
450 450 m 128,-1,1
 460.302277474 449.963347526 460.302277474 449.963347526 467.587890625 442.677734375 c 1,2,-1
 467.677734375 442.677734375 l 1,3,-1
 467.677734375 442.587890625 l 1,4,5
 474.963347526 435.302277474 474.963347526 435.302277474 475 425 c 128,-1,6
 474.963347526 414.697722526 474.963347526 414.697722526 467.677734375 407.412109375 c 1,7,-1
 467.677734375 407.322265625 l 1,8,-1
 67.677734375 7.322265625 l 1,9,-1
 67.587890625 7.322265625 l 1,10,11
 60.3022774743 0.0366524742931 60.3022774743 0.0366524742931 50 0 c 128,-1,12
 39.6977225257 0.0366524742931 39.6977225257 0.0366524742931 32.412109375 7.322265625 c 1,13,-1
 32.322265625 7.322265625 l 1,14,-1
 32.322265625 7.412109375 l 1,15,16
 25.0366524743 14.6977225257 25.0366524743 14.6977225257 25 25 c 128,-1,17
 25 35.35546875 25 35.35546875 32.322265625 42.677734375 c 2,18,-1
 432.322265625 442.677734375 l 1,19,0
 439.64453125 450 439.64453125 450 450 450 c 128,-1,1
50 450 m 128,-1,21
 60.35546875 450 60.35546875 450 67.677734375 442.677734375 c 2,22,-1
 467.677734375 42.677734375 l 1,23,24
 475 35.35546875 475 35.35546875 475 25 c 128,-1,25
 474.963347526 14.6977225257 474.963347526 14.6977225257 467.677734375 7.412109375 c 1,26,-1
 467.677734375 7.322265625 l 1,27,-1
 467.587890625 7.322265625 l 1,28,29
 460.302277474 0.0366524742931 460.302277474 0.0366524742931 450 0 c 128,-1,30
 439.697722526 0.0366524742931 439.697722526 0.0366524742931 432.412109375 7.322265625 c 1,31,-1
 432.322265625 7.322265625 l 1,32,-1
 32.322265625 407.322265625 l 1,33,-1
 32.322265625 407.412109375 l 1,34,35
 25.0366524743 414.697722526 25.0366524743 414.697722526 25 425 c 128,-1,36
 25.0366524743 435.302277474 25.0366524743 435.302277474 32.322265625 442.587890625 c 1,37,-1
 32.322265625 442.677734375 l 1,38,-1
 32.412109375 442.677734375 l 1,39,20
 39.6977225257 449.963347526 39.6977225257 449.963347526 50 450 c 128,-1,21
150 350 m 2,40,-1
 350 350 l 2,41,42
 360 350 360 350 367.5 342.5 c 128,-1,43
 375 335 375 335 375 325 c 128,-1,44
 375 315 375 315 367.5 307.5 c 128,-1,45
 360 300 360 300 350 300 c 2,46,-1
 150 300 l 2,47,48
 140 300 140 300 132.5 307.5 c 128,-1,49
 125 315 125 315 125 325 c 128,-1,50
 125 335 125 335 132.5 342.5 c 128,-1,51
 140 350 140 350 150 350 c 2,40,-1
150 150 m 2,52,-1
 350 150 l 2,53,54
 360 150 360 150 367.5 142.5 c 128,-1,55
 375 135 375 135 375 125 c 128,-1,56
 375 115 375 115 367.5 107.5 c 128,-1,57
 360 100 360 100 350 100 c 2,58,-1
 150 100 l 2,59,60
 140 100 140 100 132.5 107.5 c 128,-1,61
 125 115 125 115 125 125 c 128,-1,62
 125 135 125 135 132.5 142.5 c 128,-1,63
 140 150 140 150 150 150 c 2,52,-1
EndSplineSet
EndChar

